<?xml version="1.0" encoding="UTF-8"?> <svg xmlns="http://www.w3.org/2000/svg" width="150" height="94" viewBox="0 0 150 94"><g id="icon_sobitiya" transform="translate(-822 -3217)"><rect id="Rectangle_367" data-name="Rectangle 367" width="150" height="94" transform="translate(822 3217)" fill="none"></rect><g id="Group_607" data-name="Group 607" transform="translate(453.952 3066.238)"><path id="Path_9042" data-name="Path 9042" d="M466.663,165.5c-7.048-5.811-15.39-7.955-24.343-8.624a30.345,30.345,0,0,0-23.566,7.709c-12.825,11-18.869,28.5-14.061,44.9,4.935,16.844,22.053,30.606,40.093,28.557,17.026,2.4,31.8-9.91,36.364-25.859C485.9,195.6,479.986,176.483,466.663,165.5Zm13.86,38.117c-1.464,18.7-16.343,35.343-36.086,32.822a.581.581,0,0,0-.427.115c-8.589-.6-16.725-2.987-23.38-7.629a83.876,83.876,0,0,0,9.878,2.106c.228.026.255-.322.052-.386a86.048,86.048,0,0,0-10.047-2.095.17.17,0,0,0-.2.145,35.465,35.465,0,0,1-5.252-4.6,54.471,54.471,0,0,0,6.874.462c.2,0,.261-.327.049-.362a59.257,59.257,0,0,0-7.33-.547,35.6,35.6,0,0,1-2.966-3.76c1.862.007,3.716.073,5.577.233.222.02.215-.318,0-.343a33.828,33.828,0,0,0-5.765-.159,36.092,36.092,0,0,1-2.289-3.937,36.536,36.536,0,0,0,5.355-.071.172.172,0,0,0,0-.343,36.321,36.321,0,0,0-5.5.147c-.037-.076-.08-.145-.118-.221a39.173,39.173,0,0,1-2.965-8.485,33.077,33.077,0,0,1,4.4-.128c.226.006.213-.319,0-.343a18.318,18.318,0,0,0-4.479.107,39.952,39.952,0,0,1-.734-4.879,14.666,14.666,0,0,0,3.557-.2.184.184,0,0,0-.049-.361c-1.178.091-2.356.158-3.536.141a40.85,40.85,0,0,1-.081-4.773,12.207,12.207,0,0,0,2.927-.211c.235-.047.131-.392-.1-.355a18.636,18.636,0,0,1-2.814.246,41.249,41.249,0,0,1,.549-5.047,21.263,21.263,0,0,0,3.826-.3c.2-.035.157-.382-.049-.361-1.23.121-2.461.211-3.7.237a41.419,41.419,0,0,1,1.133-4.61,37.362,37.362,0,0,1,3.79-.112c.308.01.3-.449,0-.475a15.852,15.852,0,0,0-3.645.078,41.058,41.058,0,0,1,2.111-5.312,13.942,13.942,0,0,0,5.023-.495.168.168,0,0,0-.09-.325,18.762,18.762,0,0,1-4.763.451,40.348,40.348,0,0,1,2.569-4.481,16.624,16.624,0,0,1,3.643.23c.279.047.406-.368.119-.434a12.117,12.117,0,0,0-3.433-.263,39.86,39.86,0,0,1,2.746-3.6c.351-.406.716-.811,1.087-1.214,1.814.044,3.626.063,5.44.027a.156.156,0,0,0,0-.312c-1.73-.035-3.461-.017-5.191.022a45.155,45.155,0,0,1,3.954-3.743c1.807-.065,3.615-.13,5.418-.272.253-.02.26-.4,0-.4-1.628.034-3.255.132-4.88.234a36.608,36.608,0,0,1,4.037-2.832c2.737.044,5.473.071,8.21,0a.219.219,0,0,0,0-.438c-2.487-.069-4.971-.049-7.458-.013a24.237,24.237,0,0,1,8.738-3.091c8.2-1.089,18.187.484,25.477,4.425C473.867,171.153,481.757,187.877,480.523,203.618Z" fill="#3d708a"></path><path id="Path_9043" data-name="Path 9043" d="M460.02,168.384c-11.728-8.632-27.55-8.94-38.483,1.031a35.435,35.435,0,0,0-9.816,37.381c4.9,14.27,20,25.6,35.5,23.574h0a.758.758,0,0,0,.4-.007c12.456-3.669,22.7-14.228,25.431-27.034C475.8,190.485,470.662,176.216,460.02,168.384Zm9.024,41.635a.578.578,0,0,0-.056-.1,18.283,18.283,0,0,0-3.277-2.685c-.526-.389-1.187.474-.7.908a18.2,18.2,0,0,0,3.3,2.647.558.558,0,0,0,.318.064,36.551,36.551,0,0,1-21.43,17.986.752.752,0,0,0-.41.319c-8.5-.378-16.3-2.136-23.086-7.651a33.887,33.887,0,0,1-11.83-20.4c-2.91-16.7,8.51-36.727,26.714-37.555,17.394-.792,31.573,12.688,33.319,29.579A31.8,31.8,0,0,1,469.045,210.019Z" transform="translate(1.119 0.844)" fill="#3d708a"></path><path id="Path_9044" data-name="Path 9044" d="M436.989,163.944a.889.889,0,0,0-1.522,0,4.514,4.514,0,0,0-.168,2.7c.076.94.162,1.869.3,2.8a.653.653,0,0,0,1.25,0c.142-.932.228-1.861.3-2.8A4.523,4.523,0,0,0,436.989,163.944Z" transform="translate(5.258 1.105)" fill="#3d708a"></path><path id="Path_9045" data-name="Path 9045" d="M440.09,216.292c-.2-.974-.347-1.951-.6-2.913a.732.732,0,0,0-1.4,0,8.922,8.922,0,0,0-.243,3.027c.073.938.059,2.089.847,2.715a.958.958,0,0,0,1.484-.191A3.827,3.827,0,0,0,440.09,216.292Z" transform="translate(5.688 9.18)" fill="#3d708a"></path><path id="Path_9046" data-name="Path 9046" d="M417.852,190.439c-.783-.7-1.6-.443-2.562-.284a15.4,15.4,0,0,0-2.971.595c-.706.271-.959,1.562,0,1.7a15.489,15.489,0,0,0,3.1-.028c1.016-.057,1.936.02,2.577-.876A.915.915,0,0,0,417.852,190.439Z" transform="translate(1.414 5.435)" fill="#3d708a"></path><path id="Path_9047" data-name="Path 9047" d="M461.95,189.676a6.017,6.017,0,0,0-4.054.642,1.021,1.021,0,0,0,.241,1.848,13.6,13.6,0,0,0,1.857.154,7.1,7.1,0,0,0,1.956-.054A1.354,1.354,0,0,0,461.95,189.676Z" transform="translate(8.897 5.364)" fill="#3d708a"></path><path id="Path_9048" data-name="Path 9048" d="M419.014,180.064a17.449,17.449,0,0,1-2.767-1.168.586.586,0,0,0-.591,1.01,13.975,13.975,0,0,0,2.977,1.543C419.483,181.778,419.906,180.346,419.014,180.064Z" transform="translate(2.019 3.609)" fill="#3d708a"></path><path id="Path_9049" data-name="Path 9049" d="M423.634,172.607a3.759,3.759,0,0,0-1.089-.839c-.38-.239-.762-.462-1.16-.671a.6.6,0,0,0-.718.932,6.978,6.978,0,0,0,2.231,1.843.76.76,0,0,0,.855-.348A.8.8,0,0,0,423.634,172.607Z" transform="translate(2.856 2.334)" fill="#3d708a"></path><path id="Path_9050" data-name="Path 9050" d="M418.7,203.567a4.086,4.086,0,0,0-2.163,2.325c-.244.564.444,1.268.932.718.31-.349.631-.7.974-1.018a5.637,5.637,0,0,0,1.051-.994A.71.71,0,0,0,418.7,203.567Z" transform="translate(2.198 7.656)" fill="#3d708a"></path><path id="Path_9051" data-name="Path 9051" d="M426.547,210.648c-.924.292-1.459,1.46-1.766,2.31-.25.692.808,1.343,1.278.742.247-.317.483-.644.742-.95a2.637,2.637,0,0,0,.724-1.125A.8.8,0,0,0,426.547,210.648Z" transform="translate(3.55 8.812)" fill="#3d708a"></path><path id="Path_9052" data-name="Path 9052" d="M449.457,169.249a17.378,17.378,0,0,0-2.369,2.34c-.677.631.215,1.829,1,1.3a5.094,5.094,0,0,0,2.454-2.8A.75.75,0,0,0,449.457,169.249Z" transform="translate(7.168 2.026)" fill="#3d708a"></path><path id="Path_9053" data-name="Path 9053" d="M457.13,176.226a7.041,7.041,0,0,0-2,2.012.711.711,0,0,0,1,1l1.091-1.033a3.318,3.318,0,0,0,.9-1.225C458.364,176.383,457.594,176.009,457.13,176.226Z" transform="translate(8.491 3.175)" fill="#3d708a"></path><path id="Path_9054" data-name="Path 9054" d="M452.421,211a6.121,6.121,0,0,0-1.993-2,.583.583,0,0,0-.79.79,6.354,6.354,0,0,0,.825,1.155,5.537,5.537,0,0,0,1.04.973C452.044,212.334,452.77,211.535,452.421,211Z" transform="translate(7.614 8.535)" fill="#3d708a"></path><path id="Path_9055" data-name="Path 9055" d="M441.108,192.8a132.968,132.968,0,0,0-3.569-23.279.667.667,0,0,0-1.3.177c-.054,7.538-1.517,15.094-1.738,22.65a.412.412,0,0,0,.022.121,5.444,5.444,0,0,0-2.249,3.845,5.154,5.154,0,0,0,1.4,3.859c-1.515,4.66-2.092,9.742-2.986,14.547a.743.743,0,0,0,1.431.394,77.064,77.064,0,0,1,6.735-13,.75.75,0,0,0,.12-.433,5.5,5.5,0,0,0,3.892-4.793A5.19,5.19,0,0,0,441.108,192.8Zm-4.068-19.177a143.767,143.767,0,0,1,2.477,18.285,3.9,3.9,0,0,0-1.4-.158.637.637,0,0,0-.276-.122,4.165,4.165,0,0,0-2.355.3C436.294,185.877,436.366,179.7,437.04,173.627Zm-3.3,33.824a50.677,50.677,0,0,0,.858-6.463,5.056,5.056,0,0,0,2.426.909A49.993,49.993,0,0,0,433.742,207.451Zm3.8-7.644a3.418,3.418,0,0,1-3.242-3.352c.023-2.045,1.828-2.916,3.539-3.348a.483.483,0,0,0,.056-.026,4.731,4.731,0,0,1,2.707,3.027A3.23,3.23,0,0,1,437.543,199.807Z" transform="translate(4.52 2.011)" fill="#3d708a"></path><path id="Path_9056" data-name="Path 9056" d="M438.822,192.019a2.134,2.134,0,0,0-2.836-.8.639.639,0,0,0-.346.549,1.8,1.8,0,0,0-.485,1.684,1.872,1.872,0,0,0,2.509,1.286A1.924,1.924,0,0,0,438.822,192.019Zm-1.374.938a.586.586,0,0,1-.347.315c-.241.093-.419.017-.481-.213a1.138,1.138,0,0,1,.014-.557.782.782,0,0,0,.085-.024.593.593,0,0,1,.691.254A.249.249,0,0,1,437.448,192.957Z" transform="translate(5.247 5.597)" fill="#3d708a"></path><path id="Path_9057" data-name="Path 9057" d="M411.019,203.072c-1.4.168-2.779.188-4.176.28-.134.008-.186.23-.035.251a13.335,13.335,0,0,0,4.254-.213C411.239,203.357,411.2,203.051,411.019,203.072Z" transform="translate(0.6 7.578)" fill="#3d708a"></path></g></g></svg> 