<?xml version="1.0" encoding="UTF-8"?> <svg xmlns="http://www.w3.org/2000/svg" width="150" height="94" viewBox="0 0 150 94"><g id="icon_ob_usadbe" transform="translate(-960 -1547)"><rect id="Rectangle_369" data-name="Rectangle 369" width="150" height="94" transform="translate(960 1547)" fill="none"></rect><g id="_07" data-name="07" transform="translate(1005.292 1547.418)"><g id="_3039333102768" transform="translate(-2.292 3.582)"><path id="Path_231" data-name="Path 231" d="M57.82,149.338c-1.509-6.808-6.171-12.98-13.315-14.355a15.605,15.605,0,0,0-16.032,6.943A26.163,26.163,0,0,0,27.2,129.181c.6-1.207,1.241-2.415,1.945-3.555a19.073,19.073,0,0,0,13.785-1.342c3.958-2.214,6.641-6.708,7.982-10.934v-.034a.563.563,0,0,0-.1-1.04c-4.427-3.488-11.571-5.433-16.8-2.784-6,3.052-6.54,9.693-5.936,15.663,0,.034.034.1.034.134a21.008,21.008,0,0,0-1.274,2.985,17.294,17.294,0,0,0-.7-1.643c-.838-1.778-2.113-5.064-4.192-5.769a2.162,2.162,0,0,0-2.817,1.308.425.425,0,0,0-.034.2.406.406,0,0,0-.2.637c3.555,5.165,6.339,10.5,7.613,16.468v.2a.6.6,0,0,0,.1.369,31.643,31.643,0,0,1,.47,3.186c-3.891-4.092-9.492-6.708-15.193-6.1-6.305.671-10.3,5-12.208,10.8-2.448,7.446-2.415,15.529-.906,23.176,1.207,6.037,3.153,13.08,8.318,16.971a13.354,13.354,0,0,0,8.083,2.583c3.823,0,6.741-1.744,10.229-2.985,4.259-1.509,6.909,1.409,10.867,2.046a12.766,12.766,0,0,0,8.251-1.778c6.071-3.555,8.552-10.565,10.6-16.9,2.247-6.943,4.226-14.422,2.616-21.733ZM42.258,123.111h0c-3.891,2.18-8.351,2.147-12.678,1.845a26.185,26.185,0,0,1,6-6.607,25.611,25.611,0,0,1,14.019-4.93c-2.415,3.488-3.354,7.412-7.379,9.693Zm4.561-10.632h0a5.254,5.254,0,0,0,.168-1.006c.738.268,1.476.537,2.247.8a19.613,19.613,0,0,0-2.415.235ZM45.712,111h0c.268.1.5.168.771.268a5.54,5.54,0,0,0-.168,1.274v.034a5.206,5.206,0,0,0-.7.134,7.05,7.05,0,0,0,.1-1.677Zm-1.375-.47h0l.906.3c-.067.671-.1,1.308-.2,1.945-.4.1-.8.168-1.207.3a22.647,22.647,0,0,0,.47-2.549Zm-1.342-.4h0c.235.067.47.134.738.2a8.309,8.309,0,0,0-.335,2.884c-.268.067-.5.168-.771.235A22.353,22.353,0,0,0,43,110.131Zm-1.342-.3h0c.335.067.637.134.973.2a20.983,20.983,0,0,0-.4,3.555c-.335.1-.637.235-.973.369a28.7,28.7,0,0,0,.436-4.125Zm-1.207-.168h0c.2.034.436.067.637.1a19.239,19.239,0,0,0-.268,4.394c-.3.134-.637.268-.939.4a48.014,48.014,0,0,0,.57-4.863Zm-1.845-.034h0a7.257,7.257,0,0,1,1.207,0,44.2,44.2,0,0,0-.47,5.131c-.4.2-.8.4-1.174.6A30.045,30.045,0,0,0,38.6,109.628Zm-1.476.2h0a7.482,7.482,0,0,1,.771-.134,29.332,29.332,0,0,0-.235,5.936c-.335.2-.7.4-1.04.6a41.331,41.331,0,0,0,.5-6.44Zm-1.442.4h0c.268-.1.537-.168.8-.268a43.147,43.147,0,0,0-.3,6.574,12.449,12.449,0,0,0-1.073.771c.268-2.348.436-4.729.6-7.077Zm-1.811.906h0q.5-.3,1.107-.6a22.049,22.049,0,0,0-.3,7.11c-.4.335-.838.671-1.207,1.006.1-2.515.335-5,.436-7.513Zm-1.811,1.442h0a12.244,12.244,0,0,1,1.207-1.04,33.8,33.8,0,0,0-.335,7.58c-.4.369-.771.738-1.14,1.14C31.928,117.711,32.162,115.128,32.062,112.579Zm-1.375,6h0c.067-1.476.2-2.985.2-4.461.2-.3.4-.6.637-.906a55.585,55.585,0,0,0-.134,7.479c-.268.3-.57.637-.838.973C30.653,120.662,30.653,119.623,30.687,118.583Zm-.771-2.381h0a25.232,25.232,0,0,0,.067,6.171l-.906,1.308A23.006,23.006,0,0,1,29.915,116.2Zm-6.372,12.544h0a2.9,2.9,0,0,0,.47.436c.034.235.1.47.134.7C23.945,129.517,23.744,129.114,23.543,128.745Zm2.214,4.595h0a.566.566,0,0,0,.168.067v.034c.034.235.067.436.1.671-.1-.268-.2-.5-.3-.771ZM54.7,168.187h0c-1.778,5.836-3.656,12.544-8.284,16.837a12.77,12.77,0,0,1-8.586,3.622c-3.019-.067-5.333-2.012-8.184-2.583-2.314-.47-4.461.369-6.507,1.308-3.253,1.442-6.473,2.515-10.062,1.912-6.507-1.073-9.894-7.043-11.672-12.778A51.439,51.439,0,0,1-.874,157.086c.6-7.211,2.817-15.965,10.6-18.279,7.01-2.079,13.214,1.744,17.943,6.607.47.47,1.107-.2.7-.7a.4.4,0,0,0-.168-.168.481.481,0,0,0,.436-.335,14.522,14.522,0,0,1,16.3-7.882c6.171,1.442,10.129,6.708,11.537,12.644,1.543,6.406.134,13.047-1.744,19.218Z" transform="translate(2.292 -104.751)" fill="#3d708a"></path><path id="Path_232" data-name="Path 232" d="M134.9,983.691c-1.945-4.729-6.372-8.821-11.672-9.089-6.641-.335-11.2,5.5-14.053,10.766-3.823-3.991-8.485-8.586-14.422-8.519-5.433.034-9.693,4.26-11.571,9.056-2.549,6.54-1.744,14.321-.671,21.1.939,6.037,2.616,12.913,7.915,16.635a11.08,11.08,0,0,0,7.949,2.147c4.595-.7,7.748-5.031,12.711-4.259h.034c5.433,1.912,10.665,4.628,15.529-.1,4.494-4.327,6.641-11.537,8.116-17.407,1.677-6.54,2.784-13.919.134-20.392Zm-5.769,32.3h0c-1.576,2.918-3.857,6.071-7.278,6.808-3.689.8-7.379-1.442-10.766-2.549a.509.509,0,0,0-.7.436c-2.75-.57-5.3,1.006-7.68,2.381-3.756,2.146-7.446,2.515-11.2.168-7.043-4.394-8.217-14.824-8.821-22.337-.637-7.546-.4-17.038,6.808-21.532,7.244-4.494,14.321,1.811,19.117,6.842a.489.489,0,0,0,.8-.134.455.455,0,0,0,.6-.168c3.421-5.568,8.62-12.242,16.065-9.592,7.647,2.717,9.827,11.169,9.223,18.447a56.724,56.724,0,0,1-6.138,21.23Z" transform="translate(-78.676 -942.022)" fill="#3d708a"></path><path id="Path_233" data-name="Path 233" d="M684.392,1647.964c-.771-.906-1.945-1.61-3.052-.771a2.273,2.273,0,0,0-.469,2.985,5.126,5.126,0,0,0,3.522,2.012.48.48,0,0,0,.57-.268.36.36,0,0,0,.671-.168A5.5,5.5,0,0,0,684.392,1647.964Zm-2.348-.034h0a.834.834,0,0,1,.738-.067,3.659,3.659,0,0,0-1.107,1.61,1.1,1.1,0,0,1,.369-1.509Zm-.1,1.979h0c.2-.335.369-.671.57-.973s.469-.57.671-.872a1.586,1.586,0,0,1,.335.335,13.935,13.935,0,0,0-1.375,1.71,1.464,1.464,0,0,1-.2-.235Zm.47.469h0a15.831,15.831,0,0,0,1.375-1.61,4.961,4.961,0,0,1,.268.436,4.551,4.551,0,0,0-1.207,1.442,1.687,1.687,0,0,1-.4-.268Zm1.811-.8h0a6.048,6.048,0,0,1,.268.7,6.543,6.543,0,0,0-.57.771,3.942,3.942,0,0,1-.671-.235A6.9,6.9,0,0,1,684.224,1649.574Zm.436,1.677h0c-.134-.034-.235-.067-.369-.1.134-.134.235-.268.369-.4a5.21,5.21,0,0,1,.168.57A.257.257,0,0,0,684.66,1651.251Z" transform="translate(-657.618 -1591.705)" fill="#3d708a"></path><path id="Path_234" data-name="Path 234" d="M938.1,1639.933a2.681,2.681,0,0,0-3.388.1,5.141,5.141,0,0,0-1.711,4.058.424.424,0,0,0,.47.4.658.658,0,0,0,.7.134c1.375-.671,3.153-.369,4.226-1.643a2.079,2.079,0,0,0-.3-3.018Zm-.4,1.073h0a.949.949,0,0,1,0,1.174,6,6,0,0,0-.939-.671,11.652,11.652,0,0,0-1.241-.7c.738-.469,1.677-.637,2.214.2Zm-3.689,2.415h0c.067-.268.134-.5.2-.771l.4.6c-.2.067-.436.1-.637.167Zm.973-.268h0c-.235-.268-.47-.5-.7-.738a2.973,2.973,0,0,1,.268-.57c.268.235.5.469.771.7a6.191,6.191,0,0,1,.47.469c-.268.067-.537.1-.839.168Zm.6-1.006h0c-.268-.235-.537-.469-.838-.7a4.016,4.016,0,0,1,.369-.4c.436.268.872.536,1.275.839.268.2.5.47.771.671a3.074,3.074,0,0,1-.771.3,7.821,7.821,0,0,0-.839-.7Z" transform="translate(-901.631 -1584.513)" fill="#3d708a"></path><path id="Path_235" data-name="Path 235" d="M133.565,913.906c-2.214-.5-4.83,1.711-5.97,3.421-.2.3.268.671.537.4a9.838,9.838,0,0,1,2.65-2.046c.939-.47,2.012-.57,2.884-1.073A.39.39,0,0,0,133.565,913.906Z" transform="translate(-123.191 -883.304)" fill="#3d708a"></path><path id="Path_236" data-name="Path 236" d="M44.368,864.957c-2.448.3-4.729,2.616-5.97,4.628-.235.369.335.671.57.335a12.125,12.125,0,0,1,2.683-2.717c.906-.671,1.945-1.006,2.884-1.576C44.8,865.46,44.737,864.923,44.368,864.957Z" transform="translate(-36.98 -836.065)" fill="#3d708a"></path><path id="Path_237" data-name="Path 237" d="M1441.215,2402.6a.387.387,0,0,0-.7-.3,14.678,14.678,0,0,1-1.878,2.884,21.567,21.567,0,0,1-2.75,1.945.342.342,0,0,0-.134.335c.067.268.2.369.469.268a.174.174,0,0,0,.067-.134,10.225,10.225,0,0,0,3.019-1.778,6.176,6.176,0,0,0,1.945-3.22Z" transform="translate(-1387.509 -2321.661)" fill="#3d708a"></path><path id="Path_238" data-name="Path 238" d="M1516.01,2432.121a15.6,15.6,0,0,1-1.576,2.683,6.469,6.469,0,0,1-2.717,1.811.367.367,0,0,0,.2.7c2.113-.5,4.9-2.515,4.729-5a.343.343,0,0,0-.637-.168Z" transform="translate(-1460.694 -2350.54)" fill="#3d708a"></path><path id="Path_239" data-name="Path 239" d="M1665.615,979.891a7.963,7.963,0,0,0-5-5.2c-.168-.067-.268.2-.1.268a9.149,9.149,0,0,1,2.817,2.113,11.447,11.447,0,0,1,1.744,3.052A.294.294,0,0,0,1665.615,979.891Z" transform="translate(-1604.664 -942.112)" fill="#3d708a"></path><path id="Path_240" data-name="Path 240" d="M1778.883,985.917c-.3-.168-.537.268-.268.47a8.286,8.286,0,0,1,2.247,2.583c.47.872.6,1.878,1.04,2.75a.341.341,0,0,0,.637-.1C1782.874,989.371,1780.66,986.957,1778.883,985.917Z" transform="translate(-1718.771 -952.934)" fill="#3d708a"></path><path id="Path_241" data-name="Path 241" d="M80.79,2322.611c-.637-.839-1.442-1.442-2.046-2.348a12.82,12.82,0,0,1-1.476-3.052.137.137,0,0,0-.268.033c.235,2.046,1.409,4.83,3.387,5.769C80.622,2323.114,80.991,2322.879,80.79,2322.611Z" transform="translate(-74.341 -2239.521)" fill="#3d708a"></path><path id="Path_242" data-name="Path 242" d="M21.5,2338.508a8.108,8.108,0,0,1-1.543-1.677,4.862,4.862,0,0,1-.637-2.381c0-.235-.4-.335-.436-.067-.235,1.711.6,3.958,2.348,4.595a.305.305,0,0,0,.3-.5Z" transform="translate(-18.136 -2256.055)" fill="#3d708a"></path><path id="Path_243" data-name="Path 243" d="M1067.1,52.914c-.469-1.14-1.912-1.04-2.951-.973a11.372,11.372,0,0,0-5.165,1.61c-.235.134-.033.47.2.369,2.146-.973,5.4-2.046,7.613-.771C1066.933,53.216,1067.168,53.082,1067.1,52.914Z" transform="translate(-1023.289 -50.284)" fill="#3d708a"></path><path id="Path_244" data-name="Path 244" d="M1153.343,5.038c-1.979-1.778-5.132-1.778-7.479-.8-.235.1-.168.47.1.4,2.616-.7,4.7-.1,7.177.738A.2.2,0,0,0,1153.343,5.038Z" transform="translate(-1107.217 -3.582)" fill="#3d708a"></path><path id="Path_245" data-name="Path 245" d="M1059.8,650.694c-2.817,1.107-5.467,1.878-8.552,1.207a.191.191,0,0,0-.1.369c2.951.8,6.339.7,8.821-1.275C1060.1,650.895,1059.97,650.627,1059.8,650.694Z" transform="translate(-1015.689 -628.98)" fill="#3d708a"></path><path id="Path_246" data-name="Path 246" d="M1205.218,677.66c-.7.268-1.308.771-2.012,1.073a9.866,9.866,0,0,1-2.415.637c-.235.034-.168.369.067.369,1.476.067,3.723-.47,4.595-1.778A.208.208,0,0,0,1205.218,677.66Z" transform="translate(-1160.299 -655.04)" fill="#3d708a"></path><path id="Path_247" data-name="Path 247" d="M564.431,464.218c-.5-.771-1.207-1.375-1.677-2.18a3.929,3.929,0,0,1-.5-1.61c0-.268.369-2.549,1.04-2.281.168.067.3-.168.168-.3-1.073-1.04-1.811,1.476-1.878,2.214-.168,1.744,1.14,3.555,2.549,4.494.168.134.4-.134.3-.3Z" transform="translate(-542.655 -442.37)" fill="#3d708a"></path><path id="Path_248" data-name="Path 248" d="M524.674,542.541c-2.147-1.442-5.4-3.589-5.132-6.574,0-.134-.2-.134-.235-.034-.839,3.052,2.616,6.037,5.2,7.01.235.1.335-.268.168-.369Z" transform="translate(-501.69 -518.009)" fill="#3d708a"></path><path id="Path_249" data-name="Path 249" d="M141.492,1508.256a18.009,18.009,0,0,0-3.723,3.924c-.168.2.2.469.369.268.637-.671,1.274-1.341,1.912-2.046a18.025,18.025,0,0,0,1.677-1.912.2.2,0,0,0-.268-.268Z" transform="translate(-133.031 -1457.732)" fill="#3d708a"></path><path id="Path_250" data-name="Path 250" d="M143.557,1509.6a28.057,28.057,0,0,0-3.354,3.555,18.835,18.835,0,0,1-1.375,1.476,7.825,7.825,0,0,0-1.207,1.14c-.034.033,0,.1.067.1,1.14,0,2.079-1.375,2.75-2.147a33.79,33.79,0,0,0,3.387-3.924A.17.17,0,0,0,143.557,1509.6Z" transform="translate(-132.916 -1459.038)" fill="#3d708a"></path><path id="Path_251" data-name="Path 251" d="M142.26,1579.953a24.675,24.675,0,0,0-6.708,6.741c-.067.1.1.235.168.134,1.107-1.107,2.18-2.281,3.32-3.354,1.14-1.107,2.381-2.079,3.455-3.22C142.629,1580.087,142.461,1579.819,142.26,1579.953Z" transform="translate(-130.914 -1527.048)" fill="#3d708a"></path><path id="Path_252" data-name="Path 252" d="M145.049,1647.946a42.023,42.023,0,0,0-6.943,6.641c-.1.1.067.268.168.168a92.4,92.4,0,0,1,7.01-6.54c.134-.134-.067-.4-.2-.268Z" transform="translate(-133.367 -1592.76)" fill="#3d708a"></path><path id="Path_253" data-name="Path 253" d="M141.939,1730.626c-1.945,1.744-3.79,3.622-5.6,5.534a.166.166,0,1,0,.235.235c1.945-1.744,3.891-3.555,5.668-5.467.2-.2-.1-.5-.335-.336Z" transform="translate(-131.632 -1672.623)" fill="#3d708a"></path><path id="Path_254" data-name="Path 254" d="M156.151,1771.47c-2.415,1.979-4.8,3.991-7.177,6.037-.1.067.034.235.134.168,2.515-1.878,4.964-3.857,7.312-5.937A.19.19,0,0,0,156.151,1771.47Z" transform="translate(-143.865 -1712.125)" fill="#3d708a"></path><path id="Path_255" data-name="Path 255" d="M171.823,1809.1c-2.482,2.046-4.9,4.26-7.244,6.44-.134.1.034.335.168.235a47.761,47.761,0,0,0,7.412-6.339A.237.237,0,0,0,171.823,1809.1Z" transform="translate(-158.934 -1748.48)" fill="#3d708a"></path><path id="Path_256" data-name="Path 256" d="M195.488,1774.149a61.447,61.447,0,0,1-5.433,4.83,35.587,35.587,0,0,0-5.433,4.561c-.034.067,0,.134.067.1a33.824,33.824,0,0,0,6.037-4.461,31.384,31.384,0,0,0,5.031-4.863c.1-.134-.134-.3-.235-.2Z" transform="translate(-178.339 -1714.703)" fill="#3d708a"></path><path id="Path_257" data-name="Path 257" d="M205.844,1794.47c-3.991,3.589-8.049,7.01-12.275,10.33-.235.2.067.6.335.436a67.539,67.539,0,0,0,12.208-10.5C206.28,1794.571,206.012,1794.3,205.844,1794.47Z" transform="translate(-186.918 -1734.354)" fill="#3d708a"></path><path id="Path_258" data-name="Path 258" d="M223.74,1927.4c-3.354,2.515-6.54,5.3-9.793,7.915-.2.168.067.5.268.336a117.665,117.665,0,0,0,9.76-7.982c.134-.134-.067-.4-.235-.3Z" transform="translate(-206.625 -1862.82)" fill="#3d708a"></path><path id="Path_259" data-name="Path 259" d="M253.272,2026.769c-2.817,2.046-5.635,4.159-8.284,6.439-.1.1.034.269.168.2,2.918-1.945,5.668-4.092,8.418-6.271.2-.168-.067-.537-.268-.369Z" transform="translate(-236.66 -1958.872)" fill="#3d708a"></path><path id="Path_260" data-name="Path 260" d="M293.215,2112.48a56.722,56.722,0,0,1-5.8,4.461c-.2.134-.034.5.2.369a33.612,33.612,0,0,0,5.9-4.527C293.718,2112.582,293.416,2112.313,293.215,2112.48Z" transform="translate(-277.61 -2041.699)" fill="#3d708a"></path><path id="Path_261" data-name="Path 261" d="M313.589,2172.833c-1.811,1.61-3.823,3.086-5.6,4.763-.1.1.034.268.168.2a27.35,27.35,0,0,0,5.8-4.595C314.192,2172.968,313.824,2172.6,313.589,2172.833Z" transform="translate(-297.547 -2100.006)" fill="#3d708a"></path><path id="Path_262" data-name="Path 262" d="M360.642,2179.1a59.822,59.822,0,0,0-6.808,5.534c-.235.235.134.6.369.369,2.18-1.912,4.427-3.757,6.708-5.568.168-.134-.067-.469-.235-.335Z" transform="translate(-341.816 -2106.109)" fill="#3d708a"></path><path id="Path_263" data-name="Path 263" d="M401.238,2149.1c-2.985,2.549-6,5.131-8.787,7.915-.268.268.134.637.4.4,3.019-2.482,5.9-5.232,8.72-7.982C401.808,2149.2,401.472,2148.9,401.238,2149.1Z" transform="translate(-379.125 -2077.077)" fill="#3d708a"></path><path id="Path_264" data-name="Path 264" d="M446.239,2221.481c-2.448,2.113-4.93,4.192-7.278,6.406-.2.2.067.57.3.4a78.745,78.745,0,0,0,7.278-6.506C446.742,2221.581,446.44,2221.313,446.239,2221.481Z" transform="translate(-424.093 -2147.043)" fill="#3d708a"></path><path id="Path_265" data-name="Path 265" d="M486.95,2230.1c-3.052,2.247-6.071,4.561-8.989,7.01-.2.168.067.57.3.4,3.052-2.281,6.037-4.628,8.921-7.077C487.352,2230.305,487.117,2229.97,486.95,2230.1Z" transform="translate(-461.785 -2155.398)" fill="#3d708a"></path><path id="Path_266" data-name="Path 266" d="M582.661,2279.736q-3.874,2.516-7.647,5.232c-.235.168-.034.57.235.4,2.582-1.71,5.131-3.421,7.647-5.232a.219.219,0,1,0-.235-.369Z" transform="translate(-555.551 -2203.386)" fill="#3d708a"></path></g></g></g></svg> 