<?xml version="1.0" encoding="UTF-8"?> <svg xmlns="http://www.w3.org/2000/svg" width="150" height="94" viewBox="0 0 150 94"><g id="icon_novosti" transform="translate(-1343 -1547)"><rect id="Rectangle_367" data-name="Rectangle 367" width="150" height="94" transform="translate(1343 1547)" fill="none"></rect><g id="Group_782" data-name="Group 782" transform="translate(124.284 -59.277)"><g id="Group_782-2" data-name="Group 782" transform="translate(1258 1614)"><path id="Path_9385" data-name="Path 9385" d="M27.792,155.952c9.362,3.387,21.315,3.4,30.061-1.839.528-.317.184-1.252-.435-1.031-4.815,1.711-9.337,3.32-14.494,3.708a42.83,42.83,0,0,1-14.914-1.633C27.494,155.01,27.3,155.774,27.792,155.952Z" transform="translate(-4.469 -89.001)" fill="#3d708a"></path><path id="Path_9386" data-name="Path 9386" d="M28.693,156.27a.4.4,0,0,0-.211.762,38.981,38.981,0,0,0,29.946-1.385c.473-.232.139-1.048-.363-.862A46.376,46.376,0,0,1,28.693,156.27Z" transform="translate(-3.689 -87.099)" fill="#3d708a"></path><path id="Path_9387" data-name="Path 9387" d="M38.925,146.86a38.822,38.822,0,0,0,3.863-1.09.43.43,0,0,0-.228-.828,38.422,38.422,0,0,0-3.882,1.022A.465.465,0,0,0,38.925,146.86Z" transform="translate(7.586 -98.025)" fill="#3d708a"></path><path id="Path_9388" data-name="Path 9388" d="M41.95,146.386a3.073,3.073,0,0,1-2.773.667c-.372-.1-.644.473-.27.644a3.014,3.014,0,0,0,3.649-.705A.429.429,0,0,0,41.95,146.386Z" transform="translate(8.008 -96.542)" fill="#3d708a"></path><path id="Path_9389" data-name="Path 9389" d="M37.951,123.353c-.539-.072-.532.775,0,.845l8.095,1.071c.539.072.532-.773,0-.845Z" transform="translate(6.697 -122.023)" fill="#3d708a"></path><path id="Path_9390" data-name="Path 9390" d="M17.417,194.95c1.666,3.751,5.415,5.677,9.087,7.011a87.645,87.645,0,0,0,14.777,3.875,79.759,79.759,0,0,0,28.635.16c7.664-1.457,18.43-4.448,22.66-11.731a9.765,9.765,0,0,0-.731-10.853c-3.028-4.167-7.884-5.571-12.684-6.555.526-1.352,1.005-2.731,1.419-4.141.355.057.707.07,1.064.1a.7.7,0,0,0,.741-.764c.011-.017.025-.025.036-.044a33.464,33.464,0,0,1,7.246-9.451c2.418-2.169,5.214-3.844,7.7-5.917,4.065-3.383,6.665-7.917,5.039-13.269A10.57,10.57,0,0,0,92.4,135.544a11.434,11.434,0,0,0-9.77,5.877,61.892,61.892,0,0,0-2.813-11.106.375.375,0,0,0-.515-.218,6.779,6.779,0,0,0-6.412-4.234.583.583,0,0,0,0,1.166,5.991,5.991,0,0,1,5.561,7.4c-.023.106-.061.2-.089.31A33.681,33.681,0,0,0,54.041,129.7c-.534.093-.308.908.226.815a32.826,32.826,0,0,1,23.816,5.054,8.393,8.393,0,0,1-.61,1.216,39.069,39.069,0,0,0-18-5.244c-.545-.021-.545.824,0,.845A38.13,38.13,0,0,1,77,137.483c-.175.232-.361.456-.555.674a.57.57,0,0,0-.3-.72c-15.55-7.073-35.864-4.621-49.828,5-.148-.036-.3-.059-.446-.1a12.86,12.86,0,0,1-1.713-.617,28,28,0,0,1,14.329-8.8.423.423,0,0,0-.226-.815,28.754,28.754,0,0,0-14.84,9.18,3.165,3.165,0,0,1-.982-1.307l5.164-4.619c.405-.365-.194-.961-.6-.6l-4.868,4.355c-.027-.1-.059-.177-.084-.283-.585-2.41-.218-3.453,1.683-5.229A19.073,19.073,0,0,1,27,131.329a52.454,52.454,0,0,1,4.9-2.589,57.439,57.439,0,0,1,26.1-5.06c.543.017.534-.8,0-.836-11.421-.762-24.977,2-34.168,9.218-2.4,1.884-4.443,5.138-3.269,8.038-.025.156-.044.317-.068.473l-.188.169a.383.383,0,0,0,.076.629,54.86,54.86,0,0,0,2.754,25.07,60.562,60.562,0,0,0,7.041,14.12C23.63,182.088,13.67,186.513,17.417,194.95ZM93.895,144.79a5.428,5.428,0,0,0-6.167-3.094,7.244,7.244,0,0,0-4.629,3.311c-.011-.118-.017-.239-.032-.359a6.583,6.583,0,0,1,10.23-1.527c3.085,3,2.188,7.506-.059,10.709-2.731,3.892-7.134,6.439-9.886,10.19,1.951-4.627,6.074-6.781,9.016-10.756C94.142,150.868,95.166,147.669,93.895,144.79ZM83.183,158.517a68.831,68.831,0,0,0,.061-11.877,7.658,7.658,0,0,1,2.87-3.062c2.414-1.314,5.917-.393,6.737,2.386,1.026,3.491-1.453,6.555-3.765,8.8-2.222,2.158-4.87,4.2-6.258,6.946C82.968,160.627,83.086,159.559,83.183,158.517Zm-.456,8.251c3.4-7.2,14.306-10.646,13.408-19.664-.684-6.9-9.29-8.593-13.225-3.713-.013-.1-.03-.188-.042-.283,2.4-4.456,7.284-7.421,12.447-5.607,5.577,1.96,7.979,9.18,4.995,14.143-2.367,3.937-6.667,6.148-10.124,8.984a34.27,34.27,0,0,0-8.266,10.105C82.241,169.432,82.5,168.1,82.727,166.769Zm-7.106-28.1a.554.554,0,0,0,.315.008,11.006,11.006,0,0,1-1.915,1.476,19.581,19.581,0,0,1-4.83,2.013,2.447,2.447,0,0,0-2.078-1.223q2.309-1.726,4.621-3.457C73.027,137.857,74.322,138.243,75.62,138.672ZM65,135.92q2.864.52,5.706,1.29-2.506,1.872-5.014,3.746a.434.434,0,0,0-.169.277,9.207,9.207,0,0,0-3.343,2.3c-.76.11-1.521.215-2.281.308l7.647-6.545c.414-.353-.188-.95-.6-.6l-8.536,7.307q-1.609.174-3.221.294,4.894-3.912,9.789-7.831A.35.35,0,0,0,65,135.92Zm1.814,6.83c-1.045.218-2.093.4-3.132.562.1-.082.194-.175.3-.256C64.962,141.929,65.9,141.844,66.814,142.75Zm-2.338-6.923a.425.425,0,0,0-.093.046q-5.328,4.264-10.661,8.528c-1.556.1-3.115.161-4.676.182q5.822-4.647,11.649-9.292C61.963,135.424,63.222,135.61,64.476,135.827Zm-8.162-.807q1.593.035,3.168.165-5.892,4.7-11.784,9.4c-1.073,0-2.15-.015-3.225-.044l11.744-9.079A.323.323,0,0,0,56.314,135.021Zm-.887-.006L43.154,144.5c-.931-.038-1.865-.1-2.8-.158q5.455-4.277,10.912-8.551a.364.364,0,0,0-.089-.627C52.611,135.046,54.024,135.008,55.427,135.014Zm-4.767.186L39.1,144.258c-1.071-.087-2.141-.186-3.21-.3L45.211,136A52.56,52.56,0,0,1,50.66,135.2Zm-7.183,1.176-8.712,7.434c-.98-.12-1.956-.247-2.931-.395q2.129-1.46,4.255-2.923c.446-.306.023-1.039-.427-.731l-5.031,3.459c-.6-.1-1.193-.184-1.787-.289-.42-.076-.847-.146-1.273-.218A59.667,59.667,0,0,1,43.478,136.376ZM30.768,181.4a33.281,33.281,0,0,0,7.085,7.337c.612.45,1.172-.475.758-.98-2.957-3.59-6.194-6.764-8.709-10.728a56.9,56.9,0,0,1-5.763-11.974,58.179,58.179,0,0,1-2.84-23.71c.061.078.112.158.18.237a5.373,5.373,0,0,0,1.14.961.412.412,0,0,0,.517.3,15.526,15.526,0,0,0,3.356,1.136,81.669,81.669,0,0,0,9.385,1.7,94.446,94.446,0,0,0,16.278.693.436.436,0,0,0,.494-.032c1.5-.07,3-.154,4.494-.294a71.959,71.959,0,0,0,10.842-1.527,16.138,16.138,0,0,1,.661,1.535,5.2,5.2,0,0,1-.693,1.812,56.345,56.345,0,0,1-6.492.788c-.541.034-.545.881,0,.845a57.882,57.882,0,0,0,6.059-.71c-.357.885-.686,1.77-.969,2.669a55.97,55.97,0,0,1-6.5.249.423.423,0,0,0,0,.845,56.424,56.424,0,0,0,6.247-.226c-.169.6-.323,1.212-.443,1.837-.015.076-.025.152-.038.228q-.567.092-1.136.182c-.534.087-.308.9.226.815l.765-.122a26.1,26.1,0,0,0-.268,2.655c-1.77.209-3.554.346-5.352.387a.423.423,0,0,0,0,.845c1.789-.04,3.563-.173,5.326-.378-.011.657,0,1.311.042,1.966-1.468.11-2.946.16-4.431.139a.424.424,0,0,0,0,.847q2.265.029,4.5-.144a22.747,22.747,0,0,0,.593,3.415.527.527,0,0,0,.08.173c-1.447.222-2.9.446-4.336.714-.469.089-.367.9.114.843,2.815-.313,5.609-.8,8.422-1.14a.686.686,0,0,0,.2-.063.538.538,0,0,0-.133.313c-.167,2.2-.182,4.414-.239,6.619-.027.976.215,2.391-.258,3.263a5.32,5.32,0,0,1-2.832,1.8,5.321,5.321,0,0,1-3.25.215c-2.334-.718-2.384-2.874-2.355-4.9.034-2.1.074-4.2.04-6.3a.441.441,0,0,0-.881,0c-.268,4.312-2.038,12.79,4.756,12.5,1.535-.065,5.058-1.132,5.829-2.572.509-.952.142-3.444.163-4.481.042-2.046.127-4.1.072-6.146a.5.5,0,0,0-.716-.458.531.531,0,0,0-.541-.851c-1.1.192-2.2.359-3.309.526a.471.471,0,0,0,.055-.3c-.156-1.1-.279-2.194-.353-3.282a49.556,49.556,0,0,0,12.545-2.906c.5-.188.285-1.005-.226-.815a48.991,48.991,0,0,1-12.359,2.874q-.048-1-.03-2a56.344,56.344,0,0,0,11.668-2.9c.507-.184.287-1-.224-.815a55.759,55.759,0,0,1-11.421,2.855,25.151,25.151,0,0,1,.266-2.693q5.129-.827,10.264-1.651c.534-.087.308-.9-.226-.815l-9.886,1.59c.127-.667.285-1.333.475-2a56.189,56.189,0,0,0,10.063-2.063c.52-.158.3-.974-.224-.815a55.332,55.332,0,0,1-9.584,2c.3-.9.741-1.829,1.153-2.779a57.38,57.38,0,0,0,9.837-2.832c.5-.194.285-1.012-.224-.815a57.25,57.25,0,0,1-9.229,2.712,7.2,7.2,0,0,0,.558-3.611,21.2,21.2,0,0,0,3.153-1.273c3.4-1.744,6.648-5.191,6.912-9.182a75.948,75.948,0,0,1,2.1,13.609c-.078.194-.165.386-.234.581a.389.389,0,0,0,.285.5,67.613,67.613,0,0,1-.243,9.706,68.685,68.685,0,0,1-1.8,10.181,8.744,8.744,0,0,1-7.394,1.909c-.53-.106-.758.71-.224.813a9.629,9.629,0,0,0,7.254-1.411c-.2.75-.4,1.5-.631,2.239-1.352,4.369-3.54,8.336-5.109,12.6-.256.693.731.976,1.107.467.277-.378.513-.8.775-1.2a.34.34,0,0,0,.353.186c4.222-.38,5.968,4.35,4.344,7.677-1.533,3.14-4.8,4.712-7.968,5.73a70.174,70.174,0,0,1-18.517,3.2,59.547,59.547,0,0,1-18.426-1.772c-3.178-.9-6.481-2.686-7.506-6.07s1.806-7.5,5.569-5.955c.5.2.722-.612.224-.817-4.344-1.78-7.808,3.031-6.608,7,1.789,5.92,8.992,7.119,14.224,7.854a71.117,71.117,0,0,0,20.384-.146,69.32,69.32,0,0,0,10.883-2.475c2.722-.874,5.482-2.1,7.332-4.365a7.39,7.39,0,0,0,1.605-7.009,5.449,5.449,0,0,0-5.466-3.692c.228-.37.477-.72.693-1.1,4.868-1.428,9.147,2.91,8.737,7.774-.439,5.2-5.033,8.414-9.818,9.259-.534.093-.306.908.226.813,5.586-.982,10.775-5.206,10.456-11.324-.245-4.7-4.513-8.393-9.1-7.523.127-.243.249-.486.372-.733a.4.4,0,0,0,.26.038,8.071,8.071,0,0,1,8.122,12.612c-.308.448.424.87.731.425a8.9,8.9,0,0,0-8.7-13.894c.194-.42.372-.851.553-1.28,5.075,1.356,11.246,3.482,13.136,8.931,1.869,5.392-2.517,9.67-6.752,12.143-8.156,4.769-18.114,6.528-27.444,6.705a92.025,92.025,0,0,1-27.148-3.782c-4.756-1.368-11.427-3.29-12.585-8.931C16.416,185.566,25.258,182.808,30.768,181.4Z" transform="translate(-16.598 -122.721)" fill="#3d708a"></path><path id="Path_9391" data-name="Path 9391" d="M37.759,164.573a2.38,2.38,0,0,0-.509-1.833c-1.081-1.713-2.405-3.257-3.449-5.009a45.679,45.679,0,0,1-4.562-10.469c-.828-2.824-.777-6.648-2.6-9.054-2.135-2.826-5.417-1.723-5.647,1.607-.272,3.937,1.36,8.19,2.769,11.8a44.55,44.55,0,0,0,5.079,9.345c1.316,1.837,2.944,5.189,5.447,5.535C35.628,166.683,37.44,166.038,37.759,164.573Zm-7.738-3.43a45.65,45.65,0,0,1-5.442-9.753,37.711,37.711,0,0,1-2.678-9.71c-.146-1.423-.346-3.994,1.559-4.281,3.725-.564,3.991,6.422,4.581,8.695a51.285,51.285,0,0,0,8.067,16.547c.6.864,1.185,1.772.127,2.642a2.662,2.662,0,0,1-3.157-.245C31.81,164.06,30.956,162.433,30.021,161.143Z" transform="translate(-11.741 -107.296)" fill="#3d708a"></path><path id="Path_9392" data-name="Path 9392" d="M33.72,155.978a42.5,42.5,0,0,0,19.545-3.2c.494-.209.277-1.026-.226-.815a41.979,41.979,0,0,1-19.319,3.172C33.177,155.1,33.179,155.94,33.72,155.978Z" transform="translate(1.987 -90.248)" fill="#3d708a"></path><path id="Path_9393" data-name="Path 9393" d="M34.279,153.992a53.64,53.64,0,0,0,19.393-2.446c.517-.165.3-.98-.224-.815a52.975,52.975,0,0,1-19.17,2.414C33.734,153.116,33.736,153.961,34.279,153.992Z" transform="translate(2.607 -91.601)" fill="#3d708a"></path><path id="Path_9394" data-name="Path 9394" d="M34.609,152.594a72.313,72.313,0,0,0,20.046-2.471.423.423,0,0,0-.224-.815,71.518,71.518,0,0,1-19.822,2.441A.423.423,0,0,0,34.609,152.594Z" transform="translate(2.975 -93.178)" fill="#3d708a"></path><path id="Path_9395" data-name="Path 9395" d="M46,148.127l-3.047.712c-.53.125-.306.938.224.815l3.05-.712C46.756,148.817,46.53,148,46,148.127Z" transform="translate(12.367 -94.487)" fill="#3d708a"></path><path id="Path_9396" data-name="Path 9396" d="M43.188,148.491q2.933-.577,5.871-1.157c.532-.1.306-.919-.226-.813q-2.933.577-5.871,1.157C42.43,147.782,42.656,148.6,43.188,148.491Z" transform="translate(12.377 -96.269)" fill="#3d708a"></path><path id="Path_9397" data-name="Path 9397" d="M43.193,145.932l7.729-2.171a.423.423,0,0,0-.226-.815q-3.862,1.087-7.727,2.171A.423.423,0,0,0,43.193,145.932Z" transform="translate(12.391 -100.254)" fill="#3d708a"></path><path id="Path_9398" data-name="Path 9398" d="M52.469,141.029a24.116,24.116,0,0,1-11.634,1.8c-.543-.049-.539.8,0,.845a24.707,24.707,0,0,0,11.86-1.825C53.189,141.637,52.971,140.82,52.469,141.029Z" transform="translate(9.898 -102.402)" fill="#3d708a"></path><path id="Path_9399" data-name="Path 9399" d="M43.9,163.125a50.31,50.31,0,0,0,13.759-2.547c3.7-1.244,7.385-2.891,9.592-6.262.3-.456-.433-.879-.731-.427-2.084,3.183-5.6,4.7-9.087,5.873a49.254,49.254,0,0,1-11.28,2.367c-3.78.336-23.106.788-20.249-6.5.2-.507-.617-.727-.813-.224C21.931,163.455,39.907,163.3,43.9,163.125Z" transform="translate(-7.571 -88.28)" fill="#3d708a"></path></g></g></g></svg> 