<?xml version="1.0" encoding="UTF-8"?> <svg xmlns="http://www.w3.org/2000/svg" width="150" height="94" viewBox="0 0 150 94"><g id="icon_dni" transform="translate(-631 -3217)"><rect id="Rectangle_368" data-name="Rectangle 368" width="150" height="94" transform="translate(631 3217)" fill="none"></rect><g id="Group_606" data-name="Group 606" transform="translate(602.199 2935.516)"><path id="Path_9039" data-name="Path 9039" d="M86.73,301.144c-.986-2.467-.191-4.612,1.092-6.754-.182-.325-.388-.686-.586-1.051a10.141,10.141,0,0,1-1.368-5.05c.024-1.366.583-1.929,1.926-1.783a5.862,5.862,0,0,1,2.069.621,18.791,18.791,0,0,1,6.812,5.542,13.311,13.311,0,0,0,.885,1.059,1.131,1.131,0,0,0,.278.172c2.5-3.808,8.948-3.887,11.609.077.4-.482.821-.92,1.172-1.406a18.813,18.813,0,0,1,6.953-5.544,5.706,5.706,0,0,1,2.205-.524c.985-.063,1.477.456,1.549,1.451a9.712,9.712,0,0,1-1.234,5.195c-.209.407-.451.8-.685,1.207,1.168,2.1,2.139,4.218,1.054,6.747.335.041.577.091.82.1q6.326.152,12.653.291c1.5.033,2.992.032,4.488.07.766.02,1.534.064,2.3.146,1.288.137,1.665.54,1.731,1.832a29.681,29.681,0,0,1-.47,6.41,43.542,43.542,0,0,0-.544,5.716c-.086,2.635-1.024,3.834-3.635,4.3a2.126,2.126,0,0,0-.354.175c0,.371-.014.818,0,1.264.283,8.067-.46,16.1-.89,24.137-.285,5.325-.627,10.647-.994,15.966-.129,1.872-.385,3.736-.625,5.6a2.65,2.65,0,0,1-1.888,2.24,4.609,4.609,0,0,1-.876.276c-2.2.321-4.394.723-6.606.906-2.6.215-5.209.3-7.816.322-2.76.019-5.522-.129-8.283-.168-2.337-.033-4.675-.031-7.012-.015-4.793.032-9.587.107-14.38.114-1.878,0-3.763-.05-5.631-.226-2.478-.233-4.95-.562-7.409-.946a3.061,3.061,0,0,1-2.847-2.967c-.245-2.865-.533-5.727-.736-8.595q-.463-6.543-.831-13.093c-.23-3.983-.36-7.972-.632-11.952a114.689,114.689,0,0,1-.227-12.076c.01-.263-.03-.528-.05-.851-.269-.062-.518-.131-.772-.175a3.628,3.628,0,0,1-3.122-3.569,51.538,51.538,0,0,0-.791-7.886,31.038,31.038,0,0,1-.215-5.044c.016-1.2.427-1.536,1.6-1.688a13.625,13.625,0,0,1,1.375-.131q5.521-.15,11.042-.279C81.433,301.241,84.033,301.2,86.73,301.144Zm28.157,23.145c.194-.772.363-1.55.588-2.312.213-.726.485-1.435.766-2.254h-1.786l-1.533,3.668a3.059,3.059,0,0,0,2.007.86,3.261,3.261,0,0,0,1.924,1.446l2.435-5.9c-.562-.041-.936-.044-1.3-.1-.7-.107-1.054.2-1.246.866a13.4,13.4,0,0,1-.788,2.158A12.576,12.576,0,0,1,114.886,324.29Zm-41.307.626c-.457.2-.909.407-1.373.589a1.035,1.035,0,0,0-.737,1.232,6.982,6.982,0,0,0,.779,2.725c1.062,1.988,2.008,4.037,3.041,6.144l.878-.591c-.469-1.034-.915-2-1.35-2.98s-.888-1.957-1.291-2.952a9.079,9.079,0,0,1-1.108-2.972,2.051,2.051,0,0,1,.852.654,11.27,11.27,0,0,1,.821,1.515c.774,1.671,1.523,3.353,2.292,5.026.168.365.379.711.614,1.145l1.123-.813c-.176-.357-.3-.633-.445-.9q-2.06-3.922-4.118-7.838a2.858,2.858,0,0,1,1.814,1.653c1.056,1.915,2.08,3.846,3.124,5.768.14.257.313.5.512.808l1.191-.811c-1.779-2.793-2.563-5.95-4.4-8.7Zm59.967.048-2.055-1.327a69.812,69.812,0,0,0-4.353,8.806l1.15.673.61-1.13c.966-1.787,1.918-3.582,2.9-5.358a2.932,2.932,0,0,1,1.772-1.7c-.332.684-.647,1.378-1,2.051-1.15,2.2-2.315,4.389-3.514,6.659l1.245.808c.667-1.456,1.264-2.777,1.877-4.09.517-1.11,1.032-2.221,1.588-3.312a1.305,1.305,0,0,1,1.258-.91l-1.986,4.447-1.983,4.445.853.553c1.187-2.359,2.4-4.614,3.449-6.941a9.455,9.455,0,0,0,.386-2.571c-.584-.344-1.163-.695-1.754-1.024A1.381,1.381,0,0,0,133.547,324.964ZM74.817,356.775c-.781-.059-1.253.229-1.228.888a4.8,4.8,0,0,0,.36,1.763c1.043,2.3,2.156,4.574,3.23,6.863a5.3,5.3,0,0,1,.232.892c-.757-.059-.941-.568-1.146-.992-.632-1.311-1.22-2.643-1.835-3.963-.117-.252-.279-.483-.488-.841a2.24,2.24,0,0,0-.12.48c.116,1.643.221,3.288.383,4.927a.988.988,0,0,0,.512.647,3.484,3.484,0,0,0,4.618-1.231,18.391,18.391,0,0,1-1.283-1.917q-1.375-2.717-2.628-5.494a16.987,16.987,0,0,1-.648-2.065,9.583,9.583,0,0,1,.778.952,50.432,50.432,0,0,1,4.36,8.283l1.516-1.179a41.7,41.7,0,0,1-4.908-9.916c-.59.494-1.124.915-1.62,1.378C74.8,356.347,74.843,356.6,74.817,356.775Zm57.964-.447c-.342-.2-.7-.377-1.023-.6-.361-.249-.694-.539-1.084-.847a40.608,40.608,0,0,1-4.9,9.935l1.581,1.155a11.52,11.52,0,0,1,.534-1.41q2.034-3.719,4.119-7.41a4.731,4.731,0,0,1,.772-.826c-.169.426-.335.853-.509,1.276a36.219,36.219,0,0,1-4.511,8.732c.59.448,1.18.92,1.8,1.35a1.021,1.021,0,0,0,.647.153c.72-.082,1.438-.2,2.151-.332a.81.81,0,0,0,.7-.893c.039-1.033.157-2.062.235-3.092.053-.706.093-1.412.14-2.118a2.137,2.137,0,0,0-.684.921c-.6,1.286-1.172,2.581-1.791,3.855-.206.423-.374.948-1.184.992a10.675,10.675,0,0,1,.369-1.084c1.074-2.288,2.169-4.567,3.244-6.856a1.887,1.887,0,0,0-.511-2.6C132.81,356.562,132.812,356.428,132.782,356.327Zm-34.558-36.8c.541,16.286-.654,32.459-1.08,48.786h12.939c0-.472.011-.809,0-1.146-.067-1.686-.155-3.37-.207-5.057-.055-1.764-.047-3.529-.119-5.292-.266-6.476-.651-12.949-.8-19.428-.133-5.6-.012-11.2,0-16.8,0-.332,0-.663,0-1.069-.49-.038-.867-.044-1.238-.1a28.5,28.5,0,0,0-8.217,0C99.122,319.476,98.746,319.486,98.223,319.528Zm-1.513,19.532c.32-1.929.428-14.953.125-15.962-.271.154-.533.291-.782.449-.616.388-1.22.8-1.84,1.178-2.348,1.446-4.709,2.873-7.049,4.333a14.543,14.543,0,0,0-2.442,1.716,19.312,19.312,0,0,1-2.538,1.58c-.246.176-.6.316-.7.557-.143.337-.4.239-.6.351-1.125.643-2.221,1.337-3.3,2.05-.153.1-.175.4-.21.489a6.75,6.75,0,0,0-1.209.438c-.982.6-1.9,1.3-2.907,1.856a1.763,1.763,0,0,0-.963,1.966c.337,4.05.614,8.1.915,12.157.092,1.245.192,2.49.287,3.718.183,0,.279.031.323,0,.267-.217.513-.461.783-.676,2.307-1.836,4.592-3.7,6.937-5.487,1.579-1.2,3.279-2.245,4.865-3.439,2.539-1.911,5.01-3.914,7.552-5.822A5.346,5.346,0,0,1,96.711,339.059Zm13.721-15.921c-.062.073-.189.153-.19.234-.059,5.209-.078,10.418.2,15.643a7.235,7.235,0,0,1,3.208,1.779c4.032,3.036,7.926,6.246,12.131,9.064,2.565,1.718,4.854,3.848,7.269,5.789.164.132.349.239.625.426.049-.306.091-.483.1-.663.365-4.892.755-9.783,1.077-14.678.158-2.392.355-1.725-1.5-3.011a1.841,1.841,0,0,0-.293-.182c-1.057-.47-1.76-1.623-3.077-1.6-.047,0-.128-.095-.139-.155-.14-.767-.857-.93-1.369-1.289a6.049,6.049,0,0,0-1.958-1.162c-.815-.174-1.1-.9-1.772-1.2a13.465,13.465,0,0,1-2.167-1.294c-2.8-1.945-5.691-3.756-8.567-5.588C112.852,324.515,111.644,323.852,110.431,323.138Zm-13.4-19.558a2,2,0,0,0-.435-.144c-3.909-.1-7.818-.206-11.728-.283a1.275,1.275,0,0,0-.816.291,46.2,46.2,0,0,1-4.86,3.661,25.525,25.525,0,0,0-4.575,3.6,10.454,10.454,0,0,1-2.49,1.556c-1.28.771-2.557,1.549-3.845,2.306a1.129,1.129,0,0,0-.642,1.1c.022,1.644.76,2.4,2.4,2.354.919-.028,1.837-.12,2.756-.126,3.3-.021,6.6,0,9.893-.04a2.832,2.832,0,0,0,1.4-.353q4.991-3.079,9.932-6.239a24.549,24.549,0,0,0,2.216-1.64,1.417,1.417,0,0,0,.567-.809C96.92,307.062,96.962,305.309,97.027,303.58Zm13.229-.2c0,.962-.031,1.688,0,2.411.2,4.067-.541,3.09,3.119,5.572,3.046,2.065,6.229,3.929,9.332,5.913a3.629,3.629,0,0,0,2.035.613c4.182.022,8.363.088,12.545.139a4,4,0,0,0,.46-.007,2.017,2.017,0,0,0,1.754-1.433c.265-1.166.09-1.615-.864-2.2-.261-.161-.528-.313-.792-.47-.758-.45-1.528-.884-2.272-1.356a20.675,20.675,0,0,0-2.108-1.394,14.476,14.476,0,0,1-2.011-1.586c-1.416-.988-2.81-2.006-4.2-3.028-1.265-.93-2.56-1.828-3.752-2.846a2.19,2.19,0,0,0-1.65-.555c-3.068.1-6.137.161-9.206.229C111.887,303.392,111.125,303.378,110.256,303.378Zm-12.13,14.054c.34.022.529.048.717.044,2.784-.054,5.569.4,8.355-.023a8.368,8.368,0,0,1,1.263.024,5.473,5.473,0,0,0,.6-.065,4.231,4.231,0,0,0,.1-.59c.026-1.762.078-3.525.049-5.286-.015-.91-.26-1.817-.257-2.725,0-1.449.132-2.9.2-4.348.015-.329,0-.66,0-.966-2.706-.591-9.1-.561-11.077.038a4.834,4.834,0,0,0-.03.549,51.366,51.366,0,0,1,.02,6.508c-.136,1.868-.037,3.753-.029,5.631C98.033,316.6,98.088,316.97,98.126,317.432ZM111.8,368.265c2.129.528,14.835.184,16.261-.375-5.08-4.244-11.011-7.242-16.462-11.312C111.668,360.608,111.734,364.425,111.8,368.265ZM95.432,356.721c-5.32,3.962-11.249,6.961-16.545,11.4,1.578.081,2.91.167,4.245.213,1.227.041,2.455.039,3.682.057,2.492.037,4.983.081,7.476.106a5.964,5.964,0,0,0,.943-.134A93.391,93.391,0,0,0,95.432,356.721Zm2.129-60.089c.113-.641.161-1.091-.371-1.521a20.332,20.332,0,0,1-2.242-2.129,21.285,21.285,0,0,0-5.854-4.392,2.284,2.284,0,0,0-1.773-.374c.079.678.1,1.359.247,2.014a7.625,7.625,0,0,0,1.777,3.305c.686.8.685,1.267.012,2.009a4.345,4.345,0,0,0-.959,3.547,2.741,2.741,0,0,0,2.481,2.3c1.835.119,3.671.231,5.508.323.68.034,1.364.006,2.179.006l-.537-2.242c-1.438.507-2.484,1.779-4.284,1.347.7-1.592,2.345-1.657,3.407-2.568-1.069-.789-2.552-.805-3.365-2.256A12.426,12.426,0,0,1,97.561,296.632Zm22.32-8.434a2.7,2.7,0,0,0-1.957.5,21.006,21.006,0,0,0-5.887,4.554,18.46,18.46,0,0,1-1.92,1.81c-.65.56-.674.561-.345,1.545A12.218,12.218,0,0,1,113.4,296c-.753,1.519-2.4,1.392-3.332,2.35.691.352,1.31.65,1.913.981.585.32,1.264.57,1.37,1.445-.207.08-.41.24-.538.194-1.209-.435-2.406-.906-3.679-1.394l-.453,2.08a3.832,3.832,0,0,0,.639.088c2.453-.119,4.906-.231,7.357-.382a2.733,2.733,0,0,0,2.1-2.04,4.367,4.367,0,0,0-.918-3.777,1.239,1.239,0,0,1-.056-1.928c.209-.275.452-.525.652-.8A7.346,7.346,0,0,0,119.881,288.2Zm-6.655,67.927a40.323,40.323,0,0,0,6.756,4.481l5-9.879-2.077-1.419c-.167.379-.3.643-.4.919-.4,1.077-.738,2.181-1.2,3.232-.582,1.333-1.223,2.643-1.911,3.924a2.5,2.5,0,0,1-1.605,1.448,2.9,2.9,0,0,1,.519-1.877c1.2-2.356,2.439-4.693,3.66-7.038.154-.3.287-.6.449-.945-.442-.34-.83-.646-1.227-.94-.381-.281-.773-.547-1.223-.864l-.41,1c-.937,2.267-1.859,4.54-2.818,6.8a2.845,2.845,0,0,1-1.326,1.69c-.035-.176-.106-.3-.07-.389,1.306-3.182,2.622-6.36,3.987-9.663l-1.629-1.211C116.258,349.059,115.274,352.743,113.226,356.125Zm-30.986-5.41,5.006,9.9a39.81,39.81,0,0,0,6.74-4.51c-2.054-3.366-3.014-7.1-4.493-10.736L87.8,346.7c.77,1.677,1.543,3.257,2.227,4.875a18.538,18.538,0,0,1,1.813,5.061,2.512,2.512,0,0,1-.883-.806,11.949,11.949,0,0,1-.826-1.641c-.867-2.089-1.709-4.188-2.568-6.281-.094-.229-.231-.439-.392-.739l-2.364,1.789c.13.3.208.51.312.709,1.123,2.138,2.26,4.269,3.371,6.413.334.645.622,1.317.892,1.993a3.44,3.44,0,0,1,.053.891,4.973,4.973,0,0,1-.882-.643c-2.114-2.621-2.953-5.851-4.213-9.018Zm17.636-49.132a17.619,17.619,0,0,0,7.385.022,36.258,36.258,0,0,0,.737-5.972,2.5,2.5,0,0,0-.467-1.481c-.983-1.246-2.5-1.536-3.922-1.963a.365.365,0,0,0-.224.028c-1.018.429-2.071.793-3.039,1.314a2.156,2.156,0,0,0-1.153,2.216C99.4,297.715,99.649,299.677,99.876,301.584Zm-20.4,51,5.208,9.756,2.185-1.437c-2.341-3.006-3.392-6.537-5.12-9.885Zm43.059,9.76,5.208-9.778-2.289-1.533c-1.714,3.364-2.8,6.876-5.092,9.861ZM76.946,354.5l5.273,9.7,1.533-1.2L78.9,352.992Zm46.517,8.525,1.547,1.169,5.252-9.669a6.8,6.8,0,0,0-1.986-1.429ZM79.233,320a69.181,69.181,0,0,0-8.289-.031c.15,1.715.287,3.3.436,5A41.91,41.91,0,0,0,79.233,320Zm56.611,4.974c.147-1.724.283-3.332.419-4.931a36.227,36.227,0,0,0-8.363.073A53.979,53.979,0,0,0,135.844,324.973Zm-13.664,4.313,1.347.87,5.028-8.415-1.866-1.2C124.825,323.3,123.7,326.31,122.18,329.285Zm-43.508-7.55,5.041,8.45,1.318-.941c-1.53-2.955-2.639-5.979-4.509-8.7Zm44.657-1.86-3.522,7.755,1.6,1.08c1.459-3.027,2.562-6.051,4.757-8.582A6.336,6.336,0,0,0,123.329,319.875Zm-35.913,7.75-3.536-7.773c-.878.1-1.822-.232-2.739.239.684,1.041,1.381,1.949,1.912,2.946.845,1.584,1.579,3.228,2.365,4.844.126.258.284.5.456.8Zm43.339-4.412-1.76-1.14-4.413,8.787,1.651,1C127.674,328.906,128.754,325.906,130.754,323.213Zm-48.112,7.649-4.418-8.79-1.741,1.167c2,2.663,3.055,5.723,4.546,8.639Zm29.888,24.669,4.639-10.546-1.284-.931-4.215,10.758Zm-16.982-.723-4.216-10.757-1.279.939L94.7,355.555Zm24.758-34.944-2.913,6.32,1.667.943c.981-2.52,2.27-4.758,3.313-7.263Zm-33.377.042h-2.1l3.4,7.215,1.586-.963Zm5.219,4.75-2.1-4.969-2.133.114,2.51,6Zm3.508,27.288a2.879,2.879,0,0,0,.1-2.341c-.808-1.987-1.568-3.994-2.348-5.992-.1-.268-.212-.534-.37-.93l-1.1.94Zm15.836.176,3.8-8.554-1.106-.809c-.963,2.427-1.862,4.7-2.77,6.973A3.223,3.223,0,0,0,111.493,352.12ZM130.812,303.3l-1.4,3.5,1.726,1.226,1.934-4.585Zm-56.642.193,1.919,4.544,1.724-1.247c-.327-.813-.619-1.518-.9-2.228-.507-1.3-.5-1.3-1.9-1.208C74.761,303.371,74.506,303.436,74.169,303.492Zm-.547,6.459c-.767-1.833-1.49-3.6-2.249-5.358-.513-1.187-.626-1.215-2.088-.852,1.118,2.266,2.727,4.265,3.422,6.85Zm60.923.66c.629-2.665,2.341-4.616,3.429-7h-1.712l-2.668,6.348Zm-64.015,1.5-3.8-8.106-.3.086a8.556,8.556,0,0,0,.257,1.61c.739,2.056,1.531,4.093,2.31,6.134.116.3.267.593.435.963Zm67.237.677a3.157,3.157,0,0,0,.252-.4c.874-2.285,1.751-4.568,2.609-6.86a2.161,2.161,0,0,0-.081-1.663l-3.852,8.247Zm-43,4.782c-.488-1.665-.925-3.153-1.408-4.8l-1.852,1.264,1.519,3.532ZM71.865,303.658l2.467,5.771,1.295-1.038c-.668-1.371-1.272-2.65-1.913-3.912C73.178,303.422,73.159,303.431,71.865,303.658Zm61.028,5.763,2.5-5.843h-1.418l-2.383,4.8ZM113.812,312.8c-.393,1.681-.978,3.142-1.305,4.771H114.2l1.518-3.589ZM92.575,324.409l1.735-.982-1.535-3.685h-1.79ZM67.5,303.657l3.634,8.083L72.17,311c-.689-1.216-1.359-2.326-1.956-3.473-.583-1.121-1.107-2.274-1.627-3.425C68.359,303.6,68.075,303.363,67.5,303.657Zm72.215-.015c-.506-.2-.811-.121-1.013.326a40.344,40.344,0,0,1-3.749,7.027l1.154.7Zm-29.275,13.787c.82.3,1.081.026,1.283-.558.5-1.439,1.066-2.854,1.643-4.377l-1.455-.894C111.6,313.7,110.587,315.432,110.444,317.428Zm-13.684,0c-.118-2.021-1.146-3.765-1.483-5.85l-1.414.94c.582,1.542,1.13,2.926,1.621,4.331C95.679,317.4,95.914,317.74,96.76,317.428Zm20.279.3,1.186-2.174-1.953-1.173-1.161,3.245Zm-26.095-3.363L89,315.543c.345.65.628,1.229.96,1.779a.784.784,0,0,0,.516.368,15.8,15.8,0,0,0,1.63-.092Zm19.98,33.022.339.117,2.321-5.288-1.334-1.04C112.072,343.461,111.037,345.321,110.924,347.389Zm-14.957.117.273-.092c-.007-2.093-1.094-3.955-1.3-6.224l-1.3,1.038Zm-1.025-24.5,1.437-.959-1.056-2.366H93.762Zm33.882-16.633,1.16-3h-1.852l-.738,2.042Zm-16.535,16.644,1.162-3.359H111.9l-1.054,2.415ZM77.2,303.358l1.232,3.014,1.4-.984-.772-2.03Zm57.905,27.66-2.578,5.032.967.609C133.807,334.589,135.355,333.1,135.107,331.018ZM74.758,335.95c-.261-.411-.518-.784-.743-1.175s-.431-.8-.634-1.213c-.22-.443-.411-.9-.645-1.335-.191-.355-.239-.823-.7-1.086-.064,1.085.8,3.5,1.882,5.378a2.617,2.617,0,0,0,.392-.187A5.71,5.71,0,0,0,74.758,335.95ZM68.71,313.2l-1.738-4.584-.237.069c.461,1.7.416,3.487.911,5.321Zm71.7-4.465-.2-.051-1.713,4.583,1.169.7Zm-22.535,8.9c2.094.347,2.28.294,2.675-.727l-1.93-1.116Zm-31.382-.612c.3.323.474.7.689.719a3.335,3.335,0,0,0,2.165-.217l-.788-1.733Zm9.746,26.284a6.291,6.291,0,0,0,.353-3.284L95.2,341.068Zm14.476-.011.252.059,1.043-2.346c-.559-.307-.853-.788-1.515-.834Zm-30.42-38.276a4.924,4.924,0,0,0,2.051-1.643H79.781Zm46.583.13.526-1.735a6.831,6.831,0,0,0-2.7-.023Zm6.908,31.738,1.18.854c.051-1.084.09-1.913.129-2.742l-.216-.037Zm-61.5-1.988v2.827l1.159-.837Zm38.333-24.274v2.144l.21.047.789-1.5Zm-13.977-.062-1.026.808.857,1.533.169-.065ZM110.4,321.3c-.032-.562.577-1.044.142-1.872A2.464,2.464,0,0,0,110.4,321.3Zm-13.676-1.671-.327.086.338,1.379C96.9,320.578,97.061,320.068,96.729,319.632ZM85.6,317.562l.067.287c.189-.084.379-.166.564-.258a.674.674,0,0,0-.074-.173C85.968,317.457,85.784,317.512,85.6,317.562Zm36.008.231.048-.167-.546-.225-.086.287Z" transform="translate(0 0)" fill="#3d708a"></path></g></g></svg> 