<svg xmlns="http://www.w3.org/2000/svg" xmlns:xlink="http://www.w3.org/1999/xlink" width="58" height="58.001" viewBox="0 0 58 58.001">
  <defs>
    <filter id="icon_phone" x="0" y="0" width="58" height="58.001" filterUnits="userSpaceOnUse">
      <feOffset dy="3" input="SourceAlpha"/>
      <feGaussianBlur stdDeviation="3" result="blur"/>
      <feFlood flood-opacity="0.302"/>
      <feComposite operator="in" in2="blur"/>
      <feComposite in="SourceGraphic"/>
    </filter>
  </defs>
  <g transform="matrix(1, 0, 0, 1, 0, 0)" filter="url(#icon_phone)">
    <path id="icon_phone-2" data-name="icon_phone" d="M20,40A20,20,0,0,1,5.859,5.857,20,20,0,0,1,34.144,34.142,19.868,19.868,0,0,1,20,40Zm-6-30.1a1.74,1.74,0,0,0-.992.328c-.031.021-3.055,2.22-3.015,3.447.11,3.508,3.53,7.643,6.38,10.494s6.982,6.269,10.509,6.385h.022c1.168,0,3.179-2.7,3.4-3.013a1.764,1.764,0,0,0,.332-1.136,1.207,1.207,0,0,0-.475-.887c-.323-.224-3.791-2.529-4.2-2.784a1.191,1.191,0,0,0-.633-.165,2.136,2.136,0,0,0-.986.272c-.3.158-1.168.65-1.685.945l-.176.1a24.788,24.788,0,0,1-3.1-2.722,25.032,25.032,0,0,1-2.721-3.1c.213-.371.856-1.5,1.047-1.861a1.659,1.659,0,0,0,.1-1.628c-.245-.387-2.533-3.856-2.784-4.2A1.242,1.242,0,0,0,14.005,9.9Z" transform="translate(9 6)" fill="#fff"/>
  </g>
</svg>
