<?xml version="1.0" encoding="UTF-8"?> <svg xmlns="http://www.w3.org/2000/svg" width="150" height="94" viewBox="0 0 150 94"><g id="icon_akcii" transform="translate(-1152 -2634)"><rect id="Rectangle_368" data-name="Rectangle 368" width="150" height="94" transform="translate(1152 2634)" fill="none"></rect><g id="Group_598" data-name="Group 598" transform="translate(996.66 2549.223)"><path id="Path_8986" data-name="Path 8986" d="M249.251,117.153a55.833,55.833,0,0,0-6.124-14.473c-1.824-2.851-4.755-5.2-8.236-3.966-.411-.144-.462-.017-1.121.295-2.069.978-4.181,3.31-5.983,4.754q-6.157,4.932-12.3,9.883c-6.671,5.383-13.431,10.681-20.064,16.119a.232.232,0,0,0-.045.037c-1.645,1.35-3.289,2.7-4.913,4.072a.485.485,0,0,0-.157.6c-2.951,3.916,1.3,13.774,6.592,11.961a.475.475,0,0,0,.218-.16c.578-.021,1.158-.058,1.738-.089.017.009.031.02.048.029a.425.425,0,0,0,.472-.055c.144-.008.289-.022.434-.03,3.879,6.437,3.082,13.142.487,19.974-.544,1.431-1.311,2.878.246,3.91,1.968,1.3,5.947,1.058,8.116.682a5.716,5.716,0,0,0,2.182-.841c4.11-.4,5.754-5.176,6.07-8.879.475-5.566.059-11.349-2.189-16.49,2.42-.347,4.835-.7,7.229-1.066,4.7-.709,9.414-1.5,14.088-2.473-.012.015-.022.031-.033.046-.1.122.07.3.175.175.085-.1.161-.2.243-.3,4.018-.846,8-1.824,11.919-3.02a.587.587,0,0,0,.429-.485C254.5,134.157,250.613,121.894,249.251,117.153Zm-52.443,28.331c-.013,0-.023-.006-.037,0-3.147.1-4.719-2.482-5.564-5.139a9.509,9.509,0,0,1,0-5.552.556.556,0,0,0,.115-.058c1.014-.784,2.016-1.585,3.022-2.379-1.318,4.51-.558,10.091,3.226,13C197.315,145.4,197.061,145.437,196.809,145.483Zm2.177-.375c-3.9-4.078-4.771-8.256-3.5-13.656.331-.263.66-.531.991-.8a13.019,13.019,0,0,0,3.575,14.286C199.694,145,199.339,145.05,198.986,145.109Zm13.693,15.81c-.368,3.629-.7,8.008-5.264,8.471a19.125,19.125,0,0,1-3.462.015c-1.995-.164-2.8-.579-2.553-2.342,1.016.021,2.032.032,3.048-.007a.142.142,0,0,0,0-.284c-1-.038-2-.027-3-.007.02-.1.04-.209.066-.322.17-.746.367-1.47.572-2.183,1.084.052,2.165.169,3.241.309.149.019.182-.231.036-.261a15.635,15.635,0,0,0-3.2-.305c.264-.909.538-1.8.793-2.7,1.136.064,2.29.042,3.417,0a.162.162,0,0,0,0-.324c-1.1-.036-2.22-.06-3.326,0a28.979,28.979,0,0,0,.682-2.972c1.7-.018,3.392.046,5.087.177.2.015.192-.285,0-.307a28.321,28.321,0,0,0-5.046-.105,16.655,16.655,0,0,0,.2-2.99c.918.041,1.839.05,2.755.026a.129.129,0,0,0,0-.257c-.917-.025-1.84-.016-2.759.025,0-.06,0-.117,0-.177a17.292,17.292,0,0,0-.388-2.864c1.225.067,2.448.131,3.675.158.193,0,.19-.287,0-.3-1.244-.07-2.488-.1-3.733-.133a14.263,14.263,0,0,0-1.11-3.065c1.323.025,2.648.052,3.97,0a.151.151,0,0,0,0-.3c-1.374-.059-2.75-.028-4.125,0a12.253,12.253,0,0,0-1.209-1.846c3.126-.223,6.256-.559,9.379-.961a.491.491,0,0,0,.113.328c1.766,2.091,2,6.092,2.207,8.623A37.416,37.416,0,0,1,212.678,160.919Zm3.115-3.514c-.047,3.6-.4,7.531-2.842,9.9,1-2.209,1.134-5.094,1.293-7.532a37.314,37.314,0,0,0-.558-9.339c-.378-2.006-.682-4.112-2.219-5.488.69-.092,1.376-.194,2.064-.29A29.418,29.418,0,0,1,215.793,157.4Zm21.849-18.279a10.616,10.616,0,0,0,.862-1.863c.079-.23-.275-.319-.36-.1a16.462,16.462,0,0,1-.96,2.066q-2.914.64-5.842,1.216a34.873,34.873,0,0,0,3.126-6.331c.055-.149-.2-.257-.26-.109a64.074,64.074,0,0,1-3.319,6.531q-2.275.442-4.563.843a14.922,14.922,0,0,0,1.317-3.077c.055-.187-.23-.263-.291-.08a21.178,21.178,0,0,1-1.4,3.22c-1.25.215-2.5.433-3.757.626-.228.036-.456.065-.683.1.608-1.206,1.187-2.429,1.738-3.661.084-.189-.189-.357-.284-.165-.632,1.277-1.241,2.569-1.809,3.877q-2.14.313-4.289.582c1.086-2.164,2.136-4.38,3.059-6.616.082-.2-.252-.339-.348-.147-1.112,2.213-2.119,4.515-3.062,6.807-.818.1-1.634.207-2.453.3a.483.483,0,0,0-.511-.172,18.909,18.909,0,0,0,1.341-3.275c.058-.186-.229-.263-.29-.08a31.373,31.373,0,0,1-1.518,3.643q-2.218.259-4.435.525a2.82,2.82,0,0,0,.25-.443c.488-1.025.957-2.059,1.42-3.1.066-.149-.151-.281-.223-.13-.293.614-.588,1.227-.874,1.844-.078.168-.831,1.966-1.02,1.8a.113.113,0,0,0-.187.1c-.856.1-1.712.207-2.567.317a13.37,13.37,0,0,0,1.412-2.909c.069-.189-.228-.266-.3-.083-.409,1.041-.928,2.02-1.4,3.028-1.056.137-2.111.279-3.163.432.722-1.267,1.412-2.554,2.084-3.848.094-.181-.176-.342-.276-.161-.744,1.339-1.474,2.69-2.162,4.059-.121.018-.242.033-.363.051a16.811,16.811,0,0,1-1.661-1.844.08.08,0,0,0,.046-.039c.785-1.722,1.475-3.491,2.2-5.239.09-.218-.269-.318-.356-.1-.68,1.729-1.4,3.45-2.019,5.2a13.771,13.771,0,0,1-1.807-3.2c0-.011.016-.013.019-.026a17.854,17.854,0,0,1,1.339-3.586c.1-.2-.194-.376-.3-.176a12.591,12.591,0,0,0-1.235,3.326,13.2,13.2,0,0,1-.677-3.008.1.1,0,0,0,.04-.044,34.892,34.892,0,0,1,2.109-4.677.14.14,0,0,0-.242-.141,22.75,22.75,0,0,0-1.95,4.423,17.121,17.121,0,0,1,.578-5.683c5.38-4.313,10.695-8.715,16.052-13.049q5.394-4.365,10.782-8.739l5.378-4.381c.92-.75,1.853-1.63,2.818-2.458-2.162,4.991-.748,15.768-.209,18.353,1.193,5.724,4.423,16.2,11.073,18.152Q240.453,138.506,237.643,139.125Zm7.386-2.529c-6.486-.515-9.757-10.508-11.12-15.695a39.693,39.693,0,0,1-1.308-10.137c0-3.687-.134-8.776,3.225-10.918,6.611-1,10.288,11.947,11.712,16.6C248.979,121.149,254.025,137.31,245.029,136.6Z" transform="translate(0 -0.966)" fill="#3d708a"></path><path id="Path_8987" data-name="Path 8987" d="M257.546,133.184q-3.644,3.774-6.507.869a13.34,13.34,0,0,1-3.314-4.29,29.793,29.793,0,0,1-2.4-7.115c-.964-4.153-4.616-18.421,1.313-20.392a.162.162,0,0,0-.042-.316c-4.292-.429-3.772,6.272-3.728,8.944a53.7,53.7,0,0,0,2.653,15.676c1.17,3.564,3.077,7.522,6.631,9.27,2.477,1.217,5.839.678,5.891-2.577C258.051,132.973,257.589,132.894,257.546,133.184Z" transform="translate(-9.23 -1.578)" fill="#3d708a"></path><path id="Path_8988" data-name="Path 8988" d="M246.856,118.508c-.3-.094-.511.376-.218.517a6.143,6.143,0,0,1,3.248,7.792c-.244.727.867,1.007,1.134.313A6.47,6.47,0,0,0,246.856,118.508Z" transform="translate(-9.863 -4.438)" fill="#3d708a"></path><path id="Path_8989" data-name="Path 8989" d="M274.577,111.489A63.147,63.147,0,0,0,264.531,116a.223.223,0,0,0,.171.405,63.236,63.236,0,0,0,10.349-3.792A.618.618,0,0,0,274.577,111.489Z" transform="translate(-12.956 -3.224)" fill="#3d708a"></path><path id="Path_8990" data-name="Path 8990" d="M275.6,96.741c-5.076,2.984-9.881,6.556-14.781,9.823a.361.361,0,0,0,.364.623,81.881,81.881,0,0,0,15.359-9.226C277.235,97.4,276.34,96.3,275.6,96.741Z" transform="translate(-12.304 -0.667)" fill="#3d708a"></path><path id="Path_8991" data-name="Path 8991" d="M262.771,92.816a11.091,11.091,0,0,0-3.052,2.624,27.4,27.4,0,0,0-2.882,3.158c-.218.292.2.683.493.493a26.792,26.792,0,0,0,3.176-2.553c.952-.853,2.325-1.746,2.893-2.906C263.583,93.253,263.262,92.611,262.771,92.816Z" transform="translate(-11.636)" fill="#3d708a"></path><path id="Path_8992" data-name="Path 8992" d="M275.306,120.276a12.853,12.853,0,0,0-3.869,1.357c-1.273.518-2.547,1.017-3.775,1.635-.466.234-.126.894.338.8a30.171,30.171,0,0,0,4.335-1.3,9.707,9.707,0,0,0,3.352-1.57A.543.543,0,0,0,275.306,120.276Z" transform="translate(-13.476 -4.745)" fill="#3d708a"></path><path id="Path_8993" data-name="Path 8993" d="M283.466,133.979a45.579,45.579,0,0,0-15.98-2.717.368.368,0,0,0-.1.719,62.69,62.69,0,0,0,8.431,1.853,58.134,58.134,0,0,0,7.5,1.245C283.988,135.121,284.022,134.186,283.466,133.979Z" transform="translate(-13.423 -6.639)" fill="#3d708a"></path><path id="Path_8994" data-name="Path 8994" d="M277.61,142.942a14.9,14.9,0,0,0-4.5-1.646,9.3,9.3,0,0,0-4.115-.633.285.285,0,0,0-.125.473,11.346,11.346,0,0,0,3.555,1.491,26.2,26.2,0,0,0,4.634,1.623A.719.719,0,0,0,277.61,142.942Z" transform="translate(-13.709 -8.251)" fill="#3d708a"></path></g></g></svg> 