<?xml version="1.0" encoding="UTF-8"?> <svg xmlns="http://www.w3.org/2000/svg" width="150" height="94" viewBox="0 0 150 94"><g id="icon_detyam" transform="translate(-1343 -2634)"><rect id="Rectangle_367" data-name="Rectangle 367" width="150" height="94" transform="translate(1343 2634)" fill="none"></rect><g id="Group_599" data-name="Group 599" transform="translate(1336.623 2056.01)"><path id="Path_8995" data-name="Path 8995" d="M92.912,586.61c-.4.057-.786.132-1.176.216s-.759.194-1.136.313a12.939,12.939,0,0,0-2.039.869c-.664.346-1.322.7-1.952,1.1l-.545.351a9.353,9.353,0,0,0-1.227.982c-.274.253-.538.522-.8.786-.549.556-1.1,1.114-1.6,1.72-.274.331-.551.659-.8,1.008-.1.137-.209.27-.3.415-.128.212-.258.425-.386.637-.381.627-.723,1.276-1.052,1.933a25.792,25.792,0,0,0-1.59,4.415,15.737,15.737,0,0,0-.433,2.369c-.1.759-.187,1.522-.238,2.285a8.387,8.387,0,0,0-.02,1.132c.029.392.07.777.119,1.167.1.842.241,1.676.423,2.5.08.359.194.717.3,1.067a10.585,10.585,0,0,0,.518,1.31c.149.315.326.62.5.924.2.349.391.7.611,1.03A10.024,10.024,0,0,0,80.9,616.2c.249.289.5.578.754.86a15.4,15.4,0,0,0,1.613,1.551c.357.293.717.581,1.087.858.316.236.642.455.973.669.3.2.624.364.938.538a12.045,12.045,0,0,0,1.169.554,17.269,17.269,0,0,0,4.663,1.138c.757.086,1.514.17,2.274.232s1.512.108,2.269.148a12.873,12.873,0,0,0,1.915-.016,14.169,14.169,0,0,0,1.611-.271c.262-.055.522-.133.781-.2.338-.089.676-.182,1.013-.276a.94.94,0,0,0,.65-1.145.929.929,0,0,0-.428-.554.973.973,0,0,0-.715-.1c-.411.082-.821.174-1.233.251-.323.061-.644.115-.968.162a11.387,11.387,0,0,1-1.991.085c-.293-.016-.585-.044-.876-.069-.5-.044-.99-.086-1.486-.132-.961-.09-1.922-.209-2.882-.322-.314-.047-.627-.1-.941-.151-.351-.06-.7-.15-1.046-.236a15.77,15.77,0,0,1-1.915-.606c-.465-.214-.924-.44-1.368-.7a15.859,15.859,0,0,1-1.364-.9c-.261-.2-.521-.412-.771-.63-.315-.272-.611-.56-.905-.852-.273-.271-.523-.567-.772-.86q-.348-.4-.681-.819c-.151-.209-.3-.419-.437-.636-.163-.253-.305-.52-.455-.779s-.309-.536-.462-.807c-.107-.19-.2-.388-.287-.588-.137-.37-.269-.743-.392-1.119-.133-.406-.24-.818-.342-1.233-.181-.724-.322-1.459-.437-2.2-.013-.166-.026-.333-.041-.5s-.008-.357-.008-.534c0-.323.008-.649.028-.973.042-.688.1-1.373.167-2.058.026-.171.051-.342.076-.514.035-.23.1-.463.147-.691.053-.25.131-.5.2-.746.053-.2.115-.4.174-.6.119-.408.24-.818.373-1.222.075-.223.14-.45.223-.67s.169-.435.252-.654c.316-.7.63-1.405,1-2.077.2-.367.4-.733.629-1.084.1-.147.187-.3.291-.436.128-.167.255-.335.382-.5.39-.471.777-.939,1.191-1.389a17.618,17.618,0,0,1,2.01-1.974,21.182,21.182,0,0,1,2.006-1.32c.362-.212.726-.419,1.094-.624a12.6,12.6,0,0,1,1.149-.532l-.1.044c.409-.154.817-.3,1.238-.424s.861-.224,1.3-.313l.474-.064c.185-.024.379-.022.565-.033.377-.022.758-.009,1.132,0a.317.317,0,1,0,0-.635c-.276-.009-.553-.015-.829-.015a11.711,11.711,0,0,0-1.667.1Zm.318.642c-.025,0-.052.008-.079.011l.079-.011ZM83.418,593.7l-.039.051.039-.051Z" transform="translate(-15.446 -0.255)" fill="#3d708a"></path><path id="Path_8996" data-name="Path 8996" d="M97.784,586.008c-.356.035-.713.077-1.07.119-.312.035-.627.05-.938.088a9.792,9.792,0,0,0-1.2.226,18.539,18.539,0,0,0-1.928.543,16.261,16.261,0,0,0-2.027.957,12.4,12.4,0,0,0-1.78,1.216,20.2,20.2,0,0,0-1.573,1.41c-.468.45-.937.9-1.383,1.372a12.769,12.769,0,0,0-1.156,1.493c-.362.518-.724,1.036-1.072,1.564-.452.684-.889,1.379-1.321,2.076-.135.218.207.415.34.2.381-.611.759-1.222,1.164-1.816.327-.479.676-.944,1.024-1.409-.011.017-.024.033-.035.047.242-.311.485-.62.735-.926a9.138,9.138,0,0,1,.8-.836c.575-.539,1.18-1.045,1.792-1.541.455-.351.918-.686,1.4-1a11.1,11.1,0,0,1,1.546-.833,12.852,12.852,0,0,1,2.065-.74c.4-.094.812-.165,1.22-.242.359-.069.718-.141,1.078-.2.283-.029.567-.041.852-.058.349-.018.7-.044,1.048-.062a7.168,7.168,0,0,1,1.015.018c.279.025.557.061.836.1.514.077,1.021.167,1.524.294.485.121.973.234,1.45.381.534.163,1.059.349,1.586.538.412.146.821.3,1.228.457.52.248,1.021.526,1.527.8.236.13.474.258.7.4.266.161.521.329.776.5.614.492,1.2,1.011,1.792,1.529.338.3.669.6.988.92a10.363,10.363,0,0,1,.763.894q.378.5.752,1c.126.17.251.342.366.52.068.108.137.216.207.324a5.068,5.068,0,0,1,.357.685c.168.426.326.857.5,1.282.192.478.4.949.576,1.434a14.936,14.936,0,0,1,.684,2.833c.052.414.1.828.119,1.246a15.024,15.024,0,0,1,0,1.516q-.077,1.443-.238,2.878c-.128.884-.289,1.758-.483,2.629-.106.476-.223.947-.346,1.419a10.024,10.024,0,0,1-.382,1.136c-.122.267-.249.531-.39.788a6.372,6.372,0,0,1-.478.723c-.386.474-.793.924-1.223,1.36a18.405,18.405,0,0,1-1.4,1.312,17.145,17.145,0,0,1-1.6,1.079c-.314.187-.631.368-.949.547-.275.158-.558.294-.847.425-.2.082-.406.16-.613.234a6.725,6.725,0,0,1-.779.2c-.53.117-1.063.2-1.6.283-1.313.172-2.629.306-3.94.486a.607.607,0,0,0-.276.161.626.626,0,0,0,.443,1.07c1.456-.011,2.915-.1,4.366-.226a21.08,21.08,0,0,0,2.244-.309,7.943,7.943,0,0,0,1-.291,9.553,9.553,0,0,0,1.116-.459,13.459,13.459,0,0,0,3.424-2.336c.5-.468.958-.982,1.418-1.491.223-.249.426-.518.631-.781a8.013,8.013,0,0,0,.684-.988,13.084,13.084,0,0,0,.929-2.065c.115-.326.2-.662.294-.995s.172-.647.245-.975c.158-.7.286-1.4.4-2.1.113-.726.172-1.458.219-2.19s.086-1.458.1-2.187a13.421,13.421,0,0,0-.135-1.994c-.055-.439-.119-.876-.2-1.312-.057-.32-.132-.636-.207-.953a13.6,13.6,0,0,0-.631-1.911c-.265-.666-.494-1.344-.745-2.016a8.07,8.07,0,0,0-.767-1.586c-.188-.293-.377-.583-.574-.87s-.384-.569-.589-.843c-.147-.2-.289-.4-.444-.589-.121-.15-.236-.311-.368-.45s-.252-.267-.379-.4-.3-.284-.45-.425c-.24-.226-.492-.444-.741-.664s-.512-.454-.775-.673a12.252,12.252,0,0,0-1-.768,10.3,10.3,0,0,0-.911-.556c-.309-.168-.62-.331-.933-.492s-.631-.331-.96-.47c-.227-.1-.453-.2-.688-.282-.173-.062-.349-.12-.525-.177-.333-.106-.671-.2-1.008-.3-.315-.091-.631-.184-.949-.263a23.319,23.319,0,0,0-4.322-.66c-.2-.01-.392-.02-.588-.02a4,4,0,0,0-.4.018Zm15.491,11.1.029.066-.029-.066Zm-2.936,20.338-.1.08.1-.08Z" transform="translate(-17.77)" fill="#3d708a"></path><path id="Path_8997" data-name="Path 8997" d="M105.353,613.963c-.383.031-.765.057-1.147.095a8.2,8.2,0,0,0-1.271.234,8.107,8.107,0,0,0-1.134.4,6.784,6.784,0,0,0-1.048.6c-.359.24-.71.494-1.046.763a7.218,7.218,0,0,0-.827.794,6.648,6.648,0,0,0-.671.878c-.163.26-.326.519-.479.784s-.289.532-.428.8c-.075.147-.13.309-.194.461-.052.124-.108.247-.152.373-.1.3-.2.593-.293.895-.159.558-.3,1.123-.409,1.692A13.223,13.223,0,0,0,96,624.6a14.477,14.477,0,0,0,.024,1.8,8.121,8.121,0,0,0,.329,1.858c.205.62.437,1.229.7,1.825a11.07,11.07,0,0,0,.849,1.506,8.128,8.128,0,0,0,1.2,1.382,8.23,8.23,0,0,0,2.2,1.6,7.744,7.744,0,0,0,2.412.649c.386.042.774.082,1.16.115a.606.606,0,0,0,.523-.911.578.578,0,0,0-.362-.278c-.34-.051-.682-.106-1.023-.161a9.184,9.184,0,0,1-1.93-.543,6.414,6.414,0,0,1-1.164-.69c-.112-.087-.223-.174-.329-.268-.175-.159-.347-.318-.516-.485-.283-.277-.549-.566-.8-.869a12.869,12.869,0,0,1-1.142-2c-.162-.394-.318-.791-.465-1.19a7.755,7.755,0,0,1-.33-1.321c-.028-.24-.055-.48-.076-.72s-.042-.514-.04-.768c0-.3,0-.6.02-.9.016-.264.04-.525.066-.786a17.311,17.311,0,0,1,.327-1.778l.154-.6c.038-.149.091-.293.137-.437.091-.287.2-.564.312-.843a12.629,12.629,0,0,1,1.223-2.116,7.566,7.566,0,0,1,1.147-1.153,9.337,9.337,0,0,1,1.82-1.18,7.51,7.51,0,0,1,1.709-.47c.4-.047.808-.074,1.213-.106a.4.4,0,0,0,.024-.8Zm-1.136.9-.029,0,.029,0Z" transform="translate(-24.534 -13.834)" fill="#3d708a"></path><path id="Path_8998" data-name="Path 8998" d="M107.02,613.446a6.155,6.155,0,0,0-.759.033c-.261.035-.525.068-.79.091-.123.011-.245.025-.368.038a2.286,2.286,0,0,0-.485.11c-.247.077-.492.168-.737.251-.115.038-.23.073-.347.11a5.371,5.371,0,0,0-.714.28c-.5.244-.988.531-1.465.821a4.71,4.71,0,0,0-.633.478c-.218.188-.428.379-.638.574a9.131,9.131,0,0,0-1.055,1.218,12.416,12.416,0,0,0-.882,1.383c-.132.232-.256.47-.377.708a5.606,5.606,0,0,0-.467,1.193c-.1.411-.2.823-.282,1.236a.275.275,0,0,0,.189.335.271.271,0,0,0,.335-.19,10.562,10.562,0,0,1,.438-1.657,11.76,11.76,0,0,1,.778-1.414c.259-.429.543-.836.841-1.238a7.9,7.9,0,0,1,.714-.809c.288-.272.583-.53.89-.78.152-.11.3-.214.458-.316.141-.091.293-.168.441-.247.361-.192.722-.386,1.1-.55a6.065,6.065,0,0,1,.854-.237c.193-.045.385-.082.579-.117.1-.011.2-.02.293-.026a3.94,3.94,0,0,1,.415.009c.265.011.533.02.8.033.553.027,1.11.067,1.663.125a2.652,2.652,0,0,1,.314.062c.166.048.333.1.5.144.351.1.7.207,1.048.329a10.937,10.937,0,0,1,1.924,1.135c.215.169.425.342.631.523a4.882,4.882,0,0,1,.582.638c.257.352.522.7.748,1.076.13.214.251.428.369.646s.2.428.3.644l-.055-.131a10.793,10.793,0,0,1,.4,1.06q.173.563.307,1.136c.087.377.145.764.212,1.147.056.314.11.629.156.945.018.242.028.48.032.723a5.506,5.506,0,0,1-.058.706,10.616,10.616,0,0,1-.224,1.116c-.108.411-.223.818-.346,1.224s-.278.8-.432,1.194-.315.795-.475,1.19c-.043.1-.086.2-.132.306a5.381,5.381,0,0,1-.576.97A8.156,8.156,0,0,1,111.7,633a12.559,12.559,0,0,1-2.275,1.217c-.409.185-.819.375-1.229.565a.6.6,0,0,0-.276.68.607.607,0,0,0,.741.423c.576-.191,1.143-.406,1.71-.62a9.2,9.2,0,0,0,1.917-.931,7.367,7.367,0,0,0,1.739-1.7,6.206,6.206,0,0,0,.56-.879,6.768,6.768,0,0,0,.33-.788c.089-.24.175-.479.26-.719.185-.522.38-1.039.539-1.568s.293-1.075.413-1.62a13.093,13.093,0,0,0,.245-1.708,6.35,6.35,0,0,0-.1-1.642c-.091-.514-.189-1.03-.291-1.542-.093-.459-.207-.909-.344-1.357a14.673,14.673,0,0,0-.53-1.421,8,8,0,0,0-.611-1.2c-.284-.437-.573-.87-.891-1.282l.089.115c-.049-.064-.1-.126-.147-.19a5.371,5.371,0,0,0-.57-.63c-.208-.2-.424-.382-.645-.567-.419-.351-.863-.678-1.308-1a6.088,6.088,0,0,0-1.525-.786,5.61,5.61,0,0,0-1.661-.409c-.155-.007-.31-.009-.466-.009q-.179,0-.359,0Zm2.493,1.915.082.036-.082-.036Zm-9.915,2.45-.038.049.038-.049Zm15.643,6.457c.006.038.011.076.016.114-.006-.038-.011-.076-.016-.114Zm-1.686-7.427.059.076c-.029-.038-.058-.077-.089-.115l.03.039Z" transform="translate(-25.043 -13.577)" fill="#3d708a"></path><path id="Path_8999" data-name="Path 8999" d="M111.938,619.187a2.92,2.92,0,0,0-.391.113,3.523,3.523,0,0,0-1.456.906,2.693,2.693,0,0,0-.644,1.434,2.351,2.351,0,0,0,0,.831,2.622,2.622,0,0,0,.328.832,3.471,3.471,0,0,0,2.868,1.581,2.613,2.613,0,0,0,.8-.132,3.62,3.62,0,0,0,.723-.328,5.032,5.032,0,0,0,1.328-1.119,2.893,2.893,0,0,0,.249-.307,1.393,1.393,0,0,0,.165-.353,1.13,1.13,0,0,0,.029-.389,1.484,1.484,0,0,0-.075-.368,3.846,3.846,0,0,0-.355-.74,5.657,5.657,0,0,0-.5-.758,3.807,3.807,0,0,0-1.189-1,2.1,2.1,0,0,0-.761-.247,1.712,1.712,0,0,0-.454.01c-.082-.012-.166-.019-.252-.024h-.038a2.052,2.052,0,0,0-.379.06Zm.952,2.293h0Z" transform="translate(-31.173 -16.388)" fill="#3d708a"></path><path id="Path_9000" data-name="Path 9000" d="M114.8,636.921a2.076,2.076,0,0,0-.218.287c-.042.079-.073.163-.112.243a4.5,4.5,0,0,1-.307.6c-.089.092-.181.18-.278.263-.023.015-.046.029-.07.042a3.868,3.868,0,0,1-.452.116c-.17.021-.341.044-.511.068l.3-.042a6.408,6.408,0,0,1-1.367.038,2.781,2.781,0,0,1-.311-.083c-.063-.032-.124-.066-.184-.1-.063-.061-.123-.124-.18-.19s-.094-.138-.138-.207a1.01,1.01,0,0,0-1.745,1.019,3.908,3.908,0,0,0,1.577,1.516,3.6,3.6,0,0,0,.977.3,5.511,5.511,0,0,0,.645.068,3.842,3.842,0,0,0,.677-.059,3.614,3.614,0,0,0,2.182-1.114,4.276,4.276,0,0,0,.419-.56,3.653,3.653,0,0,0,.331-.768,2.946,2.946,0,0,0,.115-.4,1.528,1.528,0,0,0,0-.675.8.8,0,0,0-.565-.565.814.814,0,0,0-.216-.028.743.743,0,0,0-.572.237Z" transform="translate(-31.012 -25.071)" fill="#3d708a"></path><path id="Path_9001" data-name="Path 9001" d="M96,607.987a1.429,1.429,0,0,0-.715.441,2.917,2.917,0,0,0-.507.74,2.225,2.225,0,0,0-.172.465,1.744,1.744,0,0,0-.241,1.055,1.974,1.974,0,0,0,.841,1.335,3.783,3.783,0,0,0,.666.417l.035.016a1.946,1.946,0,0,0,.426.152,1.561,1.561,0,0,0,.513.029,2.074,2.074,0,0,0,.958-.353,2.21,2.21,0,0,0,.613-.615c.018-.038.036-.079.055-.117a1.723,1.723,0,0,0,.124-.333,1.991,1.991,0,0,0,.06-.5,1.12,1.12,0,0,0,0-.117,1.883,1.883,0,0,0,.094-.851,1.988,1.988,0,0,0-.948-1.286,3.928,3.928,0,0,0-.781-.381,2.074,2.074,0,0,0-.411-.121,1.292,1.292,0,0,0-.234-.021,2.174,2.174,0,0,0-.376.039Zm.408,2.346.018.042-.019-.042Zm.04,0h0l.027.034-.029-.035Zm-.072,0,0,.032c0-.011,0-.021,0-.032Zm.168.009.119.016a.718.718,0,0,1-.119-.016Z" transform="translate(-23.728 -10.859)" fill="#3d708a"></path><path id="Path_9002" data-name="Path 9002" d="M128.461,608.189a2.206,2.206,0,0,0-.588.508,1.582,1.582,0,0,0-.148.171l-.112.086a1.449,1.449,0,0,0-.474.981,2.256,2.256,0,0,0,.746,1.732,1.73,1.73,0,0,0,1.021.442,2.2,2.2,0,0,0,.847-.022,1.219,1.219,0,0,0,.464-.21,2.367,2.367,0,0,0,1.129-1.259,1.871,1.871,0,0,0-.278-1.877,2.753,2.753,0,0,0-.75-.589,3.12,3.12,0,0,0-.483-.207,1.733,1.733,0,0,0-.43-.055l-.056,0a1.93,1.93,0,0,0-.89.3Z" transform="translate(-39.939 -10.83)" fill="#3d708a"></path><path id="Path_9003" data-name="Path 9003" d="M84.006,622.319c-.441.724-.891,1.447-1.3,2.191a.237.237,0,0,0,.408.24c.432-.731.884-1.451,1.326-2.175a.254.254,0,0,0-.091-.347.241.241,0,0,0-.125-.034.258.258,0,0,0-.22.126Z" transform="translate(-17.953 -17.904)" fill="#3d708a"></path><path id="Path_9004" data-name="Path 9004" d="M84.635,625.876c-.251.468-.5.936-.73,1.416a.35.35,0,0,0-.033.25.326.326,0,0,0,.6.079c.258-.465.508-.931.759-1.4a.35.35,0,0,0-.122-.47.341.341,0,0,0-.173-.046.331.331,0,0,0-.3.17Z" transform="translate(-18.538 -19.642)" fill="#3d708a"></path><path id="Path_9005" data-name="Path 9005" d="M86.161,627.837a.48.48,0,0,0-.2.26c-.073.185-.145.368-.216.554-.046.122-.1.243-.14.367-.1.293-.19.585-.265.886a.393.393,0,0,0,.269.475.386.386,0,0,0,.3-.04.422.422,0,0,0,.177-.23c.241-.593.474-1.189.711-1.782a.421.421,0,0,0-.044-.335.437.437,0,0,0-.258-.2.411.411,0,0,0-.114-.016.442.442,0,0,0-.221.059Z" transform="translate(-19.264 -20.666)" fill="#3d708a"></path><path id="Path_9006" data-name="Path 9006" d="M87.515,631.8c-.1.323-.2.647-.282.979a.413.413,0,0,0,.8.219c.094-.328.2-.651.3-.975a.419.419,0,0,0-.4-.532.433.433,0,0,0-.407.309Z" transform="translate(-20.2 -22.503)" fill="#3d708a"></path><path id="Path_9007" data-name="Path 9007" d="M76.96,588.22a4.543,4.543,0,0,0-1.375.647c-.218.145-.434.287-.642.445s-.395.307-.589.466a3.037,3.037,0,0,0-.543.6,4.731,4.731,0,0,0-.523.873,6.425,6.425,0,0,0-.486,2.476c0,.256-.006.512,0,.768a4.085,4.085,0,0,0,.608,1.974,8.637,8.637,0,0,0,.986,1.3,3.9,3.9,0,0,0,.469.421c.217.174.435.357.668.513a5.4,5.4,0,0,0,.556.351,1.178,1.178,0,0,0,.879.115,1.143,1.143,0,0,0,.8-1.4,1.13,1.13,0,0,0-.8-.8,4.17,4.17,0,0,1-.662-.165,4.674,4.674,0,0,1-.478-.282,7.433,7.433,0,0,1-.979-1.011,4.181,4.181,0,0,1-.326-.533,3.9,3.9,0,0,1-.18-.689,8.573,8.573,0,0,1-.037-1.7,4.9,4.9,0,0,1,.254-.956,2.882,2.882,0,0,1,.961-1.2,7.677,7.677,0,0,1,1.347-.81,3.278,3.278,0,0,1,.539-.146c.235-.024.471-.032.707-.034a6.7,6.7,0,0,1,.833.073,6.122,6.122,0,0,1,1.256.35,6.512,6.512,0,0,1,1.152.646,5.243,5.243,0,0,1,.713.7c.1.131.194.265.291.4a.784.784,0,0,0,.441.338.736.736,0,0,0,.832-1.083,7.816,7.816,0,0,0-1.1-1.308,5.6,5.6,0,0,0-1.639-1,7.117,7.117,0,0,0-.836-.291,6.1,6.1,0,0,0-.981-.167,6.871,6.871,0,0,0-.749-.042,5.875,5.875,0,0,0-1.371.157Zm2.07,1.309.05.006-.05-.006Z" transform="translate(-13.066 -1.025)" fill="#3d708a"></path><path id="Path_9008" data-name="Path 9008" d="M139.5,587.52a2.341,2.341,0,0,0-.545.159,5.112,5.112,0,0,0-.591.276,5.913,5.913,0,0,0-1.02.757,6.218,6.218,0,0,0-.854.964c-.236.318-.428.675-.633,1.011a.849.849,0,1,0,1.465.856c.211-.344.412-.7.647-1.024a5.908,5.908,0,0,1,.789-.78,4.658,4.658,0,0,1,.766-.465,3.375,3.375,0,0,1,.576-.16c.259-.029.515-.046.777-.051a6.336,6.336,0,0,1,.777.044,6.42,6.42,0,0,1,1.127.346,4.451,4.451,0,0,1,.713.39,4.611,4.611,0,0,1,.535.575,3.749,3.749,0,0,1,.307.515,3.152,3.152,0,0,1,.148.522,3.547,3.547,0,0,1,.009.6,5.353,5.353,0,0,1-.3.987c-.061.133-.122.264-.19.394a4.14,4.14,0,0,1-.339.512,6.647,6.647,0,0,1-.764.777,12.775,12.775,0,0,1-1.181.674c-.159.089-.32.185-.472.289a1.015,1.015,0,0,0-.353.329.968.968,0,0,0-.114.4.558.558,0,0,0,.415.545,2.238,2.238,0,0,0,.263.04,1.071,1.071,0,0,0,.344-.066c.17-.055.339-.121.507-.181a8.557,8.557,0,0,0,1.435-.593,4.3,4.3,0,0,0,.652-.5,3.462,3.462,0,0,0,.353-.377c.17-.2.328-.411.481-.627a4.35,4.35,0,0,0,.423-.818,6.231,6.231,0,0,0,.25-.662,5.3,5.3,0,0,0,.221-1.136,3.069,3.069,0,0,0-.031-.62c-.019-.143-.038-.282-.066-.423a2.757,2.757,0,0,0-.2-.583,4.011,4.011,0,0,0-.64-1.021c-.123-.145-.245-.284-.375-.421a4.357,4.357,0,0,0-1.588-.991c-.185-.075-.369-.148-.556-.218a4.557,4.557,0,0,0-.957-.236,9.763,9.763,0,0,0-1.03-.1c-.068,0-.136,0-.2,0a6.866,6.866,0,0,0-.979.081Z" transform="translate(-44.195 -0.717)" fill="#3d708a"></path><path id="Path_9009" data-name="Path 9009" d="M80.907,595.261c-.139.013-.276.035-.415.057a.755.755,0,0,0-.395.163.507.507,0,0,0-.154.457,1.318,1.318,0,0,0,.444.649c.087.091.164.191.243.289l-.007-.016.007.017.006.007-.006-.007v0l-.038-.047a.38.38,0,0,1,.045.068.365.365,0,0,1,.013.047.807.807,0,0,1,0,.093c0,.011-.006.021-.009.031a1.489,1.489,0,0,1-.145.218,2.342,2.342,0,0,0-.258.416,1.2,1.2,0,0,0-.091.269.927.927,0,0,0,0,.326,1.939,1.939,0,0,0,.2.6,2.6,2.6,0,0,0,.307.441,1.825,1.825,0,0,0,.459.394,2.659,2.659,0,0,0,.355.175c.112.051.223.1.335.147.036.014.071.029.106.045a.458.458,0,0,0,.234,0,.44.44,0,0,0,.261-.2.428.428,0,0,0,.044-.338.454.454,0,0,0-.305-.307c-.2-.076-.412-.145-.614-.223a1.92,1.92,0,0,1-.265-.149,2.5,2.5,0,0,1-.292-.3,1.953,1.953,0,0,1-.145-.244,1.34,1.34,0,0,1-.064-.221.481.481,0,0,1,0-.06,1.548,1.548,0,0,1,.05-.163,2.962,2.962,0,0,1,.158-.288c.045-.069.089-.139.129-.214a.862.862,0,0,0,.05-.677,1.3,1.3,0,0,0-.261-.4c-.1-.122-.21-.236-.31-.359l0-.006a7.089,7.089,0,0,1,1.326.038,4.427,4.427,0,0,1,.985.263,3.847,3.847,0,0,1,.7.4,3,3,0,0,1,.33.349c.018.023.035.047.052.071a.432.432,0,0,0,.236.181.4.4,0,0,0,.3-.04.387.387,0,0,0,.181-.234.382.382,0,0,0-.038-.3q-.148-.2-.309-.384a2.385,2.385,0,0,0-.445-.377,3.959,3.959,0,0,0-1.041-.488,4.443,4.443,0,0,0-1.121-.187c-.086-.006-.173-.008-.259-.008-.191,0-.38.011-.57.027Zm2.972,1.69.037.048-.037-.048Zm.045.058.017.021-.017-.021Zm-3.152.976-.007.051a.419.419,0,0,1,.007-.051Zm-.142-1.109h0Z" transform="translate(-16.597 -4.572)" fill="#3d708a"></path><path id="Path_9010" data-name="Path 9010" d="M142.923,594.184a3.7,3.7,0,0,0-.777.26,7.882,7.882,0,0,0-.859.411,5.394,5.394,0,0,0-.715.487,2.232,2.232,0,0,0-.567.624.378.378,0,0,0,.653.382,1,1,0,0,1,.077-.115,2.691,2.691,0,0,1,.375-.357,6.276,6.276,0,0,1,1.3-.733l-.061.024a4.407,4.407,0,0,1,.835-.281,1.242,1.242,0,0,1,.136,0c.031.007.062.015.092.023-.051.1-.111.2-.171.3-.022.034-.048.069-.071.106a.647.647,0,0,0-.13.24.492.492,0,0,0,.009.287.55.55,0,0,0,.256.293,1.388,1.388,0,0,0,.293.11c.053.016.107.033.159.052l.023.013.009.035c-.03.055-.063.107-.1.158a3.436,3.436,0,0,1-.47.454,3.215,3.215,0,0,1-.565.361c-.344.127-.7.221-1.026.381a.429.429,0,0,0-.2.486.439.439,0,0,0,.531.3c.2-.05.395-.075.59-.123.143-.035.286-.071.425-.115a2.859,2.859,0,0,0,.81-.446,3.555,3.555,0,0,0,.624-.559,2.274,2.274,0,0,0,.263-.379.923.923,0,0,0,.11-.619.9.9,0,0,0-.492-.687.879.879,0,0,0-.177-.068.693.693,0,0,0-.165-.03c.03-.057.059-.114.088-.173a1.3,1.3,0,0,0,.126-.459c-.006-.055-.015-.108-.024-.159a.51.51,0,0,0-.121-.216.978.978,0,0,0-.262-.174,1.294,1.294,0,0,0-.393-.115,1.056,1.056,0,0,0-.125-.007,1.827,1.827,0,0,0-.312.033Zm.812,2.081.027.02-.027-.02Zm.062.135c0,.012,0,.023.006.035l-.006-.035Zm-.013.005a.346.346,0,0,1-.006.039c0-.013,0-.026.006-.039Zm-1.379-1.264.029-.013-.029.013Z" transform="translate(-46.278 -4.036)" fill="#3d708a"></path><path id="Path_9011" data-name="Path 9011" d="M81.616,668.266c-.11.48-.212.959-.311,1.44-.07.335-.152.671-.209,1.01q-.1.615-.207,1.229c-.057.346-.1.7-.139,1.044-.086.671-.126,1.354-.166,2.028-.022.342-.031.684-.044,1.026a11.44,11.44,0,0,0,.179,2.206,17.742,17.742,0,0,0,.474,2c.086.307.179.615.295.914.077.2.148.4.236.6.07.157.132.322.214.474l.269.5a7.092,7.092,0,0,0,.879,1.229,8.421,8.421,0,0,0,1.341,1.183c.274.207.545.421.83.611s.578.4.882.576a9.338,9.338,0,0,0,1.9.874,6.626,6.626,0,0,0,1.461.24,4.133,4.133,0,0,0,.821-.053,3.56,3.56,0,0,0,.788-.2,4.348,4.348,0,0,0,2.014-1.8c.1-.148.19-.295.282-.446a5.5,5.5,0,0,0,.529-1.185,10.044,10.044,0,0,0,.247-.975,5.665,5.665,0,0,0,.133-1.571c-.029-.4-.084-.79-.143-1.182a6.527,6.527,0,0,0-.5-1.47c-.168-.41-.349-.814-.556-1.206-.17-.326-.365-.636-.536-.962-.19-.364-.362-.735-.536-1.106-.155-.33-.319-.656-.467-.989a11.1,11.1,0,0,1-.616-2.534,7.1,7.1,0,0,1,0-1.564c.073-.463.186-.922.292-1.38a.526.526,0,0,0-.772-.594.58.58,0,0,0-.243.315c-.13.338-.252.677-.373,1.018a6.713,6.713,0,0,0-.331,2.347,12.525,12.525,0,0,0,.137,1.591,7.5,7.5,0,0,0,.274,1.216c.073.225.163.444.247.664.238.613.481,1.229.763,1.824.134.282.278.556.423.833s.279.563.406.852.247.6.366.9a6.612,6.612,0,0,1,.344,1.43c.017.137.033.274.04.411a3.557,3.557,0,0,1-.025.618,8.161,8.161,0,0,1-.365,1.488,6.473,6.473,0,0,1-.672,1.108,4.66,4.66,0,0,1-.527.544,2.825,2.825,0,0,1-.366.214,3.645,3.645,0,0,1-.584.15,4.666,4.666,0,0,1-.885-.012,6.012,6.012,0,0,1-1.255-.345,15.44,15.44,0,0,1-1.77-.984c-.483-.3-.957-.626-1.411-.968a6.843,6.843,0,0,1-1.049-1.053,11.8,11.8,0,0,1-.792-1.256,10.186,10.186,0,0,1-.451-.967c-.162-.43-.331-.861-.463-1.3-.073-.243-.157-.486-.216-.733-.09-.39-.177-.777-.237-1.174a16.01,16.01,0,0,1-.079-1.685c0-.326.008-.653.02-.979.015-.384.038-.766.062-1.148.021-.318.067-.634.1-.951.077-.483.14-.97.238-1.449.157-.77.313-1.54.488-2.306a.355.355,0,0,0-.245-.432.334.334,0,0,0-.089-.012.351.351,0,0,0-.344.257ZM84.7,683.48l.063.05-.063-.05Z" transform="translate(-16.893 -40.563)" fill="#3d708a"></path><path id="Path_9012" data-name="Path 9012" d="M123.143,663.321a.4.4,0,0,0-.282.5,9.327,9.327,0,0,1,.354,1.3,15.9,15.9,0,0,1,.058,1.987c-.007.63-.045,1.258-.1,1.886-.034.236-.064.474-.114.7-.07.311-.135.618-.223.924-.093.322-.2.633-.311.947-.081.226-.176.447-.27.667q-.123.245-.245.492c-.075.147-.163.288-.247.428q-.247.417-.527.814c-.4.565-.8,1.125-1.194,1.694a14.753,14.753,0,0,0-1.092,1.732c-.108.214-.214.428-.309.648a6.266,6.266,0,0,0-.269.728,5.843,5.843,0,0,0-.168.923,4.6,4.6,0,0,0,.02,1.342,5,5,0,0,0,.486,1.381,5.059,5.059,0,0,0,4.782,2.438,7.077,7.077,0,0,0,2.8-.691,8.76,8.76,0,0,0,.975-.536c.135-.082.262-.181.392-.27a7.913,7.913,0,0,0,1.024-.869,10.144,10.144,0,0,0,.677-.761,18.251,18.251,0,0,0,1.259-1.759,8.349,8.349,0,0,0,.476-.807c.084-.172.17-.344.254-.518.1-.2.177-.421.263-.629.261-.631.479-1.28.7-1.928.1-.307.2-.616.289-.929.044-.157.1-.316.133-.476l.132-.642c.026-.132.042-.265.06-.4.028-.2.07-.408.082-.609.02-.342.055-.686.064-1.028.015-.679.024-1.356.02-2.034a8.8,8.8,0,0,0-.251-2.171,5.771,5.771,0,0,0-.485-1.134c-.108-.209-.216-.418-.328-.624a.5.5,0,0,0-.68-.177.5.5,0,0,0-.228.3.54.54,0,0,0,.049.384c.12.265.235.532.352.8.071.176.136.354.193.536a3.8,3.8,0,0,1,.127.633,16.645,16.645,0,0,1,.041,2.619c-.013.309-.015.624-.038.933s-.05.62-.074.929c-.029.176-.058.352-.087.529s-.073.35-.113.522c-.082.355-.185.7-.3,1.044q-.4,1.173-.842,2.328c-.1.246-.2.491-.325.728-.156.313-.322.611-.5.913-.156.267-.337.523-.513.777s-.355.5-.538.747a10.565,10.565,0,0,1-1.332,1.37,9.075,9.075,0,0,1-1.757,1.036,6.281,6.281,0,0,1-1.332.378,5.964,5.964,0,0,1-1.274.026,5.533,5.533,0,0,1-1.14-.3,4.14,4.14,0,0,1-.624-.37,4.248,4.248,0,0,1-.519-.5,4.343,4.343,0,0,1-.4-.723,4.622,4.622,0,0,1-.254-.865,4.8,4.8,0,0,1,.021-.918,5.482,5.482,0,0,1,.3-1.1,28,28,0,0,1,2.022-3.429,13.058,13.058,0,0,0,1.057-1.963c.066-.159.141-.318.2-.481l.2-.6c.044-.13.079-.261.115-.391.046-.161.1-.32.132-.483.06-.291.124-.578.168-.871.05-.335.093-.666.121-1a12.491,12.491,0,0,0,.011-1.679c-.031-.615-.064-1.231-.11-1.845a7.133,7.133,0,0,0-.2-1.275c-.088-.333-.2-.66-.311-.986a.416.416,0,0,0-.389-.3.392.392,0,0,0-.107.015Zm.074,1.81c.005.03.01.06.014.09l-.014-.09Zm8.268,2.125.025.063c-.009-.021-.017-.041-.025-.063Zm.365,1.337.008.059-.008-.059Zm-1.364,8.67-.044.1c.014-.035.029-.07.044-.1Zm-6.223,6.079-.088.011.088-.011Z" transform="translate(-35.504 -38.237)" fill="#3d708a"></path><path id="Path_9013" data-name="Path 9013" d="M54.264,690.441a8.455,8.455,0,0,0-1.419.287,9.209,9.209,0,0,0-1.227.488,6.237,6.237,0,0,0-1.154.742,8.813,8.813,0,0,0-1.8,1.933,14.284,14.284,0,0,0-1.829,4.547c-.075.275-.131.555-.2.831-.037.15-.053.306-.08.455-.029.176-.062.35-.081.527-.031.314-.067.629-.08.945s-.024.659-.024.99a12.5,12.5,0,0,0,.159,1.868,13.088,13.088,0,0,0,.381,1.783,10.817,10.817,0,0,0,.72,1.842,7.672,7.672,0,0,0,.432.777c.187.28.379.552.578.823s.411.521.631.768c.2.224.4.446.607.657a17.109,17.109,0,0,0,1.4,1.267,18.232,18.232,0,0,0,3.184,2.021,17.806,17.806,0,0,0,1.756.792,6.451,6.451,0,0,0,.832.252c.295.066.591.137.893.179.381.051.761.1,1.145.133.3.029.595.038.891.051a7.053,7.053,0,0,0,1.657-.128,8.042,8.042,0,0,0,1.683-.625c.265-.119.53-.247.786-.383a7.043,7.043,0,0,0,.636-.377,5.616,5.616,0,0,0,1.026-.9c.291-.323.554-.675.818-1.023a7.247,7.247,0,0,0,.492-.748,7.9,7.9,0,0,0,.386-.8,8.6,8.6,0,0,0,.379-1.008c.172-.567.305-1.15.421-1.734a12.645,12.645,0,0,0,.245-2.014,10.584,10.584,0,0,0-.168-1.964,7.39,7.39,0,0,0-.15-.823c-.078-.3-.17-.589-.27-.88-.2-.573-.364-1.155-.562-1.725a10.369,10.369,0,0,0-.836-1.756q-.453-.787-.918-1.562a12.239,12.239,0,0,0-1.053-1.526c-.139-.166-.276-.331-.43-.485a7.122,7.122,0,0,0-.569-.488c-.27-.221-.554-.43-.834-.642-.461-.35-.931-.686-1.421-1l-.248-.156a6.565,6.565,0,0,0-1.485-.979c-.333-.159-.666-.311-1.006-.452-.307-.126-.613-.237-.925-.349a9.35,9.35,0,0,0-2.113-.459,4.361,4.361,0,0,0-.478-.025,6.461,6.461,0,0,0-.782.052Zm1.728,1.59a8.746,8.746,0,0,1,1.2.27c.212.064.428.121.637.194s.432.139.638.225c.173.07.346.141.52.212a7.124,7.124,0,0,1,1.286.756c.468.375.907.782,1.351,1.184.474.426.951.849,1.421,1.28.292.267.572.547.843.836.2.343.394.693.581,1.044.353.666.706,1.331,1.018,2.018a9.637,9.637,0,0,1,.332.962c.11.4.218.8.339,1.2.11.368.223.73.311,1.1s.128.759.179,1.138l-.033-.24a7.845,7.845,0,0,1,.073,1.136c-.009.363-.034.725-.072,1.086-.079.515-.178,1.025-.292,1.531-.07.3-.139.6-.223.9-.081.278-.176.547-.278.817-.119.273-.246.54-.391.8a7.1,7.1,0,0,1-.534.792,6.872,6.872,0,0,1-.986,1.052,8.979,8.979,0,0,1-1.061.639c-.34.18-.68.358-1.031.516a5.154,5.154,0,0,1-1.045.29,12.465,12.465,0,0,1-2.532-.039,9.9,9.9,0,0,1-1.125-.221c-.223-.062-.437-.132-.655-.209-.19-.068-.375-.15-.561-.226l.175.073c-.682-.314-1.356-.643-2.007-1.017a18.26,18.26,0,0,1-1.74-1.161c-.228-.184-.451-.37-.669-.565s-.439-.413-.653-.625c-.425-.424-.822-.872-1.208-1.333-.243-.319-.478-.641-.691-.984a11.129,11.129,0,0,1-.6-1.135c-.07-.171-.143-.341-.2-.516-.084-.254-.168-.509-.238-.768s-.133-.541-.19-.816c-.041-.189-.068-.381-.1-.572a9.376,9.376,0,0,1-.087-1.281c.006-.229,0-.459.018-.686s.022-.48.05-.718c.023-.169.045-.337.069-.505.026-.2.077-.388.117-.58.075-.353.168-.706.278-1.05.122-.389.249-.777.384-1.163.121-.343.251-.68.379-1.02l.247-.555a6.606,6.606,0,0,1,.432-.779c.157-.256.33-.5.51-.741a8.65,8.65,0,0,1,1.344-1.359,6.562,6.562,0,0,1,1.237-.722,8.532,8.532,0,0,1,.813-.284,7.428,7.428,0,0,1,.947-.2,6.369,6.369,0,0,1,1.469.015Zm-1.306-.039-.12.017.12-.017Z" transform="translate(0 -51.63)" fill="#3d708a"></path><path id="Path_9014" data-name="Path 9014" d="M152.291,689.856a23.614,23.614,0,0,0-2.734.613,12.351,12.351,0,0,0-2.52,1.059c-.446.254-.862.556-1.28.851-.306.216-.6.451-.887.693a13.846,13.846,0,0,0-1.988,2.235c-.367.483-.721.977-1.083,1.463-.4.534-.783,1.072-1.14,1.634-.066.1-.131.21-.192.318-.08.139-.17.278-.238.425-.166.357-.328.713-.467,1.083a11.1,11.1,0,0,0-.5,1.824c-.132.7-.229,1.4-.32,2.1a8.13,8.13,0,0,0-.042,1.871,9.867,9.867,0,0,0,.181,1.148c.066.295.154.582.245.871s.2.6.3.9a8.427,8.427,0,0,0,.384.988,9.481,9.481,0,0,0,1.107,1.771,10.116,10.116,0,0,0,1.355,1.341c.156.135.331.258.5.384a3.573,3.573,0,0,0,.384.249c.285.164.578.312.878.451a7.957,7.957,0,0,0,1.908.679,15.038,15.038,0,0,0,2.045.247,8.9,8.9,0,0,0,.914-.029,6.546,6.546,0,0,0,1.787-.307c.605-.212,1.213-.43,1.811-.662a10.227,10.227,0,0,0,1.013-.469,7.537,7.537,0,0,0,.816-.536c.313-.218.613-.457.913-.7a8.85,8.85,0,0,0,.68-.6,12.245,12.245,0,0,0,1.313-1.569c.384-.521.747-1.053,1.092-1.6.17-.271.316-.558.467-.84.137-.254.269-.508.4-.766.311-.62.615-1.244.867-1.891a13.227,13.227,0,0,0,.944-3.823c.048-.661.071-1.326.057-1.988a6.641,6.641,0,0,0-.156-1.3c-.051-.223-.124-.439-.19-.657-.088-.285-.186-.569-.286-.852a13.953,13.953,0,0,0-.788-1.893c-.152-.291-.311-.581-.469-.872a7.25,7.25,0,0,0-2.284-2.641,5.463,5.463,0,0,0-1.727-.79,6.858,6.858,0,0,0-.909-.2,9.615,9.615,0,0,0-1.023-.078,6.734,6.734,0,0,0-.677.015.446.446,0,0,0-.358-.161.606.606,0,0,0-.1.009Zm-.086,1.385a7.327,7.327,0,0,1,.85.039c.338.049.678.1,1.008.184a6.483,6.483,0,0,1,.971.339,7.035,7.035,0,0,1,1.086.636,9.271,9.271,0,0,1,1.234,1.266,14.3,14.3,0,0,1,.826,1.362c.228.4.439.8.628,1.218q.2.491.38.99a8.256,8.256,0,0,1,.453,1.537,12.169,12.169,0,0,1,.02,1.679c-.017.432-.049.859-.1,1.288-.042.236-.086.47-.142.7-.069.291-.15.576-.232.863-.137.484-.318.954-.5,1.424-.374.85-.8,1.67-1.249,2.485a17.926,17.926,0,0,1-1.5,2.2l-.373.459c-.124.154-.268.293-.4.437s-.269.254-.4.381-.269.226-.4.338q-.523.4-1.065.768a6.113,6.113,0,0,1-1.018.544c-.344.129-.689.248-1.035.372a9.483,9.483,0,0,1-1.57.476,13.8,13.8,0,0,1-1.408.063,8.014,8.014,0,0,1-1.07-.092c-.289-.046-.574-.1-.858-.162a7.676,7.676,0,0,1-.86-.277q-.475-.209-.94-.442a5.484,5.484,0,0,1-.829-.53,11.3,11.3,0,0,1-1.348-1.327,11.08,11.08,0,0,1-.831-1.42c-.177-.47-.321-.95-.476-1.427a9.833,9.833,0,0,1-.342-1.461c-.011-.117-.022-.233-.033-.35-.015-.161-.008-.326-.013-.488a9,9,0,0,1,.048-.938c.049-.554.125-1.106.2-1.656.076-.5.161-1,.281-1.5.066-.27.152-.532.234-.8.058-.185.133-.366.206-.547a13.4,13.4,0,0,1,.621-1.206q.4-.656.815-1.3c.282-.434.556-.87.849-1.3.146-.216.285-.439.441-.648.135-.178.269-.357.4-.537a11.432,11.432,0,0,1,.916-1.006c.17-.164.351-.316.531-.472.231-.2.474-.393.714-.585.074-.055.149-.11.224-.164a.287.287,0,0,0,.355.067c.735-.334,1.458-.7,2.2-1.02a4.942,4.942,0,0,1,1.078-.319c.214-.036.426-.077.64-.115a7.4,7.4,0,0,1,.785-.033Zm-2.52.475-.05.021.05-.021Zm-4.849,3.077-.03.039.03-.039Z" transform="translate(-45.739 -51.363)" fill="#3d708a"></path><path id="Path_9015" data-name="Path 9015" d="M138.649,647.774a.848.848,0,0,0,0,1.189c.446.45.858.929,1.28,1.4.4.446.81.88,1.22,1.315s.817.88,1.231,1.315.785.849,1.15,1.3c.556.738,1.113,1.479,1.643,2.239.552.791,1.125,1.566,1.661,2.367s1.085,1.569,1.535,2.407.862,1.672,1.235,2.532q.406,1.028.72,2.088a13.866,13.866,0,0,1,.424,1.975c.058.486.1.975.179,1.458a.985.985,0,0,0,.275.612.97.97,0,0,0,1.37,0,1.056,1.056,0,0,0,.284-.684,2.3,2.3,0,0,0-.026-.571c-.038-.3-.079-.6-.119-.9-.059-.428-.123-.858-.214-1.28a20.148,20.148,0,0,0-.8-2.685,25.924,25.924,0,0,0-1.2-2.7c-.225-.446-.461-.884-.711-1.317-.223-.386-.48-.759-.726-1.13-1.112-1.683-2.3-3.314-3.538-4.9-.287-.367-.569-.748-.885-1.092-.339-.366-.688-.715-1.046-1.063q-1.067-1.034-2.109-2.1c-.564-.578-1.074-1.2-1.645-1.774a.848.848,0,0,0-1.189,0Zm10.98,16.119.006.014,0,.005-.008-.019Z" transform="translate(-45.513 -30.435)" fill="#3d708a"></path><path id="Path_9016" data-name="Path 9016" d="M76.1,646.237c-.856.642-1.694,1.3-2.493,2.016q-.6.535-1.19,1.088c-.331.311-.638.65-.948.983a29.232,29.232,0,0,0-1.946,2.356,19.3,19.3,0,0,0-1.408,2.39c-.351.649-.706,1.3-1.019,1.968s-.593,1.378-.883,2.069a38.421,38.421,0,0,0-1.7,4.684c-.215.788-.411,1.581-.572,2.382-.086.432-.148.865-.207,1.3-.024.177-.036.355-.051.532a3.229,3.229,0,0,0-.024.518.835.835,0,0,0,1.64.221,6.422,6.422,0,0,0,.205-.874c.066-.33.117-.661.184-.99.135-.655.286-1.3.459-1.952.192-.712.4-1.414.645-2.111s.5-1.369.777-2.046c.281-.656.57-1.308.849-1.965.322-.754.693-1.481,1.079-2.2s.765-1.432,1.152-2.146a15.026,15.026,0,0,1,1.253-1.843,25.06,25.06,0,0,1,1.811-2.141c.417-.423.847-.823,1.284-1.226.349-.324.724-.624,1.088-.933q.422-.324.847-.646a.9.9,0,0,0,.381-.5.829.829,0,0,0-.58-1.019.9.9,0,0,0-.237-.031.681.681,0,0,0-.4.114Zm-.112,2.158-.06.046.06-.046Zm-9.7,10.527-.037.088.037-.088Z" transform="translate(-8.545 -29.739)" fill="#3d708a"></path><path id="Path_9017" data-name="Path 9017" d="M66.157,705.748a2.869,2.869,0,0,0-1.45.448,11.354,11.354,0,0,0-.909.682.318.318,0,0,0-.091.12c-.067.042-.135.084-.2.132l-.342.252a4.561,4.561,0,0,0-.739.691,5.95,5.95,0,0,0-.88,1.39c-.129.282-.25.564-.364.854a3.028,3.028,0,0,0-.1.289c-.037.113-.079.227-.108.344-.126.5-.24,1-.32,1.513-.084.534-.15,1.066-.187,1.606a5.829,5.829,0,0,0,.006.7c.013.251.033.5.066.75a5.005,5.005,0,0,0,.117.658,3.51,3.51,0,0,0,.351.833,7.1,7.1,0,0,0,.552.851,5.735,5.735,0,0,0,.43.481,2.373,2.373,0,0,0,.24.227c.235.187.471.366.721.531a4.965,4.965,0,0,0,1.418.616,7.076,7.076,0,0,0,.77.172,8.333,8.333,0,0,0,.891.089,5.64,5.64,0,0,0,.745-.018,5.968,5.968,0,0,0,.808-.115c.181-.04.36-.082.539-.139a4.143,4.143,0,0,0,1-.49,6.7,6.7,0,0,0,.543-.409c.093-.075.184-.148.272-.23.11-.1.223-.207.328-.315a5.143,5.143,0,0,0,.687-.9c.181-.3.335-.609.492-.918.131-.258.242-.527.351-.794a4.829,4.829,0,0,0,.282-1.086c.08-.529.163-1.061.212-1.6a7.044,7.044,0,0,0,.036-.759,7.293,7.293,0,0,0-.079-.826c-.034-.249-.071-.5-.117-.741a4.3,4.3,0,0,0-.147-.607,4.349,4.349,0,0,0-.441-.931,7.229,7.229,0,0,0-.6-.776c-.15-.179-.311-.349-.465-.525-.17-.19-.34-.381-.518-.565a4.869,4.869,0,0,0-.54-.47,4.093,4.093,0,0,0-1.436-.786,6.3,6.3,0,0,0-1.648-.236q-.089,0-.179,0Zm.678,1.093a6.114,6.114,0,0,1,1.16.275,5.737,5.737,0,0,1,.892.544c.146.116.29.235.426.365.168.161.331.33.494.5.3.3.593.6.866.927a3.807,3.807,0,0,1,.422.728,7.093,7.093,0,0,1,.33,1.6l-.016-.115c.013.141.033.285.033.428,0,.176,0,.346-.013.522-.022.3-.067.6-.106.9,0-.04.009-.08.014-.12a9.036,9.036,0,0,1-.419,1.875c-.106.235-.212.468-.331.7a9.5,9.5,0,0,1-.74,1.251,7,7,0,0,1-.654.671c-.109.1-.228.194-.346.287a4.549,4.549,0,0,1-.84.5,5.4,5.4,0,0,1-.731.205c-.11.024-.221.04-.333.056l-.385.032c-.135.009-.272.005-.409.007a5.266,5.266,0,0,1-.678-.047c-.258-.041-.51-.091-.763-.158s-.477-.148-.712-.237c-.165-.08-.323-.164-.483-.254a5.518,5.518,0,0,1-.477-.322l.1.079a5.643,5.643,0,0,1-.925-.893,5.875,5.875,0,0,1-.647-1.056,5.211,5.211,0,0,1-.278-1.147,7.724,7.724,0,0,1-.05-1.027c.01-.347.046-.688.089-1.033a12.553,12.553,0,0,1,.26-1.308c.068-.258.14-.512.221-.765.069-.213.151-.419.234-.627.072-.154.144-.309.214-.462a5.632,5.632,0,0,1,.634-1.044,4.672,4.672,0,0,1,.673-.675l.36-.262c.053-.038.109-.074.165-.109a.413.413,0,0,0,.243-.059c.21-.132.421-.263.635-.39a4.829,4.829,0,0,1,.5-.245,2.391,2.391,0,0,1,.44-.126,4.3,4.3,0,0,1,.935.034Zm-.117-.017.04.006-.04-.006Zm4.187,8.478-.016.04.016-.04Z" transform="translate(-6.966 -59.225)" fill="#3d708a"></path><path id="Path_9018" data-name="Path 9018" d="M59.331,696.864a1.743,1.743,0,0,0-.342.124c-.044.019-.088.04-.132.062a.255.255,0,0,0-.267-.006,8.005,8.005,0,0,0-.786.5,2.69,2.69,0,0,0-.651.765,4.379,4.379,0,0,0-.4.9,2.728,2.728,0,0,0-.115,1.071,3.193,3.193,0,0,0,.094.525,3.4,3.4,0,0,0,.174.457,2.523,2.523,0,0,0,.518.772,4.053,4.053,0,0,0,.5.41c.1.073.2.141.309.2a2.9,2.9,0,0,0,.754.324,3,3,0,0,0,.531.084,2.073,2.073,0,0,0,.583-.038,2.133,2.133,0,0,0,.435-.152,2.839,2.839,0,0,0,.362-.2,2.2,2.2,0,0,0,.724-.763,2.789,2.789,0,0,0,.274-.715c.035-.137.07-.272.1-.411.026-.121.05-.244.072-.366a2.9,2.9,0,0,0,.051-.5c0-.1,0-.2-.009-.307a5.539,5.539,0,0,0-.055-.578,2.85,2.85,0,0,0-.305-.909,2.613,2.613,0,0,0-.611-.717,2.654,2.654,0,0,0-.43-.32,2.064,2.064,0,0,0-.47-.183c-.064-.018-.13-.027-.194-.04a2.885,2.885,0,0,0-.379-.042h-.022a1.53,1.53,0,0,0-.316.046Zm.349.788.044.006-.044-.006Zm.1.015a2.548,2.548,0,0,1,.462.119,3.51,3.51,0,0,1,.536.335,2.735,2.735,0,0,1,.34.322l-.055-.073a2.337,2.337,0,0,1,.281.448,2.4,2.4,0,0,1,.113.431,3.777,3.777,0,0,1,.01.8c-.037.209-.1.416-.155.621a5.756,5.756,0,0,1-.2.608,2.157,2.157,0,0,1-.206.357,1.934,1.934,0,0,1-.236.232,2.764,2.764,0,0,1-.441.257,2.255,2.255,0,0,1-.366.109,2.438,2.438,0,0,1-.446-.013,2.719,2.719,0,0,1-.465-.126,4.271,4.271,0,0,1-.747-.463,2.658,2.658,0,0,1-.375-.36,3.352,3.352,0,0,1-.321-.569,2.945,2.945,0,0,1-.17-.619,2.468,2.468,0,0,1,0-.511,4.178,4.178,0,0,1,.234-.825c-.011.024-.02.046-.031.07a3.084,3.084,0,0,1,.347-.615,2.3,2.3,0,0,1,.269-.275c.042-.031.085-.062.128-.091a.375.375,0,0,0,.22.162.4.4,0,0,0,.295-.038c.121-.06.244-.119.367-.174a2.576,2.576,0,0,1,.4-.123,1.268,1.268,0,0,1,.21,0Zm-.53.085-.052.023.052-.023Zm1.036.051.029.012-.029-.012Zm.818,3.508-.012.029.012-.029Zm-.809.791-.032.013.032-.013Z" transform="translate(-5.071 -54.81)" fill="#3d708a"></path><path id="Path_9019" data-name="Path 9019" d="M53.875,707.966a1.078,1.078,0,0,0-.492.156,2.048,2.048,0,0,0-.2.154c-.069.055-.131.122-.2.184l-.026.028a2.355,2.355,0,0,0-.236.226,2.963,2.963,0,0,0-.547.856,3.512,3.512,0,0,0-.253.891,2.985,2.985,0,0,0-.038.461,2.421,2.421,0,0,0,.077.558,1.608,1.608,0,0,0,.432.737,1.765,1.765,0,0,0,.359.269,1.954,1.954,0,0,0,.508.209,2.106,2.106,0,0,0,.911-.015,1.74,1.74,0,0,0,.38-.123,1.775,1.775,0,0,0,.43-.3,2.07,2.07,0,0,0,.485-.7,2.565,2.565,0,0,0,.208-.638,2.842,2.842,0,0,0,.035-.958,2.437,2.437,0,0,0-.064-.3,3.675,3.675,0,0,0-.135-.362,3.229,3.229,0,0,0-.322-.59,1.772,1.772,0,0,0-.183-.224,1.9,1.9,0,0,0-.267-.214,1.547,1.547,0,0,0-.265-.154,1.367,1.367,0,0,0-.571-.153Zm.036.744a1.856,1.856,0,0,1,.231.071,2.177,2.177,0,0,1,.329.2,1.856,1.856,0,0,1,.209.224,3.844,3.844,0,0,1,.376.608,1.771,1.771,0,0,1,.1.354,2.079,2.079,0,0,1-.019.392,2.873,2.873,0,0,1-.119.492,3.15,3.15,0,0,1-.283.512,1.976,1.976,0,0,1-.241.242,1.614,1.614,0,0,1-.19.116,1.91,1.91,0,0,1-.3.075,2.572,2.572,0,0,1-.459.013,1.575,1.575,0,0,1-.256-.075,2.153,2.153,0,0,1-.308-.176,1.619,1.619,0,0,1-.182-.181,1.375,1.375,0,0,1-.122-.2,2.231,2.231,0,0,1-.1-.361,2.7,2.7,0,0,1,.008-.546,3.557,3.557,0,0,1,.194-.734,3.019,3.019,0,0,1,.322-.556c.03-.036.06-.071.092-.105a.386.386,0,0,0,.292-.1c.057-.05.112-.1.17-.149.039-.027.079-.053.121-.077a1,1,0,0,1,.114-.029Zm.777.5.035.045-.035-.045Zm-1.883.466c-.005.014-.01.027-.016.04l.016-.04Z" transform="translate(-2.725 -60.323)" fill="#3d708a"></path><path id="Path_9020" data-name="Path 9020" d="M70.712,697.994a.328.328,0,0,0-.149.194.324.324,0,0,0-.011.066c-.067.01-.134.019-.2.03a1.148,1.148,0,0,0-.419.168,1.239,1.239,0,0,0-.309.316,1.785,1.785,0,0,0-.191.36,4.416,4.416,0,0,0-.163.426,1.846,1.846,0,0,0-.029.992,1.137,1.137,0,0,0,.4.64,2.206,2.206,0,0,0,.45.258c.068.031.137.057.205.084a1.55,1.55,0,0,0,.4.089,1.323,1.323,0,0,0,.406-.036,1.677,1.677,0,0,0,.5-.188,1.942,1.942,0,0,0,.645-.644,2.047,2.047,0,0,0,.238-.527,2.17,2.17,0,0,0,.071-.4,1.451,1.451,0,0,0-.053-.574c-.018-.057-.038-.11-.059-.165a1.4,1.4,0,0,0-.214-.362,1.97,1.97,0,0,0-.4-.349c-.1-.07-.194-.137-.295-.2a1.194,1.194,0,0,0-.177-.094,1.612,1.612,0,0,0-.2-.077,1.586,1.586,0,0,0-.284-.047.354.354,0,0,0-.161.044Zm.2.8a.326.326,0,0,0,.21-.088l.018-.019a3.756,3.756,0,0,1,.537.337.836.836,0,0,1,.247.33,1.548,1.548,0,0,1,.073.255,1.592,1.592,0,0,1-.012.29,2.244,2.244,0,0,1-.069.266,1.536,1.536,0,0,1-.455.593,1.9,1.9,0,0,1-.268.162,1.8,1.8,0,0,1-.286.07,1.43,1.43,0,0,1-.186.006,1.338,1.338,0,0,1-.2-.058,2.834,2.834,0,0,1-.4-.218,1.2,1.2,0,0,1-.11-.1,1.054,1.054,0,0,1-.073-.132,1.782,1.782,0,0,1-.077-.281,1.934,1.934,0,0,1,0-.324,3.1,3.1,0,0,1,.158-.532,2.005,2.005,0,0,1,.163-.3,1.087,1.087,0,0,1,.1-.1.581.581,0,0,1,.07-.041,1.856,1.856,0,0,1,.324-.073l.242-.032Zm-.263.035-.052.007.052-.007Zm-.617.474-.014.036.014-.036Zm-.019.049-.012.026.012-.026Z" transform="translate(-11.281 -55.37)" fill="#3d708a"></path><path id="Path_9021" data-name="Path 9021" d="M151.152,705.88a.422.422,0,0,0-.111.094c-.19.025-.378.06-.562.1a5.448,5.448,0,0,0-2.087,1.032,9.318,9.318,0,0,0-1.487,1.54c-.191.234-.366.479-.54.726a6.182,6.182,0,0,0-.4.7c-.031.061-.055.128-.08.191-.036.082-.077.166-.108.25-.044.117-.094.235-.128.355-.08.269-.15.538-.212.811a16.56,16.56,0,0,0-.369,1.787,5.357,5.357,0,0,0-.017.825,3.756,3.756,0,0,0,.569,1.783,5.986,5.986,0,0,0,1.118,1.268,6.746,6.746,0,0,0,1.917,1.145,10.158,10.158,0,0,0,.993.3l.369.1a5.317,5.317,0,0,0,.86.168,4.285,4.285,0,0,0,1.141-.08c.183-.029.362-.068.541-.1a5.621,5.621,0,0,0,1.138-.322,11.158,11.158,0,0,0,1.282-.7,7.3,7.3,0,0,0,1.194-.871,7.942,7.942,0,0,0,.74-.843c.242-.3.483-.6.7-.925a6.6,6.6,0,0,0,.558-1.121c.11-.26.208-.523.3-.788a4.943,4.943,0,0,0,.221-1.143,4.584,4.584,0,0,0-.031-1.185,4.485,4.485,0,0,0-.536-1.595c-.06-.108-.119-.221-.19-.324-.1-.15-.214-.291-.329-.432-.163-.2-.362-.379-.542-.567-.131-.137-.265-.268-.406-.4a5.282,5.282,0,0,0-.576-.432,7.925,7.925,0,0,0-.929-.605,5.473,5.473,0,0,0-1.173-.437,6.2,6.2,0,0,0-.964-.131.476.476,0,0,0-.23-.073c-.2-.012-.4-.025-.6-.035l-.709-.112a.819.819,0,0,0-.123-.011.389.389,0,0,0-.206.055Zm.544.9c.353.093.706.18,1.062.263.217.052.441.09.658.143a5.731,5.731,0,0,1,.642.2,4.669,4.669,0,0,1,.733.393c.28.194.548.4.819.606l-.046-.036.082.064c.222.187.417.393.618.6s.4.4.591.618a6.423,6.423,0,0,1,.6.986,5.376,5.376,0,0,1,.25.9,4.317,4.317,0,0,1-.017.928,5.548,5.548,0,0,1-.4,1.2c.016-.04.033-.078.049-.119-.069.154-.135.307-.212.457-.05.1-.1.19-.145.286a4.154,4.154,0,0,1-.389.588,10.752,10.752,0,0,1-1.409,1.533,7.981,7.981,0,0,1-.792.51,12.581,12.581,0,0,1-1.134.613,5.657,5.657,0,0,1-.884.232c-.248.051-.5.1-.747.143a3.856,3.856,0,0,1-.819.017c-.3-.055-.591-.149-.884-.228a10.725,10.725,0,0,1-1.039-.318,5.477,5.477,0,0,1-2.12-1.66,4.821,4.821,0,0,1-.388-.673,3.434,3.434,0,0,1-.163-.558c-.02-.1-.033-.212-.048-.318.007.051.015.1.022.152a6.49,6.49,0,0,1,0-1.2c.062-.43.126-.861.2-1.29.042-.244.089-.483.145-.724a4.55,4.55,0,0,1,.215-.624,4.876,4.876,0,0,1,.335-.633c.142-.212.289-.418.44-.624a8.716,8.716,0,0,1,1.37-1.434,5.985,5.985,0,0,1,1.156-.671,5.088,5.088,0,0,1,1.057-.283,5.663,5.663,0,0,1,.583-.034Zm4.873,8.1-.034.044c.011-.015.022-.03.034-.044Zm-5.859,3,.046.006-.046-.006Z" transform="translate(-48.798 -59.265)" fill="#3d708a"></path><path id="Path_9022" data-name="Path 9022" d="M166.671,696.3c-.2.009-.4.022-.6.035a.4.4,0,0,0-.251.108,2.364,2.364,0,0,0-.435.167,2.508,2.508,0,0,0-.739.547,2.382,2.382,0,0,0-.5.858,2.7,2.7,0,0,0-.135.52,2.007,2.007,0,0,0-.022.457,3.713,3.713,0,0,0,.053.381,2.832,2.832,0,0,0,.408,1.1,2.653,2.653,0,0,0,.46.509,3.151,3.151,0,0,0,.369.278,2.942,2.942,0,0,0,.527.249,2.62,2.62,0,0,0,1.085.212,1.957,1.957,0,0,0,.951-.331,2.948,2.948,0,0,0,.728-.717,5.28,5.28,0,0,0,.409-.624,3.76,3.76,0,0,0,.183-.391,2.332,2.332,0,0,0,.113-.417,3.465,3.465,0,0,0,.066-.5,3.35,3.35,0,0,0-.081-1.081,1.515,1.515,0,0,0-.1-.238,1.2,1.2,0,0,0-.128-.214,2.069,2.069,0,0,0-.25-.287,2.548,2.548,0,0,0-.307-.254,2.071,2.071,0,0,0-.558-.251,2.931,2.931,0,0,0-.917-.124c-.113,0-.226,0-.338.009Zm-.692.728a.355.355,0,0,0,.093.015c.324.011.654.01.977.045a3.628,3.628,0,0,1,.742.185,1.669,1.669,0,0,1,.24.135,2.483,2.483,0,0,1,.222.241,1.306,1.306,0,0,1,.094.164,1.627,1.627,0,0,1,.057.222,4.088,4.088,0,0,1,.018.416,3.085,3.085,0,0,1-.028.347,3.29,3.29,0,0,1-.137.539,4.6,4.6,0,0,1-.471.721,3.065,3.065,0,0,1-.4.406,2.262,2.262,0,0,1-.294.175,1.6,1.6,0,0,1-.2.057,1.951,1.951,0,0,1-.232,0,3.471,3.471,0,0,1-.671-.195,2.5,2.5,0,0,1-.381-.222,2.911,2.911,0,0,1-.373-.36,2.144,2.144,0,0,1-.171-.3,3.84,3.84,0,0,1-.231-.767,1.737,1.737,0,0,1,0-.3,3.2,3.2,0,0,1,.165-.623,2.209,2.209,0,0,1,.177-.31,2.363,2.363,0,0,1,.346-.347,2.284,2.284,0,0,1,.35-.209c.032-.012.065-.023.1-.033Zm-1.137,1.854,0,.041c0-.014,0-.028,0-.041Zm1.879,1.827.05.008-.05-.008Z" transform="translate(-58.165 -54.548)" fill="#3d708a"></path><path id="Path_9023" data-name="Path 9023" d="M156.443,697.135a1.548,1.548,0,0,0-.645.238,1.994,1.994,0,0,0-.8,1.092,2.262,2.262,0,0,0-.087.636,2.213,2.213,0,0,0,.1.682,1.307,1.307,0,0,0,.342.551,1.931,1.931,0,0,0,.218.174,1.352,1.352,0,0,0,.318.148,2.336,2.336,0,0,0,.611.108,2.893,2.893,0,0,0,.411,0,1.969,1.969,0,0,0,.968-.377c.057-.04.115-.082.17-.128a1.37,1.37,0,0,0,.21-.236,2.334,2.334,0,0,0,.291-.532,1.651,1.651,0,0,0,.122-.459,1.68,1.68,0,0,0-.015-.374l0,.026-.005-.036-.009-.072c0,.017,0,.034.006.051a3.222,3.222,0,0,0-.065-.32,1.424,1.424,0,0,0-.371-.651,1.79,1.79,0,0,0-.937-.433c-.062-.012-.125-.021-.187-.028a.237.237,0,0,0-.073-.027,1.992,1.992,0,0,0-.394-.042,1.6,1.6,0,0,0-.177.01Zm-.181.688h0l-.012.005.012-.005Zm0,0a.34.34,0,0,0,.187.116,4.788,4.788,0,0,1,.905.215,1.539,1.539,0,0,1,.216.118,1.349,1.349,0,0,1,.1.1,1.281,1.281,0,0,1,.1.168,1.844,1.844,0,0,1,.087.307,1.192,1.192,0,0,1,0,.141,1.761,1.761,0,0,1-.084.274,2.113,2.113,0,0,1-.177.3,1.19,1.19,0,0,1-.089.091,2.979,2.979,0,0,1-.383.221,1.559,1.559,0,0,1-.257.071,3.741,3.741,0,0,1-.674,0,1.48,1.48,0,0,1-.237-.059,1.29,1.29,0,0,1-.136-.084,1.151,1.151,0,0,1-.09-.089,1.05,1.05,0,0,1-.071-.123,1.836,1.836,0,0,1-.077-.3,2.535,2.535,0,0,1,0-.464,1.991,1.991,0,0,1,.082-.332,2.22,2.22,0,0,1,.207-.361,1.681,1.681,0,0,1,.206-.2,1.875,1.875,0,0,1,.183-.115Zm-.4.333,0,0,0,0Z" transform="translate(-53.673 -54.962)" fill="#3d708a"></path><path id="Path_9024" data-name="Path 9024" d="M173.035,706.289a1.5,1.5,0,0,0-.391.112,2,2,0,0,0-1.05,1.332,1.946,1.946,0,0,0-.06.754,1.675,1.675,0,0,0,.238.724,1.167,1.167,0,0,0,.606.452,1.87,1.87,0,0,0,.849.117,2.322,2.322,0,0,0,.726-.236,1.307,1.307,0,0,0,.53-.461,1.367,1.367,0,0,0,.156-.305,2.388,2.388,0,0,0,.091-.276,1.938,1.938,0,0,0,.042-.484,1.891,1.891,0,0,0-.045-.419,1.415,1.415,0,0,0-.223-.445c-.051-.077-.1-.154-.15-.231a1.226,1.226,0,0,0-.182-.232.684.684,0,0,0-.225-.139c-.033-.03-.068-.059-.1-.086a1.041,1.041,0,0,0-.353-.168l-.2-.027a1.75,1.75,0,0,0-.256.02Zm.26.82.022.006a.605.605,0,0,1,.057.034c.05.045.1.094.142.144a.386.386,0,0,0,.314.119c.045.064.1.124.144.185a1.358,1.358,0,0,1,.11.173,1.258,1.258,0,0,1,.04.156,1.879,1.879,0,0,1,0,.32,1.2,1.2,0,0,1-.048.17,1.6,1.6,0,0,1-.125.225,1.066,1.066,0,0,1-.078.081,1.051,1.051,0,0,1-.119.066,3,3,0,0,1-.489.138,1.551,1.551,0,0,1-.232,0,2.467,2.467,0,0,1-.42-.108c-.035-.017-.068-.035-.1-.056-.011-.011-.022-.021-.033-.033a1.034,1.034,0,0,1-.061-.105,1.681,1.681,0,0,1-.056-.217,1.75,1.75,0,0,1,0-.291,2.192,2.192,0,0,1,.109-.373,2.369,2.369,0,0,1,.165-.293,1.78,1.78,0,0,1,.193-.2,1.391,1.391,0,0,1,.174-.1,1.651,1.651,0,0,1,.193-.049.918.918,0,0,1,.1,0Zm.662.466.014.02-.014-.02Zm.021.029.032.041-.032-.041Zm-1.479.072-.014.034.014-.034Z" transform="translate(-61.89 -59.484)" fill="#3d708a"></path><path id="Path_9025" data-name="Path 9025" d="M84.632,730.6a.747.747,0,0,0-.521.918.718.718,0,0,0,.344.446q.45.2.909.388a7.149,7.149,0,0,0,.947.274c.249.06.5.113.75.168.485.11.967.22,1.45.335.937.221,1.862.49,2.808.664a25.7,25.7,0,0,0,3.089.372c.988.057,1.979.106,2.968.13,2.016.05,4.031-.005,6.049-.02.977-.006,1.946-.015,2.919-.113,1.1-.112,2.191-.251,3.276-.457.777-.147,1.542-.37,2.31-.562.337-.086.672-.168,1-.278a2.967,2.967,0,0,0,1.148-.624.914.914,0,0,0-.889-1.527c-.419.1-.862.145-1.289.2a15.233,15.233,0,0,0-1.542.311c-.545.132-1.088.258-1.639.364-.463.087-.93.155-1.4.22a26.452,26.452,0,0,1-2.848.235q-1.515.022-3.031.059c-1,.024-2.008.024-3.012.028s-2.037-.044-3.054-.07c-.79-.022-1.579-.038-2.367-.08-.7-.037-1.389-.107-2.081-.192q-1.491-.22-2.985-.412a10.425,10.425,0,0,1-2.468-.586c-.089-.038-.179-.078-.268-.118a.975.975,0,0,0-.394-.1.694.694,0,0,0-.182.025Zm22.626,1.221-.154.021.154-.021Z" transform="translate(-18.648 -71.507)" fill="#3d708a"></path><path id="Path_9026" data-name="Path 9026" d="M109.046,671.151a6.178,6.178,0,0,0-1.45.589l-.061.02c-.074-.038-.148-.075-.226-.107a2.146,2.146,0,0,0-.383-.119,3,3,0,0,0-1.489.084,3.837,3.837,0,0,0-1.22.715c-.161.129-.313.269-.469.4a1.634,1.634,0,0,0-.19-.063c-.108-.026-.216-.047-.326-.064a3.522,3.522,0,0,0-1.609.073,2.849,2.849,0,0,0-.747.371,3.093,3.093,0,0,0-.611.548,2.712,2.712,0,0,0-.7,1.6.507.507,0,0,0,1.015,0c0-.008,0-.016,0-.024a2.144,2.144,0,0,1,.1-.345,2.741,2.741,0,0,1,.266-.454,3.148,3.148,0,0,1,.39-.394,2.918,2.918,0,0,1,.452-.265,2.453,2.453,0,0,1,.461-.121,4.556,4.556,0,0,1,.96.033c.063.01.126.02.19.031a.951.951,0,0,0,.68-.046,3.358,3.358,0,0,0,.415-.341c.1-.086.2-.171.3-.253a3.771,3.771,0,0,1,.666-.406,2.745,2.745,0,0,1,.51-.143,2.93,2.93,0,0,1,.584,0,3.567,3.567,0,0,1,.457.116l.146.048a1.262,1.262,0,0,0,.306.059.773.773,0,0,0,.311-.055,2,2,0,0,0,.342-.166,5.668,5.668,0,0,1,.637-.33,3.452,3.452,0,0,1,.719-.2,2.654,2.654,0,0,1,.515,0,3.092,3.092,0,0,1,.59.147,1.379,1.379,0,0,1,.192.112,5.139,5.139,0,0,1,.526.564,1.445,1.445,0,0,0,.342.351,1.151,1.151,0,0,0,.384.135c.135.022.271.025.407.037a1.262,1.262,0,0,1,.162.041c.037.021.072.044.107.068.018.017.036.034.053.052a1.739,1.739,0,0,1,.146.276,6.556,6.556,0,0,1,.223.7c.024.09.048.179.077.267a1.65,1.65,0,0,0,.115.278,1.306,1.306,0,0,0,.183.243.382.382,0,0,0,.6-.463,1.265,1.265,0,0,1-.075-.126c-.047-.141-.079-.285-.117-.426-.048-.181-.113-.362-.175-.538a1.765,1.765,0,0,0-.582-.895,1.271,1.271,0,0,0-.408-.191,2.913,2.913,0,0,0-.459-.06,1.155,1.155,0,0,1-.134-.035l-.014-.008c-.051-.08-.1-.164-.155-.243-.077-.106-.157-.208-.242-.309a2.8,2.8,0,0,0-.338-.337,2.025,2.025,0,0,0-.358-.24,2.559,2.559,0,0,0-.413-.15,3.6,3.6,0,0,0-.752-.119c-.05,0-.1-.006-.15-.006a3.567,3.567,0,0,0-.676.08Zm-1.456.609a.294.294,0,0,1-.041.006h0l.042-.006Zm-.128,0,.025,0-.025,0Zm2.454.177.055.008-.055-.008Zm-.471.012-.043.005.043-.005Zm2.647.481.021.027-.021-.027Zm.048.054.049.037a.318.318,0,0,1-.049-.037Zm-8.386.277h0Zm-.064.019-.025,0,.025,0Zm1.164.192-.05.039.05-.039Zm8.041.764.02.046-.02-.046Z" transform="translate(-26.305 -42.077)" fill="#3d708a"></path><path id="Path_9027" data-name="Path 9027" d="M116.137,697.472a.422.422,0,0,0-.291.51c.018.069.033.137.045.207.02.248.014.5.012.753a11.235,11.235,0,0,1-.076,1.251,5.869,5.869,0,0,1-.355,1.277,4.213,4.213,0,0,1-.375.679,2.019,2.019,0,0,1-.254.26c-.063.046-.126.089-.189.136a1.148,1.148,0,0,0-.3.309,2.247,2.247,0,0,0-.187.5c-.1.318-.219.633-.344.944a7.688,7.688,0,0,1-.839,1.437,3.515,3.515,0,0,1-.488.5,3.641,3.641,0,0,1-.409.256c-.156.084-.324.141-.483.218a1.967,1.967,0,0,0-.52.444c-.3.307-.6.624-.929.9a3.063,3.063,0,0,1-.485.293,2.668,2.668,0,0,1-.47.13,3.65,3.65,0,0,1-.74-.014c-.184-.027-.366-.057-.549-.086-.126-.022-.254-.046-.38-.057a1.778,1.778,0,0,0-.686.07,5.468,5.468,0,0,0-.638.276c-.179.081-.354.167-.531.246a4.071,4.071,0,0,1-.717.216,4.9,4.9,0,0,1-.948-.014,4.124,4.124,0,0,1-.816-.208,3.489,3.489,0,0,1-.574-.34,3.655,3.655,0,0,1-.532-.547c-.088-.111-.175-.223-.263-.335a3.05,3.05,0,0,0-.254-.3,2.192,2.192,0,0,0-.247-.2,1.313,1.313,0,0,0-.3-.135A1.4,1.4,0,0,0,100.7,707l-.143-.013-.214-.013c-.26-.017-.518-.036-.777-.066a3.8,3.8,0,0,1-.738-.177,2.91,2.91,0,0,1-.45-.272,4.314,4.314,0,0,1-.6-.594,4.823,4.823,0,0,1-.482-.851l-.116-.29a1.658,1.658,0,0,0-.4-.7,1.677,1.677,0,0,0-.492-.234c-.1-.04-.21-.08-.314-.122a3.689,3.689,0,0,1-.69-.389,2.847,2.847,0,0,1-.358-.358,2.549,2.549,0,0,1-.2-.358,2.491,2.491,0,0,1-.115-.4,2.306,2.306,0,0,1,.012-.354c.055-.347.169-.683.256-1.022a.467.467,0,1,0-.9-.249,6.4,6.4,0,0,0-.311,1.571,2.2,2.2,0,0,0,.194.828,2.785,2.785,0,0,0,.454.739,3.229,3.229,0,0,0,1.306.871c.176.071.361.116.539.176l.008.017c.063.173.113.35.164.528a6.266,6.266,0,0,0,.357.891,3.973,3.973,0,0,0,.616.873,3.743,3.743,0,0,0,.891.737,4.271,4.271,0,0,0,1.748.441,4,4,0,0,0,.468.013c.1,0,.21,0,.315,0l0,0a1.84,1.84,0,0,1,.17.185l.036.047c.078.107.158.214.237.32a4.369,4.369,0,0,0,.706.772,3.765,3.765,0,0,0,1.026.611,5.036,5.036,0,0,0,1.226.286,4.178,4.178,0,0,0,1.12-.01,4.082,4.082,0,0,0,1.178-.4c.15-.071.295-.152.439-.23s.3-.183.456-.265c.032-.01.063-.018.1-.026a2.1,2.1,0,0,1,.218.008c.329.049.656.1.986.135a3.041,3.041,0,0,0,1.9-.433,5.949,5.949,0,0,0,1.5-1.526c.024-.028.048-.054.072-.078.054-.03.108-.057.165-.083a4.982,4.982,0,0,0,.569-.269,3.387,3.387,0,0,0,.706-.552,4.911,4.911,0,0,0,.516-.65,8.023,8.023,0,0,0,.455-.746,6.555,6.555,0,0,0,.541-1.394c.022-.087.05-.175.069-.265.025-.109.044-.222.076-.33a3.475,3.475,0,0,0,.581-.481,3.283,3.283,0,0,0,.486-.761,6.373,6.373,0,0,0,.362-.938,5.888,5.888,0,0,0,.188-.993,7.809,7.809,0,0,0,.052-1.259c0-.113-.019-.228-.029-.342-.013-.128-.031-.254-.053-.381a2.075,2.075,0,0,0-.137-.4.456.456,0,0,0-.192-.249.412.412,0,0,0-.209-.057.4.4,0,0,0-.109.015Zm-1.247,4.9-.025.018.025-.018Zm-.065.049-.032.026.032-.026Zm.405.869-.013.01.013-.01Zm-14.61,4.9c.018,0,.036,0,.055.008l-.055-.008Zm.322.264.071.09-.071-.09Zm2.3.472.056.024-.056-.024Z" transform="translate(-23.385 -55.126)" fill="#3d708a"></path><path id="Path_9028" data-name="Path 9028" d="M75.77,666.841c-.52.342-1.034.69-1.533,1.061-.23.17-.459.34-.688.512-.111.086-.225.17-.335.258a2.68,2.68,0,0,0-.448.4.411.411,0,0,0-.114.272.379.379,0,0,0,.114.271.388.388,0,0,0,.543,0c.038-.036.076-.07.117-.1.895-.686,1.807-1.353,2.749-1.974a.411.411,0,0,0,.145-.552.423.423,0,0,0-.357-.2.347.347,0,0,0-.193.057Z" transform="translate(-12.995 -39.957)" fill="#3d708a"></path><path id="Path_9029" data-name="Path 9029" d="M74.987,671.254c-.443.443-.889.881-1.306,1.35a.329.329,0,0,0,0,.457.325.325,0,0,0,.457,0c.423-.462.869-.9,1.31-1.346a.328.328,0,0,0,0-.461.321.321,0,0,0-.23-.095.326.326,0,0,0-.231.095Z" transform="translate(-13.457 -42.121)" fill="#3d708a"></path><path id="Path_9030" data-name="Path 9030" d="M73.685,675.789c-.39.452-.783.9-1.132,1.384a.244.244,0,0,0,.382.3c.364-.444.75-.87,1.129-1.3a.27.27,0,0,0,0-.377.277.277,0,0,0-.2-.079.235.235,0,0,0-.182.079Z" transform="translate(-12.928 -44.371)" fill="#3d708a"></path><path id="Path_9031" data-name="Path 9031" d="M73.164,680.414c-.271.318-.542.637-.8.962a.344.344,0,0,0-.1.228.323.323,0,0,0,.55.228c.267-.321.54-.638.81-.956a.349.349,0,0,0,.1-.23.331.331,0,0,0-.1-.232.346.346,0,0,0-.241-.1.287.287,0,0,0-.221.1Z" transform="translate(-12.803 -46.65)" fill="#3d708a"></path><path id="Path_9032" data-name="Path 9032" d="M85.654,680.84q-.406.776-.81,1.556c-.217.421-.433.842-.638,1.266a.171.171,0,0,0,.061.23.169.169,0,0,0,.23-.06c.486-.938.986-1.871,1.476-2.806a.189.189,0,0,0-.066-.254.191.191,0,0,0-.092-.024.177.177,0,0,0-.16.091Z" transform="translate(-18.698 -46.863)" fill="#3d708a"></path><path id="Path_9033" data-name="Path 9033" d="M86.46,682.7a15.716,15.716,0,0,0-1.039,2.181.419.419,0,0,0,.516.516.4.4,0,0,0,.249-.192c.139-.32.3-.629.457-.94.191-.373.39-.743.587-1.112a.453.453,0,0,0-.161-.611.442.442,0,0,0-.224-.059.432.432,0,0,0-.385.218Z" transform="translate(-19.301 -47.721)" fill="#3d708a"></path><path id="Path_9034" data-name="Path 9034" d="M87.821,686.542c-.05.187-.1.371-.143.557-.033.126-.066.253-.1.381-.069.315-.137.627-.2.944a.214.214,0,0,0,.146.258.209.209,0,0,0,.256-.147c.066-.309.137-.618.209-.925s.161-.636.245-.951a.223.223,0,0,0-.152-.269.228.228,0,0,0-.056-.007.219.219,0,0,0-.211.159Z" transform="translate(-20.278 -49.65)" fill="#3d708a"></path><path id="Path_9035" data-name="Path 9035" d="M92.078,722.255c.029.737.026,1.472.026,2.209a.46.46,0,0,0,.92,0c.015-.382.02-.763.024-1.143,0-.355-.018-.712-.036-1.067a.467.467,0,1,0-.933,0Z" transform="translate(-22.601 -67.16)" fill="#3d708a"></path><path id="Path_9036" data-name="Path 9036" d="M94.506,723.94c.031.7.064,1.4.115,2.1a.252.252,0,0,0,.5,0c-.011-.7-.034-1.4-.062-2.1a.279.279,0,0,0-.558,0Z" transform="translate(-23.802 -68.086)" fill="#3d708a"></path><path id="Path_9037" data-name="Path 9037" d="M97.236,725.061c.022.547.045,1.094.075,1.639a.27.27,0,0,0,.265.265.267.267,0,0,0,.265-.265c-.015-.547-.033-1.092-.053-1.639a.276.276,0,1,0-.552,0Z" transform="translate(-25.152 -68.641)" fill="#3d708a"></path><path id="Path_9038" data-name="Path 9038" d="M100.96,725.468a.2.2,0,0,0-.119.091.219.219,0,0,0-.02.156q.078.475.145.953h0l.007.053c0-.009,0-.018,0-.027.005.042.011.085.017.127a.221.221,0,0,0,.059.143.2.2,0,0,0,.286,0,.205.205,0,0,0,.051-.2c-.051-.388-.11-.775-.172-1.161a.2.2,0,0,0-.194-.146.2.2,0,0,0-.055.008Zm.009,1.226,0-.026h0l0,.026Z" transform="translate(-26.923 -68.975)" fill="#3d708a"></path></g></g></svg> 