<?xml version="1.0" encoding="UTF-8"?> <svg xmlns="http://www.w3.org/2000/svg" width="150" height="94" viewBox="0 0 150 94"><g id="icon_kontakti" transform="translate(-1152 -1547)"><rect id="Rectangle_368" data-name="Rectangle 368" width="150" height="94" transform="translate(1152 1547)" fill="none"></rect><g id="Group_584" data-name="Group 584" transform="translate(958.918 1362.764)"><path id="Path_8982" data-name="Path 8982" d="M291.639,270.031c-.1-13.406-.332-26.813-.628-40.215-.252-11.451.12-23.287-1.038-34.745a7.993,7.993,0,0,0,.142-2.975.381.381,0,0,0,.047-.161c.206-3.372-2.784-3.959-5.565-4.217a178.994,178.994,0,0,0-20.651-.356c-3.3.08-6.61.149-9.913.279-1.917.075-4.576-.263-6.4.62A3.944,3.944,0,0,0,245.5,191.4a.332.332,0,0,0-.237.312c-.97,12.647-.2,25.628-.345,38.32q-.1,9.163-.3,18.325c-.143,6.575-.842,13.36-.382,19.917a4.178,4.178,0,0,0,1.938,4.433c1.734,1.21,4,1.15,6.007,1.195,3.539.078,7.081.129,10.621.2,7.079.146,14.16.319,21.24.407,3.107.039,7.147-.306,7.393-3.909A.849.849,0,0,0,291.639,270.031Zm-14.132,3.1-10.621-.2q-4.9-.092-9.8-.172c-3.2-.054-11.769.59-11.791-3.961a.711.711,0,0,0,.232-.451c.828-6.264.5-12.838.615-19.154q.17-9.578.247-19.158c.092-12.187.743-24.788-.335-36.956.51-2.2,1.6-3.7,4.679-4.284a32.706,32.706,0,0,1,4.954-.163c3.583-.1,7.156-.113,10.739-.09,3.306.022,6.611.055,9.915.15,3.22.091,10.835-.923,12.707,2.5a.247.247,0,0,0-.051.1c-.936,12.982.3,26.356.492,39.368.19,13.126.249,26.251.276,39.379a.853.853,0,0,0,.259.63C289.364,274.408,279.666,273.169,277.507,273.127Z" transform="translate(0)" fill="#3d708a"></path><path id="Path_8983" data-name="Path 8983" d="M285.675,202.58a.432.432,0,0,0,.036-.782c-1.943-.97-3.826-.806-6-.854-3.471-.076-6.943-.095-10.415-.164-6.6-.133-13.29-.611-19.877-.2-.01-.057-.017-.116-.025-.172a.3.3,0,0,0-.569,0c-1.591,9.137-.559,19.169-.505,28.426q.031,5.146.112,10.292l-.515,0a.115.115,0,0,0,0,.23l.52.028c.018,1.209.032,2.418.055,3.625.087,4.7-.285,9.645.443,14.285a.337.337,0,0,0,.176.265.436.436,0,0,0,.365.592c11.882,1.5,24.363.968,36.321.825a.524.524,0,0,0,.516-.618.5.5,0,0,0,.04-.133C288.31,239.826,286.722,220.964,285.675,202.58Zm-.215,55.3c-11.891.046-23.879-.924-35.745-.563a.419.419,0,0,0,.045-.139c.061-.476.1-.956.143-1.437,9.045-.179,18.022-.13,27.064.229.211.009.206-.307,0-.325a186.1,186.1,0,0,0-27.026-.345c.063-.91.09-1.83.1-2.752a131.794,131.794,0,0,0,18.556-.119c.194-.018.2-.31,0-.307-6.2.118-12.356.3-18.55.1.007-1.352-.031-2.712-.074-4.067,9.074-.15,18.171-.368,27.232-.852a.18.18,0,0,0,0-.36c-9.077.108-18.173.484-27.24.927q-.058-1.774-.09-3.524c5-.142,10.019-.3,15.009-.653a.157.157,0,0,0,0-.314c-5,.067-10.016.324-15.014.6,0-.326-.014-.654-.014-.978,0-1.183,0-2.367,0-3.55,8.321.438,16.7.86,25.025.778a.2.2,0,0,0,0-.4c-8.3-.572-16.694-.648-25.025-.7q0-1.82,0-3.642a81.716,81.716,0,0,0,15.965.269.175.175,0,0,0,0-.349c-5.26-.232-10.7-.32-15.967-.143q0-1.818,0-3.635a249.387,249.387,0,0,0,27.125.078.121.121,0,0,0,0-.242c-9.042-.092-18.081.141-27.125-.063q0-1.655,0-3.307c4.532.162,9.123.415,13.651.251a.186.186,0,0,0,0-.372c-4.518-.338-9.114-.262-13.65-.276,0-1.012.014-2.032.034-3.058,6.757.439,13.587.807,20.353.973.257.007.243-.362,0-.39a154.184,154.184,0,0,0-20.345-.921c.022-1.058.053-2.123.085-3.19,7.308.195,14.589.664,21.89,1.039.326.017.317-.472,0-.5-7.263-.672-14.587-.839-21.88-.88q.046-1.485.089-2.978c4.252-.186,8.472-.083,12.724.112.225.011.214-.318,0-.342a67.862,67.862,0,0,0-12.716-.11q.048-1.732.074-3.469c6.907.394,13.872.772,20.779.879.233,0,.221-.33,0-.354a178.072,178.072,0,0,0-20.773-.9c.011-.894.01-1.787,0-2.677,4.377.1,8.726.428,13.1.722.193.013.242-.315.046-.341a103.548,103.548,0,0,0-13.141-.777c-.017-1.423-.063-2.84-.146-4.247,7.767.166,15.491.778,23.249,1.037.192.007.243-.314.046-.342a144.88,144.88,0,0,0-23.313-1.052c-.1-1.5-.239-2.99-.444-4.46,5.739.575,11.583.43,17.346.541,5.851.112,12.352-.44,18.132.577C286.2,221.008,285,239.439,285.461,257.878Z" transform="translate(0.376 1.308)" fill="#3d708a"></path><path id="Path_8984" data-name="Path 8984" d="M265.292,256a.447.447,0,0,0-.092.042,4.056,4.056,0,1,0-.752,8.075,4.774,4.774,0,0,0,5.016-3.988A3.488,3.488,0,0,0,265.292,256Zm2.433,5.2a3.391,3.391,0,0,1-4.108,1.538,2.96,2.96,0,0,1-1.473-4.07,5.191,5.191,0,0,1,2.877-2.017.474.474,0,0,0,.522.258C267.981,256.459,268.731,259.511,267.726,261.2Z" transform="translate(1.674 6.929)" fill="#3d708a"></path><path id="Path_8985" data-name="Path 8985" d="M271.362,192.577c-1.91-.1-3.8-.212-5.706-.4a9.082,9.082,0,0,0-4.046.031,2.1,2.1,0,0,0-1.805.319,2.2,2.2,0,0,0-1.058,1.666,2.045,2.045,0,0,0,.839,1.715.98.98,0,0,0,.939.178,63.779,63.779,0,0,0,10.313.307.409.409,0,0,0,.247-.09,1.792,1.792,0,0,0,1.832-1.408C273.092,194.063,272.457,192.225,271.362,192.577Zm-.327,3.035a.452.452,0,0,0-.2-.062,66.368,66.368,0,0,0-9.624-.094.24.24,0,0,0-.212-.1c-.144.02-.48-.332-.623-.479a.687.687,0,0,1-.192-.848c.263-.539.882-.64,1.385-.88,1.266.527,2.712.273,4.084.223,1.875-.067,3.684-.009,5.549.094.239.337.623.572.568,1.11A1.375,1.375,0,0,1,271.035,195.612Z" transform="translate(1.48 0.476)" fill="#3d708a"></path></g></g></svg> 