<?xml version="1.0" encoding="UTF-8"?> <svg xmlns="http://www.w3.org/2000/svg" width="150" height="94" viewBox="0 0 150 94"><g id="icon_det_menu" transform="translate(-439 -3217)"><rect id="Rectangle_369" data-name="Rectangle 369" width="150" height="94" transform="translate(439 3217)" fill="none"></rect><g id="_03" data-name="03" transform="translate(474 3221)"><g id="_3039289912000" transform="translate(0)"><g id="Group_29" data-name="Group 29" transform="translate(0)"><g id="Group_21" data-name="Group 21" transform="translate(10.496 49.624)"><path id="Path_84" data-name="Path 84" d="M349.211,1400.571l-4.58,15.694-4.651,15.658h0a.722.722,0,0,1-.6.533l-5.184.923-5.219.71-2.627.249c-.888.071-1.74.177-2.627.213l-2.628.142c-.888.071-1.775.036-2.627.071-.888,0-1.775.035-2.627,0l-2.628-.107-2.627-.213c-.888-.071-1.74-.213-2.628-.32s-1.74-.284-2.627-.426c-.852-.177-1.74-.355-2.592-.6q-1.278-.319-2.556-.746a21.774,21.774,0,0,1-2.556-1.065.743.743,0,0,1-.391-.532v-.036l-3.338-16.226-3.267-16.227a.553.553,0,0,1,.426-.639.559.559,0,0,1,.639.391l3.622,16.155,3.515,16.156-.391-.532a18.983,18.983,0,0,0,2.272.923c.817.284,1.633.5,2.45.71s1.669.391,2.485.568c.852.142,1.7.319,2.521.426.852.106,1.7.213,2.556.284l2.556.213,2.592.071c.852.035,1.74,0,2.592,0,.852-.035,1.74,0,2.592-.035l2.592-.142c1.74-.071,3.444-.284,5.184-.461l5.148-.675,5.113-.888-.6.532,4.864-15.623,4.971-15.588a.483.483,0,1,1,.923.284Z" transform="translate(-290.612 -1397.61)" fill="#3d708a"></path></g><g id="Group_27" data-name="Group 27" transform="translate(18.921 47.847)"><g id="Group_22" data-name="Group 22" transform="translate(33.8)"><path id="Path_85" data-name="Path 85" d="M1487.7,1348.14s-.32,2.237-.888,5.61c-.284,1.669-.6,3.622-.994,5.717s-.781,4.332-1.207,6.533c-.426,2.237-.888,4.438-1.278,6.533s-.852,4.012-1.207,5.681c-.71,3.338-1.243,5.539-1.243,5.539a.529.529,0,0,1-.639.391.521.521,0,0,1-.391-.6s.32-2.237.888-5.61c.284-1.669.6-3.622.994-5.716s.817-4.3,1.207-6.533c.462-2.237.888-4.438,1.314-6.533s.852-4.012,1.207-5.681c.746-3.3,1.278-5.539,1.278-5.539a.5.5,0,0,1,.6-.355.471.471,0,0,1,.355.533Z" transform="translate(-1479.849 -1347.556)" fill="#3d708a"></path></g><g id="Group_23" data-name="Group 23" transform="translate(0 7.219)"><path id="Path_86" data-name="Path 86" d="M528.782,1551.268s.391,1.74.923,4.367c.249,1.314.568,2.84.852,4.509s.6,3.409.888,5.184.533,3.515.817,5.184c.249,1.669.462,3.2.639,4.545.355,2.663.533,4.438.533,4.438a.5.5,0,0,1-.5.568.491.491,0,0,1-.568-.426s-.391-1.74-.888-4.367c-.249-1.314-.568-2.841-.817-4.509-.284-1.669-.568-3.409-.852-5.184s-.533-3.551-.781-5.184c-.249-1.669-.426-3.2-.6-4.545-.355-2.663-.533-4.438-.533-4.438a.482.482,0,0,1,.426-.533.5.5,0,0,1,.533.391Z" transform="translate(-527.891 -1550.873)" fill="#3d708a"></path></g><g id="Group_24" data-name="Group 24" transform="translate(25.209 8.273)"><path id="Path_87" data-name="Path 87" d="M1242.139,1581.036s-.107,1.775-.32,4.4c-.106,1.314-.249,2.876-.39,4.509-.177,1.633-.355,3.409-.533,5.184-.213,1.74-.426,3.515-.639,5.148-.178,1.633-.426,3.16-.6,4.509-.39,2.627-.71,4.367-.71,4.367a.519.519,0,0,1-.639.426.491.491,0,0,1-.426-.568s.106-1.775.319-4.4c.142-1.314.249-2.876.426-4.509s.355-3.409.568-5.148.426-3.515.639-5.148.462-3.16.639-4.474c.391-2.628.71-4.367.71-4.367a.46.46,0,0,1,.568-.391.442.442,0,0,1,.391.5Z" transform="translate(-1237.873 -1580.559)" fill="#3d708a"></path></g><g id="Group_25" data-name="Group 25" transform="translate(9.875 7.153)"><path id="Path_88" data-name="Path 88" d="M807.03,1549.391s.284,1.846.6,4.616c.142,1.385.355,3.018.533,4.758s.355,3.586.533,5.468c.142,1.846.32,3.728.462,5.468s.249,3.373.319,4.758c.178,2.8.213,4.651.213,4.651a.576.576,0,0,1-.533.568.51.51,0,0,1-.533-.461s-.284-1.846-.6-4.616c-.142-1.385-.355-3.018-.533-4.758s-.355-3.586-.533-5.468c-.142-1.846-.284-3.728-.426-5.468s-.213-3.373-.32-4.758c-.177-2.805-.213-4.651-.213-4.651a.478.478,0,0,1,.462-.5.5.5,0,0,1,.5.426Z" transform="translate(-806 -1549)" fill="#3d708a"></path></g><g id="Group_26" data-name="Group 26" transform="translate(18.148 7.397)"><path id="Path_89" data-name="Path 89" d="M1041.805,1556.375s0,1.882-.071,4.687c-.036,1.42-.106,3.054-.178,4.829s-.177,3.622-.284,5.5-.249,3.764-.355,5.5c-.106,1.775-.284,3.409-.391,4.793-.248,2.8-.462,4.687-.462,4.687a.551.551,0,0,1-.6.462.51.51,0,0,1-.462-.533s0-1.882.107-4.687c.071-1.42.071-3.053.177-4.829s.178-3.622.284-5.5c.142-1.882.249-3.764.391-5.5s.284-3.409.391-4.793c.249-2.8.462-4.687.462-4.687a.476.476,0,0,1,.532-.426.5.5,0,0,1,.426.5Z" transform="translate(-1039 -1555.873)" fill="#3d708a"></path></g></g><g id="Group_28" data-name="Group 28"><path id="Path_90" data-name="Path 90" d="M5.4,28.476a31.1,31.1,0,0,1,.817-6.285,32.036,32.036,0,0,1,1.953-6A26.457,26.457,0,0,1,15.736,6.107,27.57,27.57,0,0,1,21.168,2.77,30.7,30.7,0,0,1,27.2.817,37.93,37.93,0,0,1,33.489.071L35.087,0l1.562.036c.533,0,1.03,0,1.6.036l1.562.142a37.612,37.612,0,0,1,6.249,1.03,31.575,31.575,0,0,1,5.965,2.2,31.163,31.163,0,0,1,2.8,1.562,22.853,22.853,0,0,1,2.556,1.917,25.8,25.8,0,0,1,4.4,4.616,33.029,33.029,0,0,1,5.4,11.469,46.7,46.7,0,0,1,1.172,6.214,37.78,37.78,0,0,1,.249,6.356l-.5-.781a11.7,11.7,0,0,1,2.237,1.349,11.175,11.175,0,0,1,1.917,1.74,7.446,7.446,0,0,1,.781,1.065l.355.568.284.6a8.28,8.28,0,0,1,.71,2.592,8.559,8.559,0,0,1,0,1.349c0,.462-.142.888-.178,1.314a6.354,6.354,0,0,1-.355,1.243l-.213.6-.284.6a11.614,11.614,0,0,1-.6,1.1c-.249.391-.533.746-.817,1.136l-.923.959c-.32.284-.71.533-1.065.817a7.5,7.5,0,0,1-1.172.639,5.242,5.242,0,0,1-1.243.462l-.639.213-.639.107a7.833,7.833,0,0,1-1.314.142,12.565,12.565,0,0,1-2.592-.178,14.375,14.375,0,0,1-2.485-.746,17.222,17.222,0,0,1-2.308-1.1A14.515,14.515,0,0,1,55.5,49.887a17.222,17.222,0,0,1-1.846-1.74c-.6-.6-1.065-1.278-1.633-1.917l1.491-.426a11.57,11.57,0,0,1-.426,2.308,16.223,16.223,0,0,1-.781,2.2,16.442,16.442,0,0,1-1.1,2.059l-.71.959c-.249.32-.533.568-.817.888a6.347,6.347,0,0,1-.888.781,6.081,6.081,0,0,1-.959.71l-1.03.568c-.355.213-.746.284-1.1.462a12.616,12.616,0,0,1-2.272.6c-.178.036-.391.071-.568.107l-.568.036-1.172.071a16.782,16.782,0,0,1-2.308-.142,7.019,7.019,0,0,1-1.172-.142,5.969,5.969,0,0,1-1.136-.32,12.174,12.174,0,0,1-4.083-2.272,9.259,9.259,0,0,1-.852-.817,6.509,6.509,0,0,1-.746-.923,11.719,11.719,0,0,1-1.207-2.024l-.426-1.1a10.612,10.612,0,0,1-.32-1.136l-.142-.568-.071-.568-.142-1.136,1.527-.107a6.894,6.894,0,0,1-.071,1.243c-.036.391-.107.817-.178,1.207a12.725,12.725,0,0,1-.675,2.343c-.178.391-.355.746-.533,1.136L27.95,53.3c-.249.32-.533.639-.781.959a10.5,10.5,0,0,1-.923.852,5.3,5.3,0,0,1-1.03.71l-.533.32a3.945,3.945,0,0,1-.568.249c-.391.142-.746.355-1.136.462l-1.172.284a6.593,6.593,0,0,1-1.207.178l-1.207.107c-.781,0-1.6-.036-2.379-.036h-.071a12.963,12.963,0,0,1-1.775-.533,9.827,9.827,0,0,1-1.633-.781,5.839,5.839,0,0,1-.781-.5c-.249-.178-.5-.391-.71-.568a4.041,4.041,0,0,1-.675-.675,3.769,3.769,0,0,1-.568-.746,4.753,4.753,0,0,1-.462-.817c-.107-.284-.249-.568-.355-.888l-.213-.923a8.742,8.742,0,0,1-.071-.923,3.944,3.944,0,0,1,.036-.923l.107-.923a8.052,8.052,0,0,1,.213-.888l.249-.888,1.207.675a13.985,13.985,0,0,1-1.74,1.811,16.133,16.133,0,0,1-1.988,1.491c-.355.249-.746.391-1.1.6a12.15,12.15,0,0,1-1.207.462,7.025,7.025,0,0,1-2.592.284l-.675-.071-.639-.178a4.5,4.5,0,0,1-.639-.213l-.568-.32c-.178-.107-.391-.213-.568-.32l-.5-.391-.5-.391-.142-.107c-.107-.107-.071-.107-.142-.142L-1.7,49.39c-.284-.32-.533-.568-.817-.888l-.746-1.065a14.639,14.639,0,0,1-1.065-2.272,6.769,6.769,0,0,1-.355-1.207,7.584,7.584,0,0,1-.213-1.243L-5,41.472l.071-1.243a9.821,9.821,0,0,1,.568-2.45l.213-.6a4.239,4.239,0,0,1,.284-.568,6.83,6.83,0,0,1,.639-1.1c.249-.32.5-.675.781-.994l.923-.852a11.1,11.1,0,0,1,1.065-.71,4.228,4.228,0,0,1,.533-.32l.568-.249c.391-.142.781-.355,1.172-.462l1.207-.284a7,7,0,0,1,1.243-.142l1.243-.107-.533.5.213-3.3.036.036Zm.923,1.917h0l-.071,1.42a.485.485,0,0,1-.5.5H5.723l-1.136.107a5.85,5.85,0,0,0-1.136.142l-1.1.249a8.835,8.835,0,0,0-1.03.391l-.533.213a5.257,5.257,0,0,0-.462.284,8.516,8.516,0,0,0-.923.639l-.817.746a8.337,8.337,0,0,0-.675.888,8.517,8.517,0,0,0-.568.959c-.071.178-.178.32-.249.5l-.178.533a7.617,7.617,0,0,0-.462,2.166l-.036,1.136.107,1.136a5.492,5.492,0,0,0,.213,1.1,6.073,6.073,0,0,0,.32,1.065,10.56,10.56,0,0,0,.959,2.024l.6.888c.213.284.533.568.781.888l.213.213.071.071.107.071.426.32.426.355a2.934,2.934,0,0,0,.462.249l.462.249a3.643,3.643,0,0,0,.5.142l.5.142.533.036a5.957,5.957,0,0,0,2.095-.249c.355-.107.675-.249,1.03-.391a8.312,8.312,0,0,0,.959-.533A11.135,11.135,0,0,0,8.989,47.65a13.531,13.531,0,0,0,1.562-1.633.721.721,0,0,1,.994-.107.736.736,0,0,1,.249.746v.036l-.213.781a5.018,5.018,0,0,0-.213.781l-.107.781a5.753,5.753,0,0,0-.036.781c.036.249,0,.533.036.746l.178.746a5.92,5.92,0,0,0,.284.71,3.7,3.7,0,0,0,.355.639,2.482,2.482,0,0,0,.462.6,3.775,3.775,0,0,0,.533.533,4.087,4.087,0,0,0,.6.5,4.342,4.342,0,0,0,.675.426,10.4,10.4,0,0,0,1.42.675,14.166,14.166,0,0,0,1.491.462h-.071c.746,0,1.491.036,2.2.036l1.1-.107a5.135,5.135,0,0,0,1.065-.178l1.03-.249c.355-.107.639-.284.994-.391l.5-.213.426-.284a7.353,7.353,0,0,0,.852-.6c.249-.249.533-.462.781-.71.213-.284.462-.533.675-.817l.568-.888.426-.959a10.422,10.422,0,0,0,.568-2.059c.071-.355.107-.71.142-1.065s.036-.746.036-1.03a.758.758,0,0,1,.746-.781.8.8,0,0,1,.781.639v.036l.142,1.03.071.533.142.5c.107.32.142.675.284.994l.391.959a10.868,10.868,0,0,0,1.065,1.74,6.805,6.805,0,0,0,.639.781c.213.249.5.462.746.71a10.629,10.629,0,0,0,3.551,1.988,8.124,8.124,0,0,0,.994.284,4.491,4.491,0,0,0,.994.107,14.041,14.041,0,0,0,2.095.107l1.03-.071.533-.036.5-.107a9.676,9.676,0,0,0,1.988-.533,7.2,7.2,0,0,0,.923-.391l.888-.5a4.41,4.41,0,0,0,.817-.6,4.568,4.568,0,0,0,.746-.675,6.729,6.729,0,0,0,.675-.746l.6-.817a11.011,11.011,0,0,0,.959-1.811,12.694,12.694,0,0,0,.675-1.953,10.691,10.691,0,0,0,.355-1.988.835.835,0,0,1,.888-.781,1.082,1.082,0,0,1,.568.284l.036.036c.5.6.959,1.243,1.491,1.775a11.868,11.868,0,0,0,1.7,1.562,13.742,13.742,0,0,0,1.882,1.314,15.672,15.672,0,0,0,2.059.994,12.5,12.5,0,0,0,2.166.639,9.484,9.484,0,0,0,2.237.142,5.512,5.512,0,0,0,1.1-.107l.533-.071.533-.178a5.133,5.133,0,0,0,1.03-.391,5.069,5.069,0,0,0,.959-.533c.284-.213.6-.391.888-.639L70.735,49l.6-.852a7.055,7.055,0,0,0,.568-1.03l.249-.5.178-.533a6.071,6.071,0,0,0,.32-1.065c.036-.355.178-.71.178-1.065s.036-.71,0-1.065a5.934,5.934,0,0,0-.568-2.059l-.213-.5-.284-.462a5.325,5.325,0,0,0-.675-.888,9.806,9.806,0,0,0-1.669-1.527A12.071,12.071,0,0,0,67.5,36.288h0a.767.767,0,0,1-.462-.781,38.734,38.734,0,0,0-.213-6.072,42.513,42.513,0,0,0-1.1-6,32,32,0,0,0-5.113-10.972,24.428,24.428,0,0,0-4.154-4.4,23.11,23.11,0,0,0-5.077-3.3A32.167,32.167,0,0,0,45.7,2.627a37.85,37.85,0,0,0-6-1.03L38.14,1.456c-.462-.036-.994-.036-1.527-.036l-1.527-.036-1.527.071a38.311,38.311,0,0,0-6.072.71A32.322,32.322,0,0,0,21.7,4.012,24.7,24.7,0,0,0,16.517,7.1,25.153,25.153,0,0,0,9.2,16.653,30.011,30.011,0,0,0,7.25,22.44,32.1,32.1,0,0,0,6.4,28.476Z" transform="translate(5)" fill="#3d708a"></path></g></g><g id="Group_30" data-name="Group 30" transform="translate(51.797 5.965)"><path id="Path_91" data-name="Path 91" d="M1454.17,168a2.34,2.34,0,0,0,.319.071q.32.053.959.213a14.871,14.871,0,0,1,3.231,1.243,17.62,17.62,0,0,1,4.012,2.8,16.987,16.987,0,0,1,1.846,2.059,27.064,27.064,0,0,1,1.7,2.272,30.669,30.669,0,0,1,2.841,4.829c.391.817.71,1.633.994,2.414.249.781.462,1.527.639,2.272a15.089,15.089,0,0,1,.32,3.48c-.036.852-.107,1.314-.107,1.314a.292.292,0,0,1-.355.249.3.3,0,0,1-.249-.249h0a2.317,2.317,0,0,1-.071-.32c-.036-.213-.071-.533-.142-.923-.106-.391-.142-.888-.284-1.42-.107-.533-.284-1.136-.426-1.811a20.29,20.29,0,0,0-.675-2.095,23.418,23.418,0,0,0-.888-2.308c-.355-.781-.745-1.6-1.136-2.414s-.888-1.6-1.349-2.414c-.461-.781-.994-1.562-1.491-2.343a14.064,14.064,0,0,0-1.669-2.059,15.216,15.216,0,0,0-3.764-2.8,12.068,12.068,0,0,0-3.125-1.172c-.391-.071-.675-.142-.923-.178a2.188,2.188,0,0,0-.319-.036.306.306,0,1,1,.106-.6h0Z" transform="translate(-1453.808 -168)" fill="#3d708a"></path></g><g id="Group_31" data-name="Group 31" transform="translate(47.528 5.215)"><path id="Path_92" data-name="Path 92" d="M1334.808,147.092a.882.882,0,0,1,.107.249,1.31,1.31,0,0,1,.036.533,2.047,2.047,0,0,1-.178.5.6.6,0,0,1-1.03.071h0a.883.883,0,0,1-.107-.249,1.31,1.31,0,0,1-.035-.533,1.394,1.394,0,0,1,.213-.462l.213-.213a.561.561,0,0,1,.781.107Z" transform="translate(-1333.586 -146.875)" fill="#3d708a"></path></g><g id="Group_32" data-name="Group 32" transform="translate(45.164 5.199)"><path id="Path_93" data-name="Path 93" d="M1268.6,146.735a.11.11,0,0,0,.036.071.562.562,0,0,1,0,.249.974.974,0,0,1-.249.639,1.1,1.1,0,0,1-.568.426.951.951,0,0,1-.32.071.528.528,0,0,1-.462-.462l-.035-.249a1.081,1.081,0,0,1,.284-.6,1.229,1.229,0,0,1,.32-.284c.071-.035.106-.035.142-.071a.11.11,0,0,1,.071-.035.557.557,0,0,1,.745.284h0Z" transform="translate(-1267 -146.431)" fill="#3d708a"></path></g><g id="Group_33" data-name="Group 33" transform="translate(42.252 4.722)"><path id="Path_94" data-name="Path 94" d="M1186.349,133.312a.49.49,0,0,1,.071.249,1.022,1.022,0,0,1-.036.462.746.746,0,0,1-.284.391.611.611,0,0,1-.213.142.679.679,0,0,1-.817-.32.491.491,0,0,1-.071-.249,1.048,1.048,0,0,1,.071-.462.968.968,0,0,1,.284-.355l.213-.142a.627.627,0,0,1,.746.284Z" transform="translate(-1185 -132.992)" fill="#3d708a"></path></g><g id="Group_34" data-name="Group 34" transform="translate(14.806 5.156)"><path id="Path_95" data-name="Path 95" d="M429.15,145.7s-.391.178-1.065.5a8.166,8.166,0,0,0-1.207.639,12.268,12.268,0,0,0-1.491.923c-.533.355-1.1.746-1.7,1.207a21.977,21.977,0,0,0-1.775,1.491c-.568.568-1.172,1.136-1.74,1.775-.568.6-1.065,1.314-1.6,1.988-.5.71-.994,1.385-1.42,2.095-.462.71-.852,1.42-1.243,2.13-.355.71-.71,1.385-.994,2.059-.32.675-.568,1.278-.817,1.882-.249.568-.462,1.136-.639,1.633a11.762,11.762,0,0,0-.462,1.278c-.249.71-.426,1.1-.426,1.1v.036a.357.357,0,0,1-.391.178.316.316,0,0,1-.177-.284s.035-.426.142-1.207c.035-.391.142-.852.249-1.385a9.322,9.322,0,0,1,.5-1.74,12.766,12.766,0,0,1,.781-1.988c.32-.71.71-1.385,1.1-2.13a24.562,24.562,0,0,1,1.385-2.166c.5-.71,1.065-1.385,1.633-2.095.6-.639,1.172-1.314,1.811-1.917a20.915,20.915,0,0,1,1.882-1.7c.639-.5,1.243-1.03,1.882-1.456.6-.462,1.172-.852,1.74-1.207.533-.355,1.065-.675,1.527-.923s.888-.5,1.207-.639c.675-.355,1.065-.533,1.065-.533a.294.294,0,1,1,.249.533h0Z" transform="translate(-412 -145.215)" fill="#3d708a"></path></g><g id="Group_35" data-name="Group 35" transform="translate(61.261 43.445)"><path id="Path_96" data-name="Path 96" d="M1734.3,1225.376a.613.613,0,0,1-.106.142c-.071.107-.142.249-.284.462a7.293,7.293,0,0,1-.533.675,5.664,5.664,0,0,1-.817.746,7.325,7.325,0,0,1-2.415,1.207,6.836,6.836,0,0,1-1.527.284,12.569,12.569,0,0,1-1.633,0,8.944,8.944,0,0,1-1.562-.355,8.633,8.633,0,0,1-1.42-.639,9.141,9.141,0,0,1-2.166-1.669,7.04,7.04,0,0,1-1.136-1.562,5.916,5.916,0,0,1-.32-.675.289.289,0,0,1,.178-.391.376.376,0,0,1,.284.036s.213.177.533.462.781.674,1.313,1.172a18.632,18.632,0,0,0,1.953,1.456,9.528,9.528,0,0,0,1.172.639,10,10,0,0,0,1.349.462,8.672,8.672,0,0,0,1.385.213,6.35,6.35,0,0,0,3.622-1.1c.284-.213.532-.462.745-.639a5.46,5.46,0,0,0,.462-.6c.107-.142.177-.32.249-.426a.359.359,0,0,0,.071-.177.294.294,0,1,1,.532.248h0Z" transform="translate(-1720.364 -1223.586)" fill="#3d708a"></path></g><g id="Group_36" data-name="Group 36" transform="translate(37.168 48.315)"><path id="Path_97" data-name="Path 97" d="M1055.272,1364.791s-.213.106-.568.319a11.483,11.483,0,0,1-1.633.675,11.03,11.03,0,0,1-5.4.355,9.347,9.347,0,0,1-2.769-1.065,7.173,7.173,0,0,1-1.953-1.7,5.142,5.142,0,0,1-.923-1.6,3.119,3.119,0,0,1-.213-.675.3.3,0,0,1,.533-.249s.177.178.426.462c.284.284.675.71,1.136,1.172a19.759,19.759,0,0,0,1.74,1.456,11.357,11.357,0,0,0,1.1.675,7.315,7.315,0,0,0,1.207.533,7.4,7.4,0,0,0,2.592.462,7.963,7.963,0,0,0,2.343-.319,6.539,6.539,0,0,0,1.527-.639c.355-.213.568-.319.568-.319a.305.305,0,1,1,.355.5h-.035Z" transform="translate(-1041.808 -1360.734)" fill="#3d708a"></path></g><g id="Group_37" data-name="Group 37" transform="translate(19.324 49.118)"><path id="Path_98" data-name="Path 98" d="M550.765,1383.883a3.106,3.106,0,0,1-.284.5,11.889,11.889,0,0,1-.923,1.278,8.2,8.2,0,0,1-4.012,2.485,8.331,8.331,0,0,1-1.314.177,5.334,5.334,0,0,1-1.314-.106,6,6,0,0,1-2.166-.817,3.936,3.936,0,0,1-1.172-1.1,2.033,2.033,0,0,1-.32-.533.313.313,0,0,1,.177-.426.393.393,0,0,1,.284,0,5.057,5.057,0,0,0,.5.249,12.681,12.681,0,0,0,3.018,1.278c.355.071.71.142,1.065.178a6.078,6.078,0,0,0,1.136,0,5.629,5.629,0,0,0,2.166-.6,5.242,5.242,0,0,0,1.6-1.207,4.716,4.716,0,0,0,.817-1.172,2.593,2.593,0,0,0,.249-.5.3.3,0,1,1,.568.213v.071Z" transform="translate(-539.234 -1383.363)" fill="#3d708a"></path></g><g id="Group_38" data-name="Group 38" transform="translate(2.127 35.36)"><path id="Path_99" data-name="Path 99" d="M59.1,996.435s-.178.142-.462.355a7.893,7.893,0,0,0-1.1,1.1,8.516,8.516,0,0,0-1.136,1.882,5.421,5.421,0,0,0-.391,2.379,6.215,6.215,0,0,0,.213,1.172,8.931,8.931,0,0,0,.426,1.03,6.187,6.187,0,0,0,1.172,1.562c.213.178.426.355.6.5a2.122,2.122,0,0,0,.533.32c.32.177.5.284.5.284h.036a.3.3,0,0,1,.142.391c-.036.106-.142.142-.249.178h-.178a2.274,2.274,0,0,1-.5,0,2.645,2.645,0,0,1-.781-.178,4.764,4.764,0,0,1-.923-.5,5.075,5.075,0,0,1-1.6-1.988,5.725,5.725,0,0,1-.426-1.385,5,5,0,0,1-.036-1.456,8.654,8.654,0,0,1,2.166-4.58,11.961,11.961,0,0,1,1.172-1.172c.284-.249.462-.391.462-.391h0a.3.3,0,0,1,.391.462A.035.035,0,0,0,59.1,996.435Z" transform="translate(-54.91 -995.862)" fill="#3d708a"></path></g><g id="Group_39" data-name="Group 39" transform="translate(55.225 17.611)"><path id="Path_100" data-name="Path 100" d="M1550.6,496.071a.155.155,0,0,1,.106-.035c.035,0,.177-.036.284-.036a1.937,1.937,0,0,1,.852.177,1.8,1.8,0,0,1,.675.568,1.279,1.279,0,0,1,.177.355.478.478,0,0,1-.284.533l-.32.107a2.571,2.571,0,0,1-.852-.32,6.056,6.056,0,0,1-.5-.355c-.071-.036-.106-.107-.177-.142l-.071-.071a.5.5,0,0,1,.035-.71c.035-.036.071-.071.106-.071Z" transform="translate(-1550.367 -496)" fill="#3d708a"></path></g><g id="Group_40" data-name="Group 40" transform="translate(52.675 18.996)"><path id="Path_101" data-name="Path 101" d="M1479.046,535a3.612,3.612,0,0,1,.568.142,7.409,7.409,0,0,1,1.136.5,6.027,6.027,0,0,1,.994.71,2.347,2.347,0,0,1,.39.426.5.5,0,0,1-.106.675.685.685,0,0,1-.355.107,3.611,3.611,0,0,1-.568-.142,4.447,4.447,0,0,1-1.1-.533,6.022,6.022,0,0,1-.994-.746c-.249-.249-.391-.426-.391-.426a.444.444,0,0,1,.071-.6.362.362,0,0,1,.32-.071Z" transform="translate(-1478.532 -535)" fill="#3d708a"></path></g><g id="Group_41" data-name="Group 41" transform="translate(50.995 21.659)"><path id="Path_102" data-name="Path 102" d="M1431.631,610.071a2.712,2.712,0,0,1,.532.071,5.4,5.4,0,0,1,2.024.994,2.123,2.123,0,0,1,.391.355.465.465,0,0,1-.071.675.574.574,0,0,1-.32.107,1.863,1.863,0,0,1-.532-.107,3.527,3.527,0,0,1-1.03-.426,3.83,3.83,0,0,1-.923-.639,3.275,3.275,0,0,1-.39-.391.412.412,0,0,1,.071-.6.4.4,0,0,1,.284-.107Z" transform="translate(-1431.212 -610)" fill="#3d708a"></path></g><g id="Group_42" data-name="Group 42" transform="translate(19.812 10.484)"><path id="Path_103" data-name="Path 103" d="M563.616,295.886s-.213.142-.568.426a17.76,17.76,0,0,0-1.42,1.136,21.7,21.7,0,0,0-1.846,1.811c-.639.71-1.243,1.491-1.846,2.308-1.172,1.633-2.166,3.373-2.947,4.616a15.81,15.81,0,0,1-1.03,1.527c-.249.355-.426.568-.426.568h0a.292.292,0,0,1-.426.036.4.4,0,0,1-.107-.284,8.762,8.762,0,0,1,.852-2.485,18.281,18.281,0,0,1,1.349-2.308,29.579,29.579,0,0,1,1.917-2.379,56.362,56.362,0,0,1,4.119-3.906c1.172-.994,1.988-1.633,1.988-1.633h0a.305.305,0,0,1,.355.5h0Z" transform="translate(-553 -295.256)" fill="#3d708a"></path></g><g id="Group_43" data-name="Group 43" transform="translate(16.319 36.465)"><path id="Path_104" data-name="Path 104" d="M455.111,1027a3.874,3.874,0,0,1,.533.142,3.382,3.382,0,0,1,.994.6,4.125,4.125,0,0,1,.746.887,4.229,4.229,0,0,1,.213.5.462.462,0,0,1-.355.568.5.5,0,0,1-.32-.035h0s-.178-.107-.426-.249c-.213-.177-.533-.391-.781-.639-.284-.249-.5-.5-.71-.71-.178-.213-.32-.391-.32-.391a.414.414,0,0,1,.107-.6.382.382,0,0,1,.284-.071Z" transform="translate(-454.6 -1027)" fill="#3d708a"></path></g><g id="Group_44" data-name="Group 44" transform="translate(19.135 34.122)"><path id="Path_105" data-name="Path 105" d="M534.49,961a2.956,2.956,0,0,1,.5.142,4.973,4.973,0,0,1,.959.5,4.178,4.178,0,0,1,.817.71,1.836,1.836,0,0,1,.32.426.484.484,0,0,1-.178.675.527.527,0,0,1-.32.071,2.96,2.96,0,0,1-.5-.142,3.754,3.754,0,0,1-.959-.533,4.174,4.174,0,0,1-.817-.746,1.841,1.841,0,0,1-.32-.426.422.422,0,0,1,.142-.6.528.528,0,0,1,.32-.071Z" transform="translate(-533.919 -961)" fill="#3d708a"></path></g><g id="Group_45" data-name="Group 45" transform="translate(21.866 32.19)"><path id="Path_106" data-name="Path 106" d="M611.4,906.6a2.587,2.587,0,0,1,.5.249,6.862,6.862,0,0,1,.959.675,6.193,6.193,0,0,1,.817.888,1.545,1.545,0,0,1,.284.462.5.5,0,0,1-.213.639.42.42,0,0,1-.355.035,2.584,2.584,0,0,1-.5-.249,7.344,7.344,0,0,1-.959-.71,5.59,5.59,0,0,1-.781-.888c-.177-.284-.284-.5-.284-.5a.428.428,0,0,1,.213-.568A.5.5,0,0,1,611.4,906.6Z" transform="translate(-610.823 -906.586)" fill="#3d708a"></path></g><g id="Group_46" data-name="Group 46" transform="translate(60.032 56.291)"><path id="Path_107" data-name="Path 107" d="M1690.538,1585.812s-.355.852-.817,2.13a41.729,41.729,0,0,0-1.314,4.829c-.391,1.775-.781,3.551-1.207,4.829a9.908,9.908,0,0,1-.888,2.131.3.3,0,0,1-.426.106.238.238,0,0,1-.142-.249,10.012,10.012,0,0,1,.177-2.308,27.711,27.711,0,0,1,1.456-4.829c.675-1.7,1.314-3.408,1.811-4.722.462-1.278.781-2.166.781-2.166h0a.3.3,0,0,1,.568.213Z" transform="translate(-1685.735 -1585.364)" fill="#3d708a"></path></g><g id="Group_47" data-name="Group 47" transform="translate(58.321 73.854)"><path id="Path_108" data-name="Path 108" d="M1638.533,2081.278l-.213.071c-.107,0-.284.036-.391-.035a.493.493,0,0,1-.284-.249.423.423,0,0,1-.071-.213.715.715,0,0,1,.391-.781l.213-.071a.831.831,0,0,1,.39.071,1.077,1.077,0,0,1,.284.284.423.423,0,0,1,.071.213.643.643,0,0,1-.355.71Z" transform="translate(-1637.559 -2080)" fill="#3d708a"></path></g><g id="Group_48" data-name="Group 48" transform="translate(56.668 75.735)"><path id="Path_109" data-name="Path 109" d="M1592.989,2135.059a.273.273,0,0,0-.106.036.911.911,0,0,1-.32,0,2.191,2.191,0,0,1-.852-.284,1.768,1.768,0,0,1-.6-.675,1.425,1.425,0,0,1-.106-.532c0-.249.177-.6.461-.6h0l.284.107a4.531,4.531,0,0,1,.781.5,1.617,1.617,0,0,1,.426.426c.071.071.106.142.142.177l.071.071a.507.507,0,0,1-.071.71.184.184,0,0,1-.142.071Z" transform="translate(-1591 -2133)" fill="#3d708a"></path></g><g id="Group_49" data-name="Group 49" transform="translate(15.9 57.478)"><path id="Path_110" data-name="Path 110" d="M443.381,1619.026s.178.959.462,2.379c.32,1.42.781,3.267,1.314,5.148a43.435,43.435,0,0,1,1.207,5.148,12.481,12.481,0,0,1,.142,2.45.311.311,0,0,1-.32.284.267.267,0,0,1-.249-.177,13.129,13.129,0,0,1-.852-2.272,46.506,46.506,0,0,1-.959-5.219c-.249-1.917-.568-3.835-.817-5.255-.284-1.42-.5-2.343-.5-2.343a.3.3,0,0,1,.213-.355.315.315,0,0,1,.355.213v0Z" transform="translate(-442.806 -1618.806)" fill="#3d708a"></path></g><g id="Group_50" data-name="Group 50" transform="translate(17.957 75.7)"><path id="Path_111" data-name="Path 111" d="M502.357,2133.066a.593.593,0,0,1-.213.177,1.155,1.155,0,0,1-.5.142,1.134,1.134,0,0,1-.5-.106.878.878,0,0,1-.213-.142.622.622,0,0,1,0-.888.385.385,0,0,1,.213-.142,1.134,1.134,0,0,1,.5-.107,1.152,1.152,0,0,1,.5.142.593.593,0,0,1,.213.177.6.6,0,0,1,0,.817Z" transform="translate(-500.75 -2132)" fill="#3d708a"></path></g><g id="Group_51" data-name="Group 51" transform="translate(18.445 77.508)"><path id="Path_112" data-name="Path 112" d="M516.421,2183.943a.124.124,0,0,1-.071.036c-.071.036-.071.071-.142.107l-.426.213a2.143,2.143,0,0,1-.746.071l-.213-.071a.494.494,0,0,1-.32-.6.782.782,0,0,1,.213-.32,1.3,1.3,0,0,1,.675-.426,1.4,1.4,0,0,1,.781.036.835.835,0,0,1,.249.106l.071.071a.515.515,0,0,1,0,.746A.124.124,0,0,1,516.421,2183.943Z" transform="translate(-514.485 -2182.91)" fill="#3d708a"></path></g><g id="Group_52" data-name="Group 52" transform="translate(55.896 9.809)"><path id="Path_113" data-name="Path 113" d="M1569.708,276.353s.177.142.462.391.746.6,1.207,1.03c.5.426,1.03.959,1.634,1.562.568.6,1.171,1.243,1.74,1.953a16.53,16.53,0,0,1,1.456,2.166,14.6,14.6,0,0,1,.923,2.095,7.345,7.345,0,0,1,.355,2.2.287.287,0,0,1-.32.284.36.36,0,0,1-.249-.142h0a3.253,3.253,0,0,1-.319-.533c-.178-.32-.426-.817-.675-1.385-.532-1.136-1.172-2.663-2.024-4.154a14.872,14.872,0,0,0-1.385-2.059,13.281,13.281,0,0,0-1.456-1.6,15.085,15.085,0,0,0-1.669-1.349.305.305,0,1,1,.355-.5l.035.035h-.071Z" transform="translate(-1569.256 -276.256)" fill="#3d708a"></path></g><g id="Group_53" data-name="Group 53" transform="translate(65.928 45.164)"><path id="Path_114" data-name="Path 114" d="M1858.206,1272.781a.977.977,0,0,0-.248.142,6.522,6.522,0,0,1-.71.355,10.733,10.733,0,0,1-1.03.391,6.806,6.806,0,0,1-1.278.248,4.259,4.259,0,0,1-1.349-.071,2.684,2.684,0,0,1-1.065-.462,1.844,1.844,0,0,1-.568-.639,1.315,1.315,0,0,1-.142-.32.366.366,0,0,1,.249-.426h.142a1.331,1.331,0,0,1,.284.036c.177.036.391.106.639.178a18.181,18.181,0,0,0,1.846.639,3.863,3.863,0,0,0,1.1.106,3.805,3.805,0,0,0,.959-.213,2.31,2.31,0,0,0,.6-.32,2.2,2.2,0,0,0,.213-.177.3.3,0,0,1,.391.462.125.125,0,0,1-.071.036Z" transform="translate(-1851.808 -1272)" fill="#3d708a"></path></g><g id="Group_54" data-name="Group 54" transform="translate(41.791 50.064)"><path id="Path_115" data-name="Path 115" d="M1177.965,1411.6a3.855,3.855,0,0,0-.959.071c-.568.071-1.314.213-2.166.284a4.908,4.908,0,0,1-1.243-.106,2.618,2.618,0,0,1-.994-.5,1.836,1.836,0,0,1-.5-.639,2.776,2.776,0,0,1-.107-.32.365.365,0,0,1,.355-.391h.107a.853.853,0,0,1,.284.071c.142.035.355.106.568.177s.461.213.746.32.568.249.923.355a4.961,4.961,0,0,0,1.988.213,4.521,4.521,0,0,0,.923-.142.3.3,0,0,1,.355.213.335.335,0,0,1-.213.39l-.035.036h0Z" transform="translate(-1172 -1410)" fill="#3d708a"></path></g><g id="Group_55" data-name="Group 55" transform="translate(23.789 49.674)"><path id="Path_116" data-name="Path 116" d="M665.391,1400.1a3.811,3.811,0,0,0,.6.106,3.65,3.65,0,0,0,.6-.036,1.811,1.811,0,0,0,.6-.248,1.121,1.121,0,0,0,.213-.178c.071-.071.142-.107.177-.177a1.955,1.955,0,0,1,.32-.248c.178-.107.5-.178.5-.213a.3.3,0,0,1,.462,0,.124.124,0,0,1,.036.071l.071.106a.492.492,0,0,1,.071.249.921.921,0,0,1-.142.639,1.267,1.267,0,0,1-.639.568,1.994,1.994,0,0,1-.426.142,2.077,2.077,0,0,1-.462.071c-.6-.036-1.1,0-1.491-.036a.759.759,0,0,0-.6.106h0c-.177,0-.284-.284-.284-.462a.35.35,0,0,1,.32-.355c.036,0,.071-.071.071-.071Z" transform="translate(-665 -1399)" fill="#3d708a"></path></g><g id="Group_56" data-name="Group 56" transform="translate(4.758 38.023)"><path id="Path_117" data-name="Path 117" d="M130.917,1071.4l-.178.177a2.583,2.583,0,0,0-.391.533,2.894,2.894,0,0,0-.32.888,2.687,2.687,0,0,0-.036.533,2.1,2.1,0,0,0,.071.5,2.036,2.036,0,0,0,.142.5c.071.142.107.284.178.462.107.284.178.533.249.781a2.757,2.757,0,0,1,.178.888h0c0,.213-.036.391-.213.426h-.071a.624.624,0,0,1-.284-.106,1.629,1.629,0,0,1-.639-.533,2.7,2.7,0,0,1-.5-1.065,3.825,3.825,0,0,1-.107-.675,4.079,4.079,0,0,1,.035-.675c.036-.249.107-.462.142-.675.071-.213.142-.391.213-.6a4.845,4.845,0,0,1,.533-.959,6.3,6.3,0,0,1,.462-.6,2.158,2.158,0,0,1,.178-.213h0a.3.3,0,1,1,.462.391l-.036.036Z" transform="translate(-129 -1070.862)" fill="#3d708a"></path></g><g id="Group_57" data-name="Group 57" transform="translate(51.165 37.376)"><path id="Path_118" data-name="Path 118" d="M1437.811,1052.992a.274.274,0,0,0,.036.107v.284a1.7,1.7,0,0,1-.32.817,1.9,1.9,0,0,1-.639.568.964.964,0,0,1-.391.106.457.457,0,0,1-.462-.39l-.035-.32a2.47,2.47,0,0,1,.426-.781,1.614,1.614,0,0,1,.426-.426c.071-.071.142-.106.177-.142l.071-.071a.515.515,0,0,1,.71.142c.036.036.036.071.071.142Z" transform="translate(-1436 -1052.661)" fill="#3d708a"></path></g><g id="Group_58" data-name="Group 58" transform="translate(49.034 36.269)"><path id="Path_119" data-name="Path 119" d="M1378.308,1022a1.729,1.729,0,0,1-.142.391,2.06,2.06,0,0,1-.5.675,2.222,2.222,0,0,1-.71.462.963.963,0,0,1-.391.106.517.517,0,0,1-.568-.462.449.449,0,0,1,.036-.213h0s.071-.142.177-.32a2.367,2.367,0,0,1,.5-.568,3.135,3.135,0,0,1,.6-.426,1.249,1.249,0,0,1,.355-.142.456.456,0,0,1,.568.32.227.227,0,0,1,0,.213v.036Z" transform="translate(-1376 -1021.485)" fill="#3d708a"></path></g></g></g></g></svg> 