<?xml version="1.0" encoding="UTF-8"?> <svg xmlns="http://www.w3.org/2000/svg" width="150" height="94" viewBox="0 0 150 94"><g id="icon_menu" transform="translate(-439 -2059)"><rect id="Rectangle_369" data-name="Rectangle 369" width="150" height="94" transform="translate(439 2059)" fill="none"></rect><g id="Иконка_2" data-name="Иконка 2" transform="translate(470 2063)"><g id="_3039291225232" transform="translate(0 0)"><path id="Path_41" data-name="Path 41" d="M824.367,993.925a.7.7,0,0,1-1,.2c-.4-.366.2-1.031.632-.964a.191.191,0,0,0,.1-.366,1.181,1.181,0,0,0-1.363,1.729,1.222,1.222,0,0,0,2.161-.4c.033-.3-.333-.532-.532-.233Z" transform="translate(-795.2 -959.623)" fill="#3d708a"></path><path id="Path_42" data-name="Path 42" d="M771.51,933.749c-.333.366-.964.964-1.5.632-.632-.366.366-.8.665-.9.266-.1.266-.565-.067-.532a1.806,1.806,0,0,0-1.3.565.9.9,0,0,0,.033,1.164,1.307,1.307,0,0,0,1.164.4,2.417,2.417,0,0,0,1.3-1.064c.133-.2-.1-.465-.266-.266Z" transform="translate(-743.54 -901.841)" fill="#3d708a"></path><path id="Path_43" data-name="Path 43" d="M782.922,860.691c.266.1.432-.3.2-.465a1.076,1.076,0,0,0-1.563.7,1.045,1.045,0,0,0,1.33,1.164.221.221,0,0,0-.066-.432c-.333,0-.765-.266-.632-.665a.566.566,0,0,1,.732-.333Z" transform="translate(-755.55 -831.41)" fill="#3d708a"></path><path id="Path_44" data-name="Path 44" d="M1366.161,807.543a.316.316,0,0,0-.3.532c.333.366.466,1.164-.1,1.43a.788.788,0,0,1-.9-.266,1.151,1.151,0,0,1-.166-1.131c.066-.166-.2-.266-.3-.133-.1.166-.233.233-.3.4a1.06,1.06,0,0,0-.1.465,1.479,1.479,0,0,0,.333.865,1.581,1.581,0,0,0,1.729.565A1.494,1.494,0,0,0,1366.161,807.543Z" transform="translate(-1318.64 -780.59)" fill="#3d708a"></path><path id="Path_45" data-name="Path 45" d="M1408.492,729.209a2.086,2.086,0,0,0-2.062-.166.335.335,0,0,0,.066.6c.466.2,1.9-.233,1.8.7-.033.432-.632.4-.931.333a1.992,1.992,0,0,1-1.031-.632.191.191,0,0,0-.3.233,2.257,2.257,0,0,0,1.562,1.064,1.186,1.186,0,0,0,1.43-.7,1.4,1.4,0,0,0-.532-1.463Z" transform="translate(-1359.242 -704.516)" fill="#3d708a"></path><path id="Path_46" data-name="Path 46" d="M1405.855,669.1c-.066-.5-.9-.632-1.3-.565a1.327,1.327,0,0,0-1.163.9c-.067.166.033.3.2.366a.308.308,0,0,0,.066.4,1.419,1.419,0,0,0,1.364.067C1405.423,670.066,1405.921,669.6,1405.855,669.1Zm-1.9.632h-.033l.033-.033a.952.952,0,0,1,1.163-.366.861.861,0,0,1-1.163.432Z" transform="translate(-1356.705 -646.205)" fill="#3d708a"></path><path id="Path_47" data-name="Path 47" d="M632.732,1549.033c-.432-.133-.865.266-1,.632a.889.889,0,0,0,.3,1.1c.233.166.432-.167.266-.366a.4.4,0,0,1,0-.5c.033-.067.1-.1.166-.166.033,0,.033,0,.067-.033h0a.675.675,0,0,1-.067.931c-.2.166-.1.565.2.465a1.038,1.038,0,0,0,.7-1,1.177,1.177,0,0,0-.665-1.1Z" transform="translate(-610.647 -1497.408)" fill="#3d708a"></path><path id="Path_48" data-name="Path 48" d="M990.427,2031.353c-.565.2-.9.9-1.563.831-.233-.033-.5-.166-.465-.466.067-.432.565-.133.8,0s.5-.2.3-.365c-.4-.4-.964-.765-1.5-.366a1.088,1.088,0,0,0-.266,1.4c.7,1.2,2.693.433,3.059-.665a.33.33,0,0,0-.4-.4Z" transform="translate(-954.743 -1963.202)" fill="#3d708a"></path><path id="Path_49" data-name="Path 49" d="M1055.071,2065.421c-.765.266-.665,1.031-1.064,1.6-.366.532-.9-.166-.831-.6a2.894,2.894,0,0,1,.9-1.364c.166-.2-.066-.531-.3-.366a2.818,2.818,0,0,0-1.33,1.7,1.561,1.561,0,0,0,.7,1.529,1.065,1.065,0,0,0,1.43-.332c.365-.5.365-1.131.765-1.6.2-.233,0-.665-.333-.565Z" transform="translate(-1017.425 -1995.907)" fill="#3d708a"></path><path id="Path_50" data-name="Path 50" d="M1146.382,2086.249a.349.349,0,0,0-.565.332c.033.233-.133.665-.432.532-.333-.167-.2-.665,0-.832.233-.2-.067-.6-.333-.432a1.141,1.141,0,0,0,.166,1.962C1146.05,2088.11,1147.214,2086.914,1146.382,2086.249Z" transform="translate(-1106.509 -2016.368)" fill="#3d708a"></path><path id="Path_51" data-name="Path 51" d="M1270.595,1477.023a7.462,7.462,0,0,0-1.031-1.23,2.949,2.949,0,0,0-1.23-.9.3.3,0,0,0-.332.432c.2.4.7.7,1,1a5.108,5.108,0,0,1,.565.632,2.461,2.461,0,0,1-.7,0,3.488,3.488,0,0,1-.565-.133c-.166-.067-.731-.4-.4-.632.166-.133.033-.432-.166-.3a.765.765,0,0,0,0,1.33,3.436,3.436,0,0,0,2.627.365.362.362,0,0,0,.233-.532Z" transform="translate(-1225.202 -1425.763)" fill="#3d708a"></path><path id="Path_52" data-name="Path 52" d="M1298.942,1358.471a1.817,1.817,0,0,0,1.7-1.3.433.433,0,0,0-.166-.432c-.7-.366-2-.8-2.727-.3a.292.292,0,0,0,.066.532,3.773,3.773,0,0,0,1.064.033,3.554,3.554,0,0,1,.9.233,1.183,1.183,0,0,1-1.529.5c-.3-.133-.532.266-.266.432a1.209,1.209,0,0,0,.565.233,2.836,2.836,0,0,0-.831.1c-.266.133-.133.5.066.565.4.166,2.66.2,2.56.865-.067.366-1.1.266-1.4.233a3.112,3.112,0,0,1-1.33-.532c-.233-.133-.4.2-.2.366a3.821,3.821,0,0,0,2.228.831c.532.033,1.363-.067,1.53-.7.233-.964-1.131-1.529-2.261-1.7Z" transform="translate(-1254.18 -1311.036)" fill="#3d708a"></path><path id="Path_53" data-name="Path 53" d="M1812.9,1140.145a1.819,1.819,0,0,0-.4-.7,1.073,1.073,0,0,0-1.23-.432c-.7.266-.6,1.031-.3,1.629a4.548,4.548,0,0,0-.7-.5,1.669,1.669,0,0,0-1.629.1c-.1.1-.233.233-.166.4a1.4,1.4,0,0,0,1.663.9c.233-.066.166-.366-.066-.4a1.193,1.193,0,0,1-.8-.432,1.153,1.153,0,0,1,.964.233c.333.233.532.665.9.831a.254.254,0,0,0,.365-.3,1.363,1.363,0,0,0-.133-.333.2.2,0,0,0,.233-.266,2.568,2.568,0,0,1-.333-.831c-.033-.3.1-.565.432-.432.7.3.466,1.363,1.1,1.662a.292.292,0,0,0,.432-.332,4.231,4.231,0,0,0-.366-.8Z" transform="translate(-1748.323 -1100.989)" fill="#3d708a"></path><path id="Path_54" data-name="Path 54" d="M1783.327,1645.166c-.4.066-.532.565-.9.731a.467.467,0,0,1-.466,0c-.066-.067-.1-.3.034-.3a.3.3,0,0,0,0-.6c-.832,0-.965,1.164-.3,1.529a1.144,1.144,0,0,0,1.13-.033c.333-.166.865-.632.832-1.064A.3.3,0,0,0,1783.327,1645.166Z" transform="translate(-1722.04 -1590.216)" fill="#3d708a"></path><path id="Path_55" data-name="Path 55" d="M1785.8,1704.7a.448.448,0,0,0-.665-.1c-.333.432-.266,1.2-.964,1.33-.233.033-.532-.033-.6-.266a.5.5,0,0,1,.333-.632c.266-.033.4-.466.066-.532a1.131,1.131,0,0,0-.665.1c.033-.066.1-.1.133-.2.166-.3-.266-.7-.532-.4a1.234,1.234,0,0,1-1.463.333.991.991,0,0,1,1.3-.765.157.157,0,0,0,.167-.266,1.441,1.441,0,0,0-2.162,1.264c.067.532.865.731,1.3.7a1.565,1.565,0,0,0,.865-.266l-.1.2a1.2,1.2,0,0,0,.6,1.43,1.58,1.58,0,0,0,1.7-.2,1.68,1.68,0,0,0,.665-1.8Z" transform="translate(-1721.523 -1646.395)" fill="#3d708a"></path><g id="Group_20" data-name="Group 20" transform="translate(10.844 14.917)"><path id="Path_56" data-name="Path 56" d="M1654.884,1750h0C1654.817,1750.067,1654.851,1750.067,1654.884,1750Z" transform="translate(-1610.659 -1706.641)" fill="#3d708a"></path><path id="Path_57" data-name="Path 57" d="M393.647,480.446a11.3,11.3,0,0,0-3.192-1.529c-.1-.033-.133,0-.2.066a4.584,4.584,0,0,0-2.228-3.325c1.5-1.23,1.563-4.023-.5-4.289a3.177,3.177,0,0,0,.864-1.729,3.414,3.414,0,0,0-.066-1.3c1.7.864,3.392,1.829,5.054,2.76a.208.208,0,0,0,.2-.366,36.094,36.094,0,0,0-5.387-2.826,3,3,0,0,0-.831-1.2,4.364,4.364,0,0,0-1.929-.931,3.959,3.959,0,0,0-.532-4.322,3.682,3.682,0,0,0-2.959-1.264.726.726,0,0,1,.1-.166,2.836,2.836,0,0,0-3.957-3.757,4.176,4.176,0,0,0-.466-2.161,68.52,68.52,0,0,0,7.581,3.558c.333.133.565-.432.233-.6a71.515,71.515,0,0,0-8.08-3.791.209.209,0,0,0-.2,0,3.39,3.39,0,0,0-.931-.9,4.313,4.313,0,0,0-3.791-.2c-.333-2.195-2.527-4.489-5.154-3.358a2.4,2.4,0,0,0-4.356-1.031,3.4,3.4,0,0,0-3.957-1.629,3.04,3.04,0,0,0-1.53,3.791,3.38,3.38,0,0,0-1.23.532,2.68,2.68,0,0,0-1.629-2.028,2.176,2.176,0,0,0-2.361.6,4.3,4.3,0,0,0-5.453-.931,4.544,4.544,0,0,0-1.929,3.425v.466a2.731,2.731,0,0,0-1.164-.1,2.759,2.759,0,0,0-2.361,2.793c-1.762-.6-3.857-.233-4.589,1.8a2.665,2.665,0,0,0,1.7,3.392,9.886,9.886,0,0,0-.8,1.563c0-.033,0-.067-.033-.067a3.7,3.7,0,0,0-5.553-.9,2.462,2.462,0,0,0-.8,2.76,2.621,2.621,0,0,0,.765,1.031c-.067.066-.166.133-.2.2a3.575,3.575,0,0,0-1,2.993,2.517,2.517,0,0,0,1.8,1.962,2.43,2.43,0,0,0,1.1.066,3.372,3.372,0,0,0,.233,1.563,2.786,2.786,0,0,0,1,1.23,3.335,3.335,0,0,0-.732.632c-1.4-.865-3.292-1.3-4.622-.133a2.467,2.467,0,0,0-.665,2.394h-.166a3.486,3.486,0,0,0-2.527,2.228,3.073,3.073,0,0,0,.466,3.259,2.878,2.878,0,0,0,.765.632c-1.064,1.13-1.363,3.624.133,4.19a3.218,3.218,0,0,0-.4,3.591,3.171,3.171,0,0,0,3.591,1.5,2.884,2.884,0,0,0,2.56,2.893h.133a3.663,3.663,0,0,0,0,3.325,2.911,2.911,0,0,0,2.461,1.563,2.859,2.859,0,0,0,.532-.033c-.033.067-.033.133-.066.166a4.265,4.265,0,0,0,.565,3.358,3.288,3.288,0,0,0,2.627,1.5,3.126,3.126,0,0,0,1.9-.6,2.4,2.4,0,0,0,1.862,2.128,2.79,2.79,0,0,0,2.594-1,7.275,7.275,0,0,0,2.527,2.062,9.018,9.018,0,0,0,4.223.9,3.017,3.017,0,0,0,.033.765,2.6,2.6,0,0,0,.6,1.064,3.123,3.123,0,0,0,2.394,1.031,3.373,3.373,0,0,0,2.56-1.9c1.23,1.53,4.489,1.13,5.985.066a2.961,2.961,0,0,0,1.3-2.926,3.426,3.426,0,0,0-.5-1.33,3.055,3.055,0,0,0,3.026-1.629c.9,1.4,3.724,1.33,5.087.865a3.543,3.543,0,0,0,2.361-2.294,5.227,5.227,0,0,0,.133-.765,3.7,3.7,0,0,0,3.857-.4,3.375,3.375,0,0,0,1-2.128,6.143,6.143,0,0,0,.765.033,4.665,4.665,0,0,0,3.658-1.53c.1-.1.166-.233.266-.333a.3.3,0,0,0,.133.266,10.5,10.5,0,0,0,3.857,1.8.327.327,0,0,0,.166-.632,12.589,12.589,0,0,1-3.691-1.762.447.447,0,0,0-.266-.066,3.352,3.352,0,0,0,.266-2.66,3.152,3.152,0,0,0-.931-1.43,2.776,2.776,0,0,0,.565-.432,3.218,3.218,0,0,0,1-1.862,23.377,23.377,0,0,0,4.988,3.059c.466.2.865-.432.4-.665-1.762-.964-3.491-1.928-5.154-3.059a.22.22,0,0,0-.2-.033,3.8,3.8,0,0,0-.366-1.463,1.349,1.349,0,0,0,.3-.166,2.819,2.819,0,0,0,.865-3.79,2.776,2.776,0,0,0,3.059-2.195,3.512,3.512,0,0,0,.067-1.031v.033a11.314,11.314,0,0,0,3.125,1.663c.3.1.466-.333.2-.5Zm-21.214-27.1h0a2.869,2.869,0,0,1,3.125-.1,2.922,2.922,0,0,1,1.3,1.9,5.734,5.734,0,0,1-.3,2.261.469.469,0,0,0,.765.466,3.1,3.1,0,0,0,.432-.5,2.256,2.256,0,0,1,3.325.4,2.082,2.082,0,0,1-.033,1.929,2.36,2.36,0,0,1-.632.765,2.2,2.2,0,0,0-.732.5.423.423,0,0,0,.2.7,1.446,1.446,0,0,0,1.4-.466,3,3,0,0,1,2.826,1.13,2.827,2.827,0,0,1,.532,1.762,6.936,6.936,0,0,1-.432,1.629,1.883,1.883,0,0,0-1.929,1.33,6.4,6.4,0,0,0-3.558-1,3.009,3.009,0,0,0-.632-3.824,2.712,2.712,0,0,0-2.594-.4c-.033-1.3-1.3-2.128-2.66-2.461a2.688,2.688,0,0,0,.632-2.992,3.112,3.112,0,0,0-1.8-1.629,2.443,2.443,0,0,0,.765-1.363Zm11.305,17.789h0c-1.131-2.361-3.924-4.123-6.584-3.458A4.576,4.576,0,0,0,373.7,472.4a3.865,3.865,0,0,0-.6.133h0a.753.753,0,0,0-.033-.6,6.446,6.446,0,0,1,1.53-2.926,5.786,5.786,0,0,1,3.225-1.862c3.092-.565,5.553,1.563,6.55,4.289-.2.033-.432.033-.632.066A.464.464,0,0,0,383.739,471.135ZM376.29,472.5h0a6.452,6.452,0,0,0-2.128-.133,4.1,4.1,0,0,1,3.658-3.924,4.521,4.521,0,0,1,3.292.964,1.413,1.413,0,0,0-.366-.067.945.945,0,0,0-.6,1.7c.233.133.532-.2.3-.4a.31.31,0,0,1-.067-.432.36.36,0,0,1,.5-.066c.532.3.033.865.2,1.3a.336.336,0,0,0,.5.2c.5-.2.432-1.1.266-1.5-.033-.067-.067-.1-.1-.166a8.174,8.174,0,0,1,1.23,1.6h0c-2.261.233-4.522.532-6.75.931Zm1.928,1.8h0a.823.823,0,0,1-1.064.2,1.2,1.2,0,0,1-.432-1.33c.066,0,.1-.033.166-.033h.033a8.149,8.149,0,0,0,.9-.066,5.413,5.413,0,0,0,.432,1.23Zm-3.957-6.484h0c-.532-.366-1.064-.732-1.563-1.13.1-.133.233-.3.332-.432s.233-.3.333-.432c.067-.066.133-.166.2-.233.066-.166.133-.166.133-.033.233.1.5.565.665.765a10.248,10.248,0,0,0,.8.9,8.094,8.094,0,0,0-.831.665l-.033-.033Zm-15.129-20.649h0a1.909,1.909,0,0,1,1.929.067c.765.432.9,1.064,1.2,1.8.133.333.665.432.765,0a1.617,1.617,0,0,0,.033-.4c.964-1.629,3.458-1.164,3.259.964a.457.457,0,0,0,.7.4c2.328-1.5,4.655,1,4.456,2.793a3.153,3.153,0,0,0-.565.9c-.033.066,0,.1,0,.166a2.373,2.373,0,0,1-.765.4.534.534,0,0,0,.067,1.031,4.46,4.46,0,0,1,1.6.632,1.854,1.854,0,0,1-.765,3.225c-.565.166-.465,1.064.133,1.031,1.2-.033,3.89.432,2.959,2.361v.033a2.14,2.14,0,0,0-.266.3c-.266.366.332.8.632.465l.033-.033a.446.446,0,0,0,.5-.233l.1-.2a1.972,1.972,0,0,1,2.195.2,2.009,2.009,0,0,1,.133,2.76.514.514,0,0,0-.1.366,6.051,6.051,0,0,0-1.463.565c0-.033,0-.033-.033-.067a17,17,0,0,0-1.2-1.43c-.266-.3-.532-.7-.964-.765a.96.96,0,0,0-.9.432c-.432.5-.831,1.1-1.23,1.629a.484.484,0,0,0,.166.665,19.8,19.8,0,0,0,2,1.2,5.315,5.315,0,0,0-1.53,3.425l-.067.067c-.4.6-1.463-.1-1.928-.4a1.954,1.954,0,0,1-1-1.3.553.553,0,0,0-.366-1.031,3.306,3.306,0,0,1-1.4.066c-.931-.366-.166-1.629.166-2.161a8.8,8.8,0,0,1,1.4-1.762c.565-.166,1.43-.7,1.2-1.4a.43.43,0,0,0-.4-.3c-.432.033-.6.4-1,.6a1.592,1.592,0,0,1-1.3.067c-1.1-.4-1.164-1.862-.6-2.76a.16.16,0,0,0-.066-.233,7.4,7.4,0,0,0,1.363-7.182c-.732-1.862-3.624-4.821-5.985-4.023-.831.3-1.164,1.4-1.43,2.328a3.1,3.1,0,0,0-1.995-2.328,4.276,4.276,0,0,0-.632-.133,2.384,2.384,0,0,1,.964-2.76Zm6.052,25.969h0a2.107,2.107,0,0,1-1.563,2.494.461.461,0,0,0-.133.1,4.916,4.916,0,0,0-3.525-1.5c.066,0,.1-.033.166-.033a.422.422,0,0,0,0-.732c-.665-.333-1.264-.6-1.3-1.463a2.984,2.984,0,0,1,.565-1.729,1.376,1.376,0,0,0,.532-.9v-.1a.389.389,0,0,0-.565-.333c-.765.532-1.663.931-2.228-.166a2.316,2.316,0,0,1,.765-2.627,5.334,5.334,0,0,0,1.463-.1,2.35,2.35,0,0,0,4.223.233.5.5,0,0,0-.066-.565,21.672,21.672,0,0,0-1.829-1.663.358.358,0,0,0-.266-.067c0-.067.033-.133.033-.233a5.93,5.93,0,0,0,4.688-1.762,2.383,2.383,0,0,0,.8,2.926,2.3,2.3,0,0,0,.831.333,5.116,5.116,0,0,0-1.862,2.959c-.333,1.7,1.2,2.195,2.56,2.062a2.831,2.831,0,0,0,1.2,1.962c0,.067-.033.1-.033.166a1.448,1.448,0,0,1-1.962,1.463,3.933,3.933,0,0,1-1.7-1.23c-.332-.366-.9.033-.8.466Zm-9.776,23.109h0A2.127,2.127,0,0,1,358,497.8c.2,1.363-1.264,2.261-2.427,2.095h-.133c-1.064-.5-2.161-.964-3.192-1.463-.9-.4-1.762-.831-2.66-1.23a3.046,3.046,0,0,0,.033-3.757,3.712,3.712,0,0,0-2.627-1.3,3.468,3.468,0,0,0,.5-1.264,2.592,2.592,0,0,0,1.9.6c.432.8.6,1.8,1.33,2.361a1.756,1.756,0,0,0,1.829.266,1.376,1.376,0,0,0,.5-1.829,3.074,3.074,0,0,0-.9-1.064,2.155,2.155,0,0,1-.532-.565c-.066-.1-.133-.233-.2-.333a2.227,2.227,0,0,0,.3-.465,3.592,3.592,0,0,0,3.857,2.095,2.571,2.571,0,0,0,2.095-2.195.7.7,0,0,1,.2.133.365.365,0,0,0,0,.266c.2.5.632.831.831,1.363a2.572,2.572,0,0,1,.033,1.862,2.637,2.637,0,0,1-2.394,1.662,3.817,3.817,0,0,0-.632-.033,2.335,2.335,0,0,1-.465-.1.3.3,0,0,0-.366.3.575.575,0,0,0,.5,1Zm1,5.287h0a3.928,3.928,0,0,1-5.752,2.394,5.936,5.936,0,0,1-2.893-6.65,51.847,51.847,0,0,0,4.688,2.394C353.747,500.3,355.043,500.994,356.407,501.527Zm-6.417-10.141h0a3.01,3.01,0,0,0,.732-.366,2.328,2.328,0,0,0,.5.632c.3.3,1.463,1.064,1,1.6-.366.4-1.1-.067-1.33-.366a14.164,14.164,0,0,1-.9-1.53Zm7.614-2.494h0a1.739,1.739,0,0,0-.2-.532c-.166-.366-.6-.2-.732.1a.29.29,0,0,0-.133.465c-.366.7-.732,1.363-1.1,2.062a2.068,2.068,0,0,1-2.228-.8,3.987,3.987,0,0,1-1.2-2.195c-.133-.532-1.064-.432-1,.133a2.21,2.21,0,0,1-3.558,2.028,2.492,2.492,0,0,0-.233-.765,3.547,3.547,0,0,0-1.729-1.6,4.637,4.637,0,0,0,1.1-3.525,3.361,3.361,0,0,0,4.223-1.762,2.161,2.161,0,0,0-.565-2.394,2.46,2.46,0,0,0-.864-.5,2.414,2.414,0,0,0,.9-1.53,2.293,2.293,0,0,0-.1-1.164,3.34,3.34,0,0,0,2.793,1,3.177,3.177,0,0,0,2.028-1.43c.1.1.2.166.3.266a1.535,1.535,0,0,0,1.2.2,1.868,1.868,0,0,0,.4-.133c-.4,1.5-.732,3.026-1.031,4.555-.2,1.064-1.1,3.126-.532,4.19.4.765,1.7.731,2.394.765a8.392,8.392,0,0,0,2.76-.233.458.458,0,0,0,.067.565,3.245,3.245,0,0,1,1.1,1.33,1.447,1.447,0,0,1-1.164,1.7,3.871,3.871,0,0,1-2.959-.765Zm-26.268-3.026h0c-.166,0-.3.033-.466.033.532-3.126,2.793-5.586,6.185-5.52,3.159.067,4.821,2.361,5.387,5.121h-.665a.249.249,0,0,0,.033-.166c-.466-5.486-10.407-4.589-10.507.532Zm1-.4H332.1a4.008,4.008,0,0,1,.9-1.43,1.919,1.919,0,0,0,1.23,1.2.233.233,0,0,0,.166-.432,1.5,1.5,0,0,1-.7-.865,1.168,1.168,0,0,1,.931.133c.4.2.465.565.731.9a.317.317,0,0,0,.532-.133c.133-.632-.5-1.2-1-1.463a2,2,0,0,0-.765-.2,5.739,5.739,0,0,1,1.829-.665,4.231,4.231,0,0,1,3.591.731,1.1,1.1,0,0,0-1.263.133,1.391,1.391,0,0,0-.366.6,1.131,1.131,0,0,0-.033.332c.033.2.1.233.233.366.1.166.432.067.332-.133-.066-.166.133-.465.233-.565a.4.4,0,0,1,.5-.033.527.527,0,0,1,.033.5c-.067.2-.266.3-.366.465a.362.362,0,0,0,.233.532c.532.133.931-.466,1-.9a1.321,1.321,0,0,0-.366-1.2,5.343,5.343,0,0,1,1.5,2.128c0,.033.033.066.066.1-2.992,0-6.018,0-9.011.233l.133-.133c.067-.033.033-.166-.033-.166Zm-.3-4.19h0a3.264,3.264,0,0,0-.732-1.9,5.42,5.42,0,0,1,1.629-.665.5.5,0,0,0,.332-.5,2.421,2.421,0,0,0,1.1,1.662,8.45,8.45,0,0,0-2.328,1.43Zm9.742.166h0a6.646,6.646,0,0,0-1.164-.964,2.356,2.356,0,0,0,1.829-2.361,2.743,2.743,0,0,0,2.86-.565,2.555,2.555,0,0,0,.166-3.192,3.444,3.444,0,0,0,1.43-.6,2.614,2.614,0,0,0,1.064-2.394,2.585,2.585,0,0,0-1.829-2.095,3.98,3.98,0,0,0,.9-.931c.066-.1.1-.2.166-.3a2.859,2.859,0,0,0,5.32-1.995,2.435,2.435,0,0,0,1.2-.7,3.422,3.422,0,0,0,.665-1.031,4.56,4.56,0,0,0,2.693,1.729,2.713,2.713,0,0,0-.532,3.691,2.307,2.307,0,0,0,1.729.8,2.9,2.9,0,0,0-.4,2.095,2.436,2.436,0,0,0,1.23,1.563c-.4,0-.8,0-1.2.033a.537.537,0,0,0-.432.765c0,.033-.033.033-.033.066-.066.233-.133.432-.2.665-.033,0-.033-.033-.067-.033-.465-.067-.8.332-1.263.233a.713.713,0,0,1-.532-.565,1.246,1.246,0,0,0-.033-.333.421.421,0,0,1,.033-.2.308.308,0,0,0-.5-.3.381.381,0,0,0-.366.3c-.5,1.363-1.463,2.594-3.059,1.729a18.319,18.319,0,0,0-2.594-1.53.375.375,0,0,0-.366.1.472.472,0,0,0-.2.865,1.868,1.868,0,0,1-.5,3.558c-.333.067-.266.665.1.632.066,0,.1-.033.166-.033.033.1.066.166.166.2.432.2.931.133,1.33.465a1.185,1.185,0,0,1,.033,1.729,2.788,2.788,0,0,1-3.258.632c-.1-.166-.166-.333-.3-.532-.864-1.23-2.86-2.062-4.256-1.264ZM360.43,485h0c-1.164.4-3.259.7-3.857-.732,3.092,1,6.717-.632,6.983-4.123.233-2.727-2.594-5.919-5.453-4.589-.233.1-.133.5.133.5a4.851,4.851,0,0,1,3.126.465,3.665,3.665,0,0,1,1.5,3.99c-.665,2.826-3.591,3.957-6.218,3.325a.146.146,0,0,0-.166.033,9.454,9.454,0,0,1,.432-2.228c.366-2.128.8-4.256,1.13-6.417,2.461-.133,4.855.166,5.486,3.059C364.087,480.878,363.09,484.037,360.43,485Zm6.052-25.669h0c1.164-2.56,0-7.215-3.092-7.914a2.973,2.973,0,0,1,2.461,1.064c4.821,4.422-1.6,13.8-6.85,8.911a.488.488,0,0,0-.4-.133c.067-.133.1-.266.166-.4A4.685,4.685,0,0,0,366.481,459.332Zm-7.548,1.13h0c.632-1.529,1.23-3.059,1.829-4.589a22.9,22.9,0,0,1,1.2-3.292,3.258,3.258,0,0,1,.665-.8.356.356,0,0,0,.3.366c2.594.465,3.724,4.156,2.959,6.351A4.327,4.327,0,0,1,359,460.462c-.033-.033-.033-.033-.066-.033Zm2.261,4.323h0a10.332,10.332,0,0,0,1.363,1.33,1.7,1.7,0,0,1-2.56-.233,2.483,2.483,0,0,0,1.23-1.1Zm-23.043-7.116h0a1.141,1.141,0,0,1,.565-1.862,3.018,3.018,0,0,1,3.026.366c.5.3,1-.3.765-.765.1-.632.2-1.264.332-1.9a1.564,1.564,0,0,1,2.228-.2,2.513,2.513,0,0,1,1.363,2.228c.033.266.432.366.5.066a2.878,2.878,0,0,0,.066-1.064.173.173,0,0,0,.133.066c.033,0,.1.033.133.033s.067,0,.067-.033c.233-.3.166-.532.5-.765,1.031-.7,1.53.765,1.463,1.6a.461.461,0,0,0,.7.4,1.541,1.541,0,0,1,2.128.565c.6,1.164-.731,1.9-1.7,1.962a.45.45,0,0,0-.432.5h0c-.732.931,1,1.33.765,2.294-.166.732-1.031.9-1.663.7a3.058,3.058,0,0,1-1.53-1.629.5.5,0,0,0-.9.4,3.729,3.729,0,0,1,.133,1.6c-.067.632.9.6.964,0v-.033a2.385,2.385,0,0,0,3.092.366,1.832,1.832,0,0,0,.765-1.862,1.67,1.67,0,0,0-.466-.9c-.166-.166-.532-.333-.731-.532a2.419,2.419,0,0,0,2.727-2.926,2.461,2.461,0,0,0-2.959-1.6,2.065,2.065,0,0,0-1.6-1.962,1.493,1.493,0,0,0-1.7,1.33,3.158,3.158,0,0,0-1.263-1.729,11.689,11.689,0,0,1,.4-1.8,3.538,3.538,0,0,1,1.929-1.928,2.759,2.759,0,0,1,2.593.166,3.448,3.448,0,0,1,1.23,2.394c.066.4.665.366.765,0a2.727,2.727,0,0,0,.033-1.363,1.475,1.475,0,0,1,2.195-.2,1.815,1.815,0,0,1,.565,1.463c-.033.532-.332.964-.366,1.5-.033.266.332.432.532.3a1.942,1.942,0,0,0,.765-1.33,2.149,2.149,0,0,1,3.491,2.228.509.509,0,0,0,.466.665c-.8,2.261-1.563,4.522-2.228,6.816a.33.33,0,0,0,.233.4.494.494,0,0,0,.133.466,5.626,5.626,0,0,0,2.228,1.463c-.6,2.627-5.287,1.563-5.885-.831,0-.066-.033-.166-.033-.233,0-.1-.033-.2-.033-.333a.345.345,0,0,0-.133-.266c-.033-.067-.033-.133-.067-.166-.233-.5-1.064-.133-.865.366a2.555,2.555,0,0,1-.067,2.095,1.88,1.88,0,0,1-1.3,1.1,1.936,1.936,0,0,0-.5-.366.367.367,0,0,0-.5.5,2.38,2.38,0,0,1,.366,1.7,1.741,1.741,0,0,1-1.463,1.3,2.462,2.462,0,0,1-2.527-1.43,4.505,4.505,0,0,0-.565-2.095c-.831-1.6-1.663-3.258-2.56-4.821a11.87,11.87,0,0,0,1.862-1.2.575.575,0,0,0,0-.964,4.305,4.305,0,0,1-1.43-1.363.5.5,0,0,0-.8-.1c-.366.4-.765.831-1.131,1.264a.452.452,0,0,0-.731-.033,3.294,3.294,0,0,0-3.059,1.23c-.7-.067-1.031-.5-.931-1.33Zm6.85,6.318h0a5.576,5.576,0,0,1,.931,3.059c-2.261,1.031-5.453,1.2-5.985-1.928-.333-1.929.465-5.254,2.394-6.151C343.14,460.695,344.1,462.324,345,463.987Zm-1.663-5.486h0c.3-.266.6-.565.9-.831a4.808,4.808,0,0,0,.7.732,5.559,5.559,0,0,0-1.164.8C343.638,458.966,343.472,458.733,343.339,458.5Zm-5.154,4.655h0c.5-1.762,1.8-4.555,3.857-4.855v.033l.1.2c-2.594.8-3.591,5.087-2.893,7.415.831,2.66,3.624,3.092,5.952,2.328a3.014,3.014,0,0,1-.532.366,4.972,4.972,0,0,1-3.259.166,4.3,4.3,0,0,1-3.258-5.653Zm-1.729,12.735h0c-1.1-.066-2.128-.831-1.7-2.062a.3.3,0,0,0,.166-.366,2.389,2.389,0,0,1,.9-.831,1.769,1.769,0,0,0,2-.865.392.392,0,0,0-.532-.532,1.745,1.745,0,0,1-2.095-.033,2.069,2.069,0,0,1-.6-1,4.263,4.263,0,0,1-.133-.632v-.2a.281.281,0,0,1,0-.233c.033-.033.1-.067.133-.133.033,0,.066-.033.1-.033.1.133.366.067.3-.133a.424.424,0,0,0-.166-.233.4.4,0,0,0-.6-.432c-.865.465-1.929.5-2.394-.6a2.33,2.33,0,0,1,.133-1.762,6.093,6.093,0,0,1,.8-1.2,1.311,1.311,0,0,0,.8-.033.351.351,0,0,0,.233-.2.256.256,0,0,0,.033-.366l-.033-.033a.523.523,0,0,0-.233-.233c-.665-.266-1.463-.6-1.463-1.463,0-.831.864-1.463,1.563-1.662a3.513,3.513,0,0,1,3.458.964.256.256,0,0,0,.333.033,2.031,2.031,0,0,0-.166.4,5.044,5.044,0,0,0-.2.665l-.3-.1a5.627,5.627,0,0,1-1.031-.432.506.506,0,0,0-.732.3,6.773,6.773,0,0,0-.466,2.926.547.547,0,0,0,.532.532c.565,0,1.1,0,1.663-.033a.564.564,0,0,0,.233-.033,5.041,5.041,0,0,0,2.926,3.525,7.452,7.452,0,0,0,4.289.532.353.353,0,0,0,.266.033A1.977,1.977,0,0,1,347.1,471.2a1.664,1.664,0,0,1-.632,1.563c-.565.465-1.1.266-1.7.465a.881.881,0,0,0-.2.166.307.307,0,0,0-.2.565,1.886,1.886,0,0,1,.266,2.793,1.724,1.724,0,0,1-1.33.332,5.089,5.089,0,0,1-1.363-.632.341.341,0,0,0-.5.4,1.232,1.232,0,0,0,.266.6,1.626,1.626,0,0,1-1.929,1.862.435.435,0,0,0-.466.333,7.055,7.055,0,0,0-2.86-.432,1.945,1.945,0,0,0-.432.067.358.358,0,0,0-.333-.366,1.487,1.487,0,0,1-1.031-.4,1,1,0,0,1-.266-1.031,1.439,1.439,0,0,1,1.8-.6.2.2,0,0,0,.3-.233l.2-.1a.412.412,0,0,0-.2-.765Zm.4-10.773h-.233c-.333,0-.7-.033-1.031-.067a5.367,5.367,0,0,1,.233-1.629,4.259,4.259,0,0,0,1.1.366,5.984,5.984,0,0,0-.033,1.33Zm-5.42,25.171h0c.033-.033.067-.033.1-.067a.349.349,0,0,0-.266-.632,2.709,2.709,0,0,1-2.893-.6,2.27,2.27,0,0,1,.6-3.458.494.494,0,0,0-.366-.9c-1.13.2-1.263-2.161-.432-3.059a1.916,1.916,0,0,0,1.53-.166.4.4,0,0,0-.2-.732c-1.363-.067-2.693-.8-2.394-2.394a2.768,2.768,0,0,1,.964-1.629c.266-.233,1.064-.765,1.563-.632.066.033.1.066.166.066a.305.305,0,0,1,.133.2.121.121,0,0,0,.233,0v-.067h0c.3.033.6-.333.332-.565a1.423,1.423,0,0,1,.6-2.56,4.334,4.334,0,0,1,2.793.466,4.424,4.424,0,0,0-.166.632,2.775,2.775,0,0,0,.8,2.028,1.828,1.828,0,0,0-1.13,1.031,1.972,1.972,0,0,0-.1.9.462.462,0,0,0-.432-.4,4.323,4.323,0,0,0-2.627,1.164.522.522,0,0,0,0,.731,3.875,3.875,0,0,1,1.264,1.962.459.459,0,0,0,.1.133,4.264,4.264,0,0,0-1.064,4.389.418.418,0,0,0,.366.532h0a74.625,74.625,0,0,0,7.714.1.481.481,0,0,0,.033.366,2.1,2.1,0,0,1,0,2.427,1.336,1.336,0,0,1-2.128.4.512.512,0,0,0-.864.366c-.233,2.893-3.924,2.461-4.223-.1Zm13.466,13.2h0a1.5,1.5,0,0,1-1.164.432,1.809,1.809,0,0,1-1.6-1.929.255.255,0,0,0-.066-.166.354.354,0,0,0-.532-.332c-1.064.632-2.061,1.263-3.192.3a2.836,2.836,0,0,1-.964-1.829c-.066-.4-.166-2.494.765-2a.171.171,0,1,0,.166-.3,1.353,1.353,0,0,0-.3-.166,1.157,1.157,0,0,0,.233-.5.4.4,0,0,0-.665-.4c-.831.665-1.9,1.064-2.793.233a2.432,2.432,0,0,1-.665-1.762c0-.233.3-2.128.865-1.529.166.166.432-.067.3-.233a1.408,1.408,0,0,0-.166-.233,3.393,3.393,0,0,0,1.43-1.9,2.491,2.491,0,0,0,2.594-.432,3.206,3.206,0,0,0,.4-3.957c1.264-.033,2.527-.1,3.791-.133a.557.557,0,0,0,.2-1.064,5.236,5.236,0,0,0-.931-3.192,2.427,2.427,0,0,1,2.627,1.031c.9,1.33.4,3.059-.5,4.289a1.271,1.271,0,0,0-.6.3.36.36,0,0,0,.067.565,5.538,5.538,0,0,0,1.064.266,2.347,2.347,0,0,1,1.263,1.064,2.39,2.39,0,0,1-.5,2.527,1.264,1.264,0,0,0-.432.3.458.458,0,0,0,.332.765c1.064,0,1.962-.333,2.826.6a2.558,2.558,0,0,1,.233,2.893,10.535,10.535,0,0,0-1.629-.565.25.25,0,0,0-.3.133.16.16,0,0,0-.2-.066c-1.729.432-2.228,2.627-2.095,4.19a5.585,5.585,0,0,0,.7,2.328,3.9,3.9,0,0,0-.5.532Zm4.788,1.7h0a6.583,6.583,0,0,1-3.425-2.86c-.8-1.563-.9-4.356.7-5.486.033-.033.033-.066.067-.1.033.033.033.066.066.066.1.067.233.133.366.233-1.929,2.627.7,6.717,3.259,7.88s6.185-.166,6.55-3.092a.471.471,0,0,0,.2.067h.1c-.732,3.691-4.755,4.489-7.88,3.258Zm14.93-7.581h0a14.622,14.622,0,0,1,1.729.931,2.827,2.827,0,0,1,1,1.962,2.107,2.107,0,0,1-3.425,1.829.305.305,0,0,0-.5.266.472.472,0,0,0-.233.8c.5.5,1.031.865,1.164,1.629a1.908,1.908,0,0,1-1.164,2.128c-1.829,1.064-3.99.864-4.888-1.23-.066-.166-.233-.166-.366-.067a.461.461,0,0,0-.5.333,4.215,4.215,0,0,1-.665,1.762,1.78,1.78,0,0,1-2.095.432,2.226,2.226,0,0,1-1.164-1.563c2.594-.3,4.888-1.762,4.988-4.755a.491.491,0,0,0-.532-.466.433.433,0,0,0-.166-.432c-.266-.166-.565-.333-.831-.5a2.937,2.937,0,0,0,2.294-2.66A2.827,2.827,0,0,0,358,495.674a3.171,3.171,0,0,0,1.762-1.463,4.225,4.225,0,0,0,.033-3.591,2.977,2.977,0,0,0,2.261-.5c1.829-1.33.9-3.292-.7-4.256h-.033a6.4,6.4,0,0,0,1.031-.6,2.072,2.072,0,0,0,.964,2.062,2.1,2.1,0,0,0,1.729.133,3.369,3.369,0,0,0,5.919,3.159,6.594,6.594,0,0,0,1.7,3.225c0,.033-.033.033-.033.066-.2.5-.332.9-.964.9a3.621,3.621,0,0,1-1.7-.7c-.033,0-.033-.033-.067-.033s-.033-.033-.066-.033a.3.3,0,0,0-.4.067.405.405,0,0,0-.233.565,1.507,1.507,0,0,1-.632,2.062c-.964.5-2.228.066-3.192-.233a.264.264,0,0,0-.333.3.922.922,0,0,0-.3.033c-.4.066-.4.6-.1.8Zm20.449-8.712h0a2.72,2.72,0,0,1-1.4,1.463,1.365,1.365,0,0,0-.366-.033.591.591,0,0,0-.333.133.2.2,0,0,0-.266,0c-.3.333-.1.732.3.865a1.181,1.181,0,0,0,.332.066,2.342,2.342,0,0,1,1.2,1.263,2.489,2.489,0,0,1-.665,2.461,3.8,3.8,0,0,1-2.228,1.064,6.653,6.653,0,0,1-1.2.066,1.628,1.628,0,0,0-1.23-1.164.437.437,0,0,0-.5.6.292.292,0,0,0-.166.333,1.622,1.622,0,0,0,.8.831.971.971,0,0,1,.067.3,1.8,1.8,0,0,1-1.031,1.629,3.407,3.407,0,0,1-2.793,0,1.723,1.723,0,0,0-.931-1.164c-.432-.2-.931.233-.665.665.033.066.033.1.066.166a.208.208,0,0,0,.067.266c.033.033.066.066.1.066.5,1.4-.2,2.627-1.862,3.026-1.164.3-3.458.432-3.857-1.064h0a4.293,4.293,0,0,0-1.1-2.993,2.667,2.667,0,0,0,2.095-.5,2.8,2.8,0,0,0,1.064-1.862,2.281,2.281,0,0,0,1.8.333,2.054,2.054,0,0,0,1.363-1.2,2.373,2.373,0,0,0,.5.266,7.249,7.249,0,0,0,4.522.066c1-.233,3.159-.532,3.691-1.6.565-1.1-.732-2.427-1.264-3.325-.2-.333-.4-.665-.632-1.031a3.107,3.107,0,0,0,3.092-2.727,3.057,3.057,0,0,0,1.1.366,2.422,2.422,0,0,1,.432,2.261Zm-5.121,1.3h0a10.971,10.971,0,0,1,.865,1.5c-1.729,1.463-5.653.731-6.783-1.1-1.363-2.228.233-5.453,2.261-6.916,0,.033,0,.033.033.066h0c1.1,2.195,2.394,4.323,3.658,6.451Zm6.783-9.044h0c-.466-.2-.964.333-.565.732l.067.066a2.371,2.371,0,0,1-.033,3.259,1.882,1.882,0,0,1-.7.4c-.033-.033-.033-.067-.067-.067a.6.6,0,0,0-.9.033,2.165,2.165,0,0,1-1.164-1.4.438.438,0,0,0-.632-.233.242.242,0,0,0-.332.333,1.981,1.981,0,0,1,.133.266,2.171,2.171,0,0,0,.233.964,2.171,2.171,0,0,1-.732,1.829,2.366,2.366,0,0,1-1.363.565,2.2,2.2,0,0,0-.831.1c-.964-1.563-1.962-3.059-3.059-4.522-.033-.033-.033-.066-.066-.066.066-.033.166-.1.233-.133.133-.067,0-.233-.1-.166-1.762.831-3.059,1.662-3.791,3.558a4.827,4.827,0,0,0,.565,4.987c1.1,1.2,5.054,2.494,6.949,1.463a.4.4,0,0,1-.166.166c-.6.565-3.059.8-3.791.831-2.959.1-4.755-2.56-4.722-5.32a6.131,6.131,0,0,1,4.622-5.686.448.448,0,0,0-.233-.864,7.786,7.786,0,0,0-3.691,2.128,6.3,6.3,0,0,0-1.23-1.064c-.333-.266-.732-.7-1.2-.632s-.7.532-.9.9c-.366.632-.732,1.3-1.131,1.928a.519.519,0,0,0,.3.765,15.275,15.275,0,0,0,1.7.332,5.543,5.543,0,0,0,1.064-.066,8.568,8.568,0,0,0-.4,1.4,8.155,8.155,0,0,0-.067.931c-.1.1-.432.4-.565.532a.033.033,0,0,0,.033.033c.332-.266.366-.233.066.1a3.541,3.541,0,0,1-.3.366,2.979,2.979,0,0,1-.632.5,2.073,2.073,0,0,1-1.962.2c-1.43-.6-1.33-2.128-1-3.358a.493.493,0,0,0-.466-.632c-.033-.2-.2-.4-.432-.233a1.355,1.355,0,0,1-1.729.066c-.466-.4-.366-1-.632-1.5-.033-.1-.133-.133-.233-.166a7.379,7.379,0,0,0,1.563-7.382,4.421,4.421,0,0,0-.565-1.2,2.62,2.62,0,0,0,2.228-2.062,3.188,3.188,0,0,0,2.893.8,2.339,2.339,0,0,0,1.7-1.995,2.271,2.271,0,0,0,1.729.3h0a.409.409,0,0,0,.432.366c.7.033,1.43-.133,2.161-.166.333-.033.7-.033,1.031-.1a1.738,1.738,0,0,0,1.5,2.261,1.781,1.781,0,0,0,1.563-.732c.266-.366.166-.632.033-1.031l-.3-.8c.565-.033,1.1-.066,1.662-.133a.425.425,0,0,0-.066.4c.465,1.7.3,3.558-1.563,4.323a2.678,2.678,0,0,1-3.624-2.328.31.31,0,0,0-.466-.166c-.033-.033-.033-.067-.066-.067-.266-.332-.9.033-.732.432a1.64,1.64,0,0,1-1.031,2.195c-1.13.333-2.261-.466-3.026-1.164a.37.37,0,0,0-.6.3.536.536,0,0,0-.133.765c.366.466.765.732.8,1.4a1.9,1.9,0,0,1-.931,1.663c-1.064.7-3.059.8-3.591-.632a.221.221,0,0,0-.432.067c0,2.328,3.425,2.228,4.788,1.3a2.806,2.806,0,0,0,1.3-2.627.971.971,0,0,0-.067-.3,2.817,2.817,0,0,0,2.627.133,2.655,2.655,0,0,0,1.3-1.4,3.481,3.481,0,0,0,3.957,1.663,4.156,4.156,0,0,0,2.461-5.885c-.033-.033-.033-.067-.067-.1,1.263-.133,2.494-.266,3.757-.432a.462.462,0,0,0,.266-.732.562.562,0,0,0,.1-.432,6.56,6.56,0,0,0-2.56-3.857c.632-1.6,3.225-.831,4.09.066a2.151,2.151,0,0,1,.565,2.062c-.2.765-.7.964-1.164,1.53a.432.432,0,0,0,.3.732,1.2,1.2,0,0,0,.366-.067c.233.2.432.366.665.565.5,1.928.133,2.893-1.13,2.893-.565.066-.5.931,0,1.064a3.263,3.263,0,0,1,2.327,2.028c.632,1.53-.166,3.857-2.194,2.926ZM371.4,486.2h0c-.333-.133-.632-.3-.964-.4-.366-.1-.7-.2-1.031-.3.133-.266.3-.5.432-.732a3.928,3.928,0,0,1,.532-.964,6.3,6.3,0,0,1,1,.831,4.538,4.538,0,0,0,.7.5,7.736,7.736,0,0,0-.665,1.131Z" transform="translate(-325.947 -445.998)" fill="#3d708a"></path></g><path id="Path_58" data-name="Path 58" d="M116.528,266.69c-2.494-8.08-6.218-15.993-12.3-21.945-6.284-6.151-14.231-9.975-23.109-9.842-8.944.133-17.989,1.2-25.669,6.151a39.921,39.921,0,0,0-17.856,38.371c2.294,17.59,16.758,32.619,34.68,34.115a.605.605,0,0,0,.366.133c17.49,1.131,34.581-5.553,41.663-22.511,3.392-8.113,4.888-15.96,2.261-24.472Zm-1.164,16.359h0c-.033-.033-.033-.066-.066-.066-2.161-1.3-4.456-2.328-6.584-3.691-.532-.366-1.031.5-.5.865A25.449,25.449,0,0,0,115,283.714c.066.033.133,0,.2,0-.2.665-.366,1.33-.6,2a43.2,43.2,0,0,1-5.885,12.2,55.738,55.738,0,0,1-6.118-2.66c-.4-.2-.732.4-.366.6a36.327,36.327,0,0,0,6.052,2.66,31.176,31.176,0,0,1-8.878,8.146c-8.047,4.888-17.49,6.318-26.767,5.786a.562.562,0,0,0-.332.1c-14.663-2.66-27.232-11.9-31.821-26.534a38.364,38.364,0,0,1,11.172-40.133c6.584-5.819,14.3-8.313,22.976-8.978,3.99-.3,8.113-.665,12.07,0a29.335,29.335,0,0,1,11.538,5.021c7.049,4.855,11.837,11.937,14.929,19.817a53.5,53.5,0,0,1,2.993,9.776,26.324,26.324,0,0,1-.765,11.6Z" transform="translate(-36.022 -227.001)" fill="#3d708a"></path><path id="Path_59" data-name="Path 59" d="M1341.17,1948.768a3.878,3.878,0,0,0-2.228-1.2.521.521,0,0,0-.6.333c-.1.333-.233.666-.332,1.031-.033-.034-.067-.034-.1-.066-.166-.067-.3.133-.133.233a.458.458,0,0,1,.133.1,2.259,2.259,0,0,0-.1.632.476.476,0,0,0,.865.266,2.7,2.7,0,0,0,1.031,1,1.235,1.235,0,0,0,1.6-.565,1.813,1.813,0,0,0-.166-1.829Zm-.632,1.5h0c-.366.665-1.2-.066-1.529-.4l-.1-.1a6.624,6.624,0,0,0,.266-1.1c.8.233,1.862.732,1.363,1.63Z" transform="translate(-1293.217 -1882.712)" fill="#3d708a"></path><path id="Path_60" data-name="Path 60" d="M1062.16,1545.5c-.3-.9-1.3-1.1-1.829-1.762a.5.5,0,0,0-.832.232c-.166.6-.632,1.031-.8,1.6-.066.3.2.665.532.532h0c.432.532.9,1.031,1.33,1.563a.467.467,0,0,0,.765-.2c.1-.4.565-.6.765-.964a1.3,1.3,0,0,0,.1-1Zm-1.4,1.131h0c-.333-.333-.665-.632-1-.964a3.141,3.141,0,0,0,.465-.8,2.278,2.278,0,0,1,1,.831c.133.3-.166.6-.432.931Z" transform="translate(-1023.483 -1492.177)" fill="#3d708a"></path><path id="Path_61" data-name="Path 61" d="M724.41,1849.66a.573.573,0,0,0-.5-.4c-.4-.033-.865-.1-1.264-.133-.133-.6-.266-1.2-.432-1.8-.1-.5-.133-.765-.665-.865-1.064-.166-1.7.831-1.862,1.729-.133.865-.3,2.128.465,2.727a1.362,1.362,0,0,0,1.363.166,1.738,1.738,0,0,0,.067.831,1.624,1.624,0,0,0,1.43,1.263,1.681,1.681,0,0,0,1.563-1.1,3.253,3.253,0,0,0-.166-2.494Zm-2.993.731h0c-.266.366-.765,0-.9-.266a2.586,2.586,0,0,1-.133-1.13c.033-.6.2-1.8.964-1.729.133.665.233,1.33.4,1.995a.408.408,0,0,0,.066.665h0a3.431,3.431,0,0,0-.133.333A.3.3,0,0,0,721.417,1850.391Zm1.662,1.762h0c-.465.066-.765-.466-.8-.832a3.218,3.218,0,0,1,.166-1.13,10.273,10.273,0,0,0,1.064.133c.2.665.4,1.729-.4,1.862Z" transform="translate(-695.642 -1784.967)" fill="#3d708a"></path><path id="Path_62" data-name="Path 62" d="M720.135,1225.651a.472.472,0,0,0-.466.133,7.2,7.2,0,0,0-1.031,1.23.439.439,0,0,0,.3.631c.333.532.665,1.031.931,1.563a.447.447,0,0,0,.465.2,1.8,1.8,0,0,0,1.463-1.829,2.193,2.193,0,0,0-1.7-1.929Zm.266,2.826h0c-.3-.366-.6-.765-.865-1.13a4.29,4.29,0,0,0,.632-.7,1.193,1.193,0,0,1,.732.9A.941.941,0,0,1,720.4,1228.478Z" transform="translate(-694.693 -1184.799)" fill="#3d708a"></path><path id="Path_63" data-name="Path 63" d="M1096.463,1131.85a.377.377,0,0,0-.4.233.34.34,0,0,0-.266.166,4.78,4.78,0,0,0-.8,2.76.461.461,0,0,0,.233.4,2.025,2.025,0,0,0,2.693-1.1A1.9,1.9,0,0,0,1096.463,1131.85Zm.532,2.161h0a1.01,1.01,0,0,1-1.064.632,3.866,3.866,0,0,1,.4-1.829c.432.266.831.632.665,1.23Z" transform="translate(-1058.584 -1094.123)" fill="#3d708a"></path><path id="Path_64" data-name="Path 64" d="M1163.076,678.437a1.378,1.378,0,0,1-.233-.366c-.1-.233.033-.466,0-.731a1.013,1.013,0,0,0-.4-.732c-.466-.333-1.064.033-1.5-.233a.393.393,0,0,0-.466.033c-.1-.333-.7-.3-.632.1.1,1.131.332,2.261.532,3.392a.478.478,0,0,0,.332.333,2.084,2.084,0,0,0,2.194-.2,1.262,1.262,0,0,0,.166-1.629Zm-.864.931h0c-.2.266-.632.166-.964.066-.166-.665-.3-1.33-.5-1.995a.628.628,0,0,0,.266.066,2.491,2.491,0,0,0,.5,0h.2q.249-.05.1.2a2.366,2.366,0,0,0,.233,1.064c.133.2.333.366.133.632Z" transform="translate(-1121.274 -653.611)" fill="#3d708a"></path><path id="Path_65" data-name="Path 65" d="M1993.237,1365.005c-.532-.233-1.064-.465-1.6-.732a.291.291,0,0,0-.432-.1l-.033.033a.674.674,0,0,0-.4.4,10.963,10.963,0,0,0-1.463,2.195.558.558,0,0,0,.066.6c1.563,1.663,4.256.166,4.123-1.962a.531.531,0,0,0-.266-.465Zm-1.6,1.929h0a1.359,1.359,0,0,1-1.33-.1,7.653,7.653,0,0,1,.8-1.662l1.3.6a1.385,1.385,0,0,1-.765,1.131Z" transform="translate(-1923.105 -1318.667)" fill="#3d708a"></path><path id="Path_66" data-name="Path 66" d="M19.013,1786.836c-3.724-4.389-6.65-8.479-7.781-14.3a.119.119,0,0,0-.233.033c.233,5.486,2.727,11.737,7.548,14.863C18.947,1787.667,19.279,1787.135,19.013,1786.836Z" transform="translate(-10.628 -1713.432)" fill="#3d708a"></path><path id="Path_67" data-name="Path 67" d="M11.294,2048.558a32.539,32.539,0,0,1-6.384-4.688c-1.264-1.33-5.22-5.919-4.223-7.98a.305.305,0,0,0-.532-.3c-1.3,2.128,1.463,5.885,2.693,7.515a17.644,17.644,0,0,0,8.047,6.318c.532.2.831-.6.366-.9Z" transform="translate(0.184 -1967.672)" fill="#3d708a"></path><path id="Path_68" data-name="Path 68" d="M1111.3,76.122c-5.819-3.392-13.932-3.99-19.718-.3-.266.166-.033.5.233.4,6.816-2.993,12.469-1.53,19.252.465A.308.308,0,0,0,1111.3,76.122Z" transform="translate(-1055.169 -70.781)" fill="#3d708a"></path><path id="Path_69" data-name="Path 69" d="M1369.658,2.293a27.725,27.725,0,0,0-16.725-4.888.316.316,0,0,0,0,.632,42.864,42.864,0,0,1,16.293,5.021A.439.439,0,0,0,1369.658,2.293Z" transform="translate(-1307.64 2.615)" fill="#3d708a"></path><path id="Path_70" data-name="Path 70" d="M2473.265,1114.1a.242.242,0,0,0-.466.133c.665,3.026.632,6.118,1.164,9.144.066.3.565.3.6,0C2474.994,1120.38,2474.129,1116.955,2473.265,1114.1Z" transform="translate(-2390.564 -1076.801)" fill="#3d708a"></path><path id="Path_71" data-name="Path 71" d="M2488.787,1193.462a.3.3,0,0,0-.565.166c1.23,5.785-1.53,11.6-3.724,16.792-.267.6.565,1.13.9.532,2.76-4.788,5.453-12.037,3.358-17.49Z" transform="translate(-2401.831 -1153.508)" fill="#3d708a"></path><path id="Path_72" data-name="Path 72" d="M1871.729,2291.351c-3.125,2.76-5.553,6.019-9.144,8.28a.231.231,0,0,0,.233.4,29.7,29.7,0,0,0,9.509-8.213C1872.593,2291.451,1872.028,2291.086,1871.729,2291.351Z" transform="translate(-1800.533 -2214.988)" fill="#3d708a"></path><path id="Path_73" data-name="Path 73" d="M1984.966,2296.891c-2.66,3.026-4.988,5.786-8.579,7.813-.365.2-.033.765.333.566,3.491-1.6,7.249-4.29,8.911-7.847C1985.83,2297.024,1985.3,2296.492,1984.966,2296.891Z" transform="translate(-1910.511 -2220.295)" fill="#3d708a"></path><path id="Path_74" data-name="Path 74" d="M881.508,2390.266c-2.693-1.962-5.586-3.658-8.446-5.354-.266-.166-.532.266-.266.433,2.76,1.861,5.52,3.757,8.446,5.353.3.166.5-.232.233-.432Z" transform="translate(-843.663 -2305.49)" fill="#3d708a"></path><path id="Path_75" data-name="Path 75" d="M961.995,2338.532c-3.026-1.962-6.085-3.825-9.177-5.687a.231.231,0,1,0-.233.4c3.026,1.962,6.052,3.891,9.144,5.719A.254.254,0,0,0,961.995,2338.532Z" transform="translate(-920.791 -2255.151)" fill="#3d708a"></path><path id="Path_76" data-name="Path 76" d="M1142.688,2343.466c-3.325-1.763-6.617-3.558-9.809-5.553a.254.254,0,0,0-.266.432,59.025,59.025,0,0,0,9.743,5.653C1142.722,2344.164,1143.054,2343.632,1142.688,2343.466Z" transform="translate(-1094.835 -2260.053)" fill="#3d708a"></path><path id="Path_77" data-name="Path 77" d="M1340.4,2358.221a51.654,51.654,0,0,1-7.681-3.823c-.366-.233-.7.332-.333.565a32.971,32.971,0,0,0,7.847,3.824c.366.133.532-.432.166-.6Z" transform="translate(-1287.925 -2275.972)" fill="#3d708a"></path><path id="Path_78" data-name="Path 78" d="M1514.123,2304.219c-2.327-1.131-4.622-2.294-6.916-3.491a.352.352,0,0,0-.366.6,34.85,34.85,0,0,0,6.949,3.691C1514.256,2305.216,1514.588,2304.418,1514.123,2304.219Z" transform="translate(-1456.593 -2224.097)" fill="#3d708a"></path><path id="Path_79" data-name="Path 79" d="M1673.193,2222.632c-2.76-1.4-5.52-2.793-8.146-4.355-.466-.267-.865.432-.432.731a51.709,51.709,0,0,0,8.346,4.222c.333.133.565-.432.233-.565Z" transform="translate(-1609.08 -2144.374)" fill="#3d708a"></path><path id="Path_80" data-name="Path 80" d="M1864.925,2143.694a33.226,33.226,0,0,1-5.918-3.292c-.366-.233-.8.332-.466.6a18.513,18.513,0,0,0,6.184,3.425C1865.191,2144.591,1865.357,2143.893,1864.925,2143.694Z" transform="translate(-1796.622 -2069.092)" fill="#3d708a"></path><path id="Path_81" data-name="Path 81" d="M2235.073,1269.078a30.7,30.7,0,0,1-4.622-2.161.268.268,0,0,0-.266.465,24.805,24.805,0,0,0,4.722,2.295C2235.273,1269.809,2235.44,1269.211,2235.073,1269.078Z" transform="translate(-2155.898 -1224.668)" fill="#3d708a"></path><path id="Path_82" data-name="Path 82" d="M2088.842,883c-1.9-1.064-3.89-2.028-5.819-3.026-.3-.166-.6.3-.266.466,1.9,1.064,3.791,2.195,5.719,3.192C2088.908,883.83,2089.274,883.232,2088.842,883Z" transform="translate(-2013.358 -850.592)" fill="#3d708a"></path><path id="Path_83" data-name="Path 83" d="M1685.66,472.293c-3.923-1.729-7.913-3.292-11.837-5.021-.332-.133-.6.3-.266.466a59.528,59.528,0,0,0,11.87,5.121C1685.76,472.958,1685.993,472.426,1685.66,472.293Z" transform="translate(-1617.757 -451.624)" fill="#3d708a"></path></g></g></g></svg> 