<?xml version="1.0" encoding="UTF-8"?> <svg xmlns="http://www.w3.org/2000/svg" width="150" height="94" viewBox="0 0 150 94"><g id="icon_master" transform="translate(-960 -2634)"><rect id="Rectangle_369" data-name="Rectangle 369" width="150" height="94" transform="translate(960 2634)" fill="none"></rect><g id="Group_597" data-name="Group 597" transform="translate(-122.554 2578.889)"><path id="Path_8929" data-name="Path 8929" d="M1212.118,152.918a5.678,5.678,0,0,1-.808-2.35.024.024,0,0,0-.047,0c-.416,1.6.637,3.866,2.481,3.942a.2.2,0,0,0,.12-.357A5.662,5.662,0,0,1,1212.118,152.918Z" transform="translate(-49.281 -46.523)" fill="#3d708a"></path><path id="Path_8930" data-name="Path 8930" d="M1196.611,63.771a.836.836,0,0,0-.757-.659c-3.727.136-7.079,2.074-10.09,4.119-3.3,2.239-6.3,4.864-9.457,7.292a55.552,55.552,0,0,0-9.624,9.3c-2.953,3.68-5.815,7.5-8.542,11.343a.416.416,0,0,0,0,.494c-1.33,2.721-2.474,5.531-3.815,8.251a27.511,27.511,0,0,1-4.784,7.371c-3.112-1.012-6.615.362-9.061,2.331-2.957,2.381-5.04,5.764-6.953,8.988a107.6,107.6,0,0,1-5.854,9.653c-1.506,2.021-3.705,4.09-6.431,3.331a13.108,13.108,0,0,1-2.322-.854.27.27,0,0,0-.306.419,7.534,7.534,0,0,0,1.684,1.37c-.122-.037-.241-.077-.363-.112-.085-.025-.185.074-.111.152,2.557,2.719,7.016,3.858,10.633,4.019a23.425,23.425,0,0,0,11.552-2.514,20.831,20.831,0,0,0,8.552-8.008c1.851-3.162,3.4-7.825,2.628-11.586a.763.763,0,0,0,.228-.129c5.059-4.211,9.846-8.859,15.954-11.547.015-.007.006-.028-.009-.025-.5.075-.983.179-1.464.3a.145.145,0,0,0-.109-.113,4.466,4.466,0,0,1-1.619-.692,5.735,5.735,0,0,1-1.51-1.925.049.049,0,0,0-.087.044c.5,1.1,1.429,2.555,2.731,2.848a21.966,21.966,0,0,0-5.661,2.692.2.2,0,0,0-.03-.015c-1.761-.478-2.294-1.869-2.413-3.58-.01-.139-.237-.118-.241.017-.046,1.538.367,3.775,2.138,3.939-1.036.7-2.042,1.454-3.021,2.24a.248.248,0,0,0-.025-.082c-.209-.388-.61-.613-.893-.952a2.887,2.887,0,0,1-.591-2,.243.243,0,0,0-.485-.032,3.673,3.673,0,0,0,.329,2.044,2.274,2.274,0,0,0,1.309,1.311c-.892.726-1.763,1.471-2.617,2.21a1.817,1.817,0,0,1-.721-.373,2.845,2.845,0,0,1-.668-2.05.146.146,0,0,0-.292-.018,3.368,3.368,0,0,0,.475,2.319,2.494,2.494,0,0,0,.664.592l-1.089.945a3.051,3.051,0,0,1-2.046-.567,4.134,4.134,0,0,1-1.057-1.34c-.2-.371-.459-.692-.641-1.065l.018,0a.985.985,0,0,0,1.07-1.167,28.793,28.793,0,0,0,4.4-7.065,45.383,45.383,0,0,0,3.453-9.369.436.436,0,0,0,.167-.1c3.143-3.013,5.623-6.672,8.367-10.04a52.2,52.2,0,0,1,9.455-9.4c2.984-2.179,5.753-4.64,8.737-6.822,2.813-2.057,6.195-4.349,9.78-4.693a16,16,0,0,1,.438,4.924.252.252,0,0,0-.044.045,37.172,37.172,0,0,0-2.182,4.367c-.806,1.609-1.694,3.175-2.625,4.716a88.843,88.843,0,0,1-6.542,9.557c-.385.482-.781.961-1.18,1.435-4.175,3.812-8.707,7.293-12.729,11.255-.275.168-.551.335-.831.5a.366.366,0,0,0-.054-.108,7.636,7.636,0,0,0-.956-1q1.127-1.268,2.317-2.479a1.6,1.6,0,0,0,1.033.061.3.3,0,0,0,.158-.481,1.711,1.711,0,0,0-.409-.367q1.06-1.054,2.149-2.079a2.954,2.954,0,0,0,1.847.48c.307-.034.3-.419.11-.574a11.168,11.168,0,0,0-1.06-.745c1.3-1.2,2.613-2.393,3.923-3.583a1.6,1.6,0,0,0,1.225-.255.32.32,0,0,0-.037-.5,1.664,1.664,0,0,0-.215-.131c1.131-1.035,2.255-2.075,3.353-3.134.181-.175.359-.352.539-.529a2.386,2.386,0,0,0,1.236-.116.27.27,0,0,0,.032-.517,2.836,2.836,0,0,1-.415-.219c1.325-1.342,2.6-2.737,3.783-4.2a1.069,1.069,0,0,0,.792-.193.292.292,0,0,0,.065-.35,1.025,1.025,0,0,0-.2-.28c.491-.633.968-1.275,1.424-1.935.3-.438.607-.9.909-1.367.013.007.024.019.037.026a.3.3,0,0,0,.452-.224,1.468,1.468,0,0,0-.079-.456,20.2,20.2,0,0,0,3.29-8.7.294.294,0,0,0-.569-.113c-.844,1.793-1.394,3.709-2.219,5.516-.343.748-.723,1.477-1.13,2.193a12.111,12.111,0,0,1-.706-1.289,7.067,7.067,0,0,0,.979-3.027c0-.172-.229-.333-.366-.177a36.153,36.153,0,0,0-2.521,4.119,36.227,36.227,0,0,1-2.291,3.085,5.409,5.409,0,0,1-.411-1.686c-.033-.358-.616-.308-.626.043a5.611,5.611,0,0,0,.426,2.373c-.187.218-.372.439-.562.653-1.02,1.157-2.124,2.231-3.244,3.29a.42.42,0,0,0-.454.429c-1.171,1.1-2.35,2.188-3.465,3.343q-.5.518-1,1.038a6.4,6.4,0,0,1-.132-1.559.341.341,0,0,0-.68-.045,5.5,5.5,0,0,0,.059,2.392c-1.082,1.131-2.167,2.259-3.276,3.362a6.836,6.836,0,0,1-.083-1.534c.005-.138-.176-.254-.284-.138a2.581,2.581,0,0,0-.518,2.541c-.5.488-1.015.972-1.534,1.446q-.516.47-1.045.928a12.21,12.21,0,0,1-.984-3.074.123.123,0,0,0-.241.017,7.073,7.073,0,0,0,.517,3.663c-.659.552-1.334,1.085-2.03,1.587-.083.061-.182.121-.285.182a14.4,14.4,0,0,1-.55-2.365.294.294,0,0,0-.578.04,11.572,11.572,0,0,0,.327,2.817,1.759,1.759,0,0,0-.465.443,1.2,1.2,0,0,0-.079.533,2.1,2.1,0,0,1-.688,1.375,21.375,21.375,0,0,0-4.256-4.358.466.466,0,0,0-.666.6,33.255,33.255,0,0,0,3.921,5.471c1.335,1.692,2.846,4.149,4.892,5.036a.87.87,0,0,0,.849-.175c.5-.376.277-.912-.038-1.357a56.608,56.608,0,0,1,5.149-5.073,42.3,42.3,0,0,0,9.3-8.141c1.665-1.517,3.3-3.071,4.853-4.7C1194.055,81.017,1199.269,72.82,1196.611,63.771Zm-47.6,65.512a17.57,17.57,0,0,1-1.9,2.647,29.942,29.942,0,0,0,3.051-5.225q.26-.557.5-1.13A18.648,18.648,0,0,1,1149.013,129.283Zm3-11.79a.687.687,0,0,0-.262.406c-.024.126-.039.254-.059.381a.254.254,0,0,0-.273.144c-.422,1.059-.975,2.054-1.377,3.119-.479,1.267-.914,2.549-1.445,3.8a27.4,27.4,0,0,1-4.282,6.9,15.829,15.829,0,0,1-6.359,4.68,16.47,16.47,0,0,1-8.607.517c-.144-.025-.175.176-.058.233a12.349,12.349,0,0,0,3.714,1.159q-1.026.077-2.056.06a24.505,24.505,0,0,1-5.609-.7c-.934-.238-1.843-.558-2.748-.886a5.377,5.377,0,0,0,3.421-.78c2.817-1.686,4.688-4.739,6.384-7.454,2.093-3.354,3.85-6.893,6.208-10.081,1.95-2.637,4.478-5.244,7.885-5.686a11.147,11.147,0,0,1,2.631.093.835.835,0,0,0,.183.035,6.348,6.348,0,0,0,0,.981,2.473,2.473,0,0,0,.207.559.975.975,0,0,0-.335.07c-4.2,1.7-6.809,5.539-9.107,9.256a31.347,31.347,0,0,1-4.038,5.561,13.437,13.437,0,0,1-3.668,2.529,77.106,77.106,0,0,1,6.044-9.116,35.87,35.87,0,0,1,4.74-5.04c1.721-1.465,3.659-2.211,5.581-3.309a.612.612,0,0,0-.344-1.157c-2.069.064-4.063,1.545-5.641,2.776a30.943,30.943,0,0,0-5.048,5.207,39.607,39.607,0,0,0-6.226,11.09c-.644.324-1.3.654-1.941,1.031a.3.3,0,0,0,.086.557c4.669.583,8.668-4.1,11.055-7.486,2.594-3.681,4.62-8.055,8.882-10.042a39.306,39.306,0,0,0-3.076,5.608,53.21,53.21,0,0,1-4.41,7.183,17.313,17.313,0,0,1-5.872,5.242,11.364,11.364,0,0,1-3.619,1.158,22.188,22.188,0,0,1-4.3-.149c-.088-.005-.162.124-.069.174,5.034,2.8,10.6-.531,13.966-4.28a41.752,41.752,0,0,0,5.021-7.365,38.192,38.192,0,0,0,3.778-7.569c.006,0,.013.012.02.017A3.86,3.86,0,0,0,1152.009,117.492Zm37.178-41.978c.156-.258.322-.529.487-.809a5.217,5.217,0,0,0,.233.652c.105.241.227.514.373.775-.4.66-.827,1.309-1.266,1.944-.417.6-.857,1.19-1.309,1.769a5.2,5.2,0,0,1-.991-.73c-.018-.017-.034-.037-.052-.055A29.825,29.825,0,0,0,1189.187,75.514Zm-3.292,4.446c.031-.035.059-.071.089-.106a4.126,4.126,0,0,0,1.015.872c-1.183,1.434-2.455,2.8-3.771,4.113-.081-.044-.16-.09-.238-.142a2.432,2.432,0,0,1-.823-1C1183.451,82.491,1184.721,81.276,1185.895,79.96Zm-7.5,7.351c.983-1.011,2.01-1.974,3.039-2.934a3.742,3.742,0,0,0,.734,1.038,2.569,2.569,0,0,0,.256.221q-.53.519-1.067,1.029c-.994.947-2,1.879-3.006,2.809a2.157,2.157,0,0,1-1-.516,2.413,2.413,0,0,1-.259-.3Q1177.745,87.983,1178.4,87.311Zm-2.012,2.086c.062.086.128.171.2.254a3.253,3.253,0,0,0,.847.674c-1.217,1.127-2.425,2.258-3.6,3.415a3.689,3.689,0,0,1-.714-.761c-.037-.055-.067-.11-.1-.167C1174.158,91.7,1175.274,90.551,1176.384,89.4Zm-5.8,5.657c.542-.47,1.07-.956,1.593-1.448a5.071,5.071,0,0,0,.8.97q-1.1,1.1-2.142,2.253l-.1-.055a3.608,3.608,0,0,1-1.046-.967Q1170.146,95.438,1170.587,95.055ZM1166.558,98a22.442,22.442,0,0,0,2.363-1.587,5.329,5.329,0,0,0,1.191,1.231q-1.056,1.209-2.032,2.5a6.919,6.919,0,0,1-1.4-1.561c-.1-.16-.183-.328-.266-.5Zm-2.509,2.071a8.826,8.826,0,0,0,.94-.974,2.794,2.794,0,0,1,.534-.494,5.863,5.863,0,0,0,1.731,2.663q-.477.678-.928,1.381c-.311-.318-.619-.637-.916-.966C1164.95,101.172,1164.5,100.627,1164.049,100.072Zm3.552,3.886c-.358-.38-.728-.752-1.095-1.126q.531-.67,1.083-1.322a3.528,3.528,0,0,0,1.177.485c-.625.343-1.257.674-1.9.98a.073.073,0,0,0,.048.136c.671-.155,1.331-.345,1.979-.564Q1168.232,103.24,1167.6,103.958Zm23.765-23.294c.194-.343.387-.686.574-1.032.878-1.636,1.684-3.311,2.432-5.01.226-.511.46-1.03.682-1.554A24.765,24.765,0,0,1,1191.366,80.664Z" transform="translate(0 0)" fill="#3d708a"></path></g></g></svg> 