<?xml version="1.0" encoding="UTF-8"?> <svg xmlns="http://www.w3.org/2000/svg" width="310" height="268.855" viewBox="0 0 310 268.855"><path id="Union_11" data-name="Union 11" d="M163.194,268.855c-.031-.29-.062-.525-.094-.706a4.178,4.178,0,0,0-.132-.537,1.277,1.277,0,0,0-.2-.411,1.208,1.208,0,0,0-.738-.424,3.474,3.474,0,0,0-.609-.046h-3.782a2.74,2.74,0,0,0-.713.078,1.4,1.4,0,0,0-.47.213.952.952,0,0,0-.3.415,2.989,2.989,0,0,0-.178.586q-.062.308-.12.832h-.305a6.669,6.669,0,0,0,.04-.823,15.275,15.275,0,0,0-.091-1.568h.239q1.25,0,1.826-2.156a24.942,24.942,0,0,0,.571-4.423c.013-.212.032-.525.058-.939,0-.091.009-.158.013-.2,0-.065.006-.153.006-.266a.841.841,0,0,0-.213-.68,1.628,1.628,0,0,0-.868-.194v-.266q.558.039,1.367.039c.133,0,.33-.006.589-.02s.452-.019.577-.019c.221,0,.527.006.92.019s.719.02.977.02q1.018,0,1.58-.039v.266a2.272,2.272,0,0,0-.689.1.519.519,0,0,0-.3.31,2.179,2.179,0,0,0-.087.725v6.581a1.466,1.466,0,0,0,.2.929,1.26,1.26,0,0,0,.878.211h.409a15.024,15.024,0,0,0-.091,1.568,6.7,6.7,0,0,0,.039.823Zm-3.957-11.234a2.167,2.167,0,0,0-.256.042.365.365,0,0,0-.184.1,1.118,1.118,0,0,0-.12.136.546.546,0,0,0-.078.213c-.019.1-.034.19-.045.272s-.025.2-.042.363q-.032.382-.081,1.031t-.084,1.137q-.036.489-.1,1.136t-.146,1.147q-.077.5-.21,1.046a6.743,6.743,0,0,1-.3.949,3.71,3.71,0,0,1-.411.744,1.982,1.982,0,0,1-.545.531h3.128a1.259,1.259,0,0,0,.871-.207,1.467,1.467,0,0,0,.2-.932v-6.581a1.467,1.467,0,0,0-.2-.932,1.264,1.264,0,0,0-.871-.207h-.175A3.177,3.177,0,0,0,159.237,257.621ZM126.3,265.639a5.1,5.1,0,0,1-1.143-3.527,5.976,5.976,0,0,1,.537-2.594,4.143,4.143,0,0,1,1.5-1.749,3.937,3.937,0,0,1,2.182-.618,3.6,3.6,0,0,1,1.35.227,4.689,4.689,0,0,1,1.092.634.423.423,0,0,0,.259.117q.271,0,.337-.79h.3q-.051.861-.052,3.05h-.3a9.1,9.1,0,0,0-.266-1.24,2.339,2.339,0,0,0-.4-.722,2.485,2.485,0,0,0-1.017-.778,3.384,3.384,0,0,0-1.327-.259,2.368,2.368,0,0,0-2.085,1.264,6.412,6.412,0,0,0-.784,3.406,5.883,5.883,0,0,0,.839,3.378,2.53,2.53,0,0,0,2.16,1.214,3.428,3.428,0,0,0,1.289-.253,2.114,2.114,0,0,0,.978-.758,2.328,2.328,0,0,0,.388-.787,9.9,9.9,0,0,0,.227-1.311h.3q0,2.286.052,3.186h-.3a2.2,2.2,0,0,0-.107-.6c-.049-.123-.122-.185-.217-.185a.539.539,0,0,0-.272.11,5.914,5.914,0,0,1-1.143.641,3.486,3.486,0,0,1-1.312.22A3.9,3.9,0,0,1,126.3,265.639Zm-14.961,1.068a.713.713,0,0,1-.259-.586.683.683,0,0,1,.2-.512.7.7,0,0,1,.506-.193.713.713,0,0,1,.482.165.581.581,0,0,1,.191.464.655.655,0,0,1-.356.6.191.191,0,0,0,.078.013.881.881,0,0,0,.621-.256,2.589,2.589,0,0,0,.518-.768l.363-.738-3.556-6.529a2.2,2.2,0,0,0-.424-.6.544.544,0,0,0-.347-.149v-.278q.512.039,1.166.039,1.289,0,1.859-.039v.278q-.933,0-.933.512a.986.986,0,0,0,.137.46l2.7,5.038,2.086-4.177a2.844,2.844,0,0,0,.363-1.14.558.558,0,0,0-.292-.534,2,2,0,0,0-.881-.172v-.266q.757.039,1.528.039.6,0,.991-.039v.266a1,1,0,0,0-.515.334,4.009,4.009,0,0,0-.541.845l-2.908,5.79-.531,1.068a3.273,3.273,0,0,1-.582.887,1.343,1.343,0,0,1-.992.389A1.033,1.033,0,0,1,111.34,266.708Zm95.217-.016q-1.133,0-1.7.039v-.266a2,2,0,0,0,.722-.122.375.375,0,0,0,.217-.37,1.829,1.829,0,0,0-.155-.621l-.816-2.176h-3.2l-.544,1.4a3.148,3.148,0,0,0-.266,1.088.66.66,0,0,0,.282.6,1.7,1.7,0,0,0,.871.194v.266q-.759-.038-1.529-.039c-.4,0-.727.013-.991.039v-.266q.661-.148,1.043-1.153l3.121-8.037h.214l3.232,8.342q.324.822.92.848v.266Q207.439,266.693,206.557,266.692Zm-4.831-3.782h3.005l-1.483-3.957Zm-13.656,3.8q-.5-.02-.985-.02-1.01,0-1.567.039v-.266a2.244,2.244,0,0,0,.689-.1.516.516,0,0,0,.3-.31,2.179,2.179,0,0,0,.087-.725v-6.581a2.179,2.179,0,0,0-.087-.725.519.519,0,0,0-.3-.31,2.272,2.272,0,0,0-.689-.1v-.266q1.3.039,3.847.039,1.671,0,2.377-.039a13.833,13.833,0,0,0-.1,1.567,6.752,6.752,0,0,0,.04.823h-.305c-.039-.346-.077-.62-.116-.825a2.727,2.727,0,0,0-.176-.58.92.92,0,0,0-.3-.4,1.415,1.415,0,0,0-.469-.2,2.951,2.951,0,0,0-.709-.071H188.9a1.332,1.332,0,0,0-.88.194,1.391,1.391,0,0,0-.194.906v2.423q.259,0,.686-.01c.285-.006.464-.01.538-.01a3.364,3.364,0,0,1,2.373.761,2.629,2.629,0,0,1,.819,2.024,3.382,3.382,0,0,1-.068.683,2.88,2.88,0,0,1-.22.647,1.949,1.949,0,0,1-.424.58,3.06,3.06,0,0,1-.644.464,3.267,3.267,0,0,1-.916.314,6.1,6.1,0,0,1-1.211.11C188.636,266.73,188.407,266.724,188.07,266.711Zm-.246-5.3v3.912a1.728,1.728,0,0,0,.162.926c.107.142.352.213.732.213a2.924,2.924,0,0,0,.926-.132,1.789,1.789,0,0,0,.634-.35,1.589,1.589,0,0,0,.385-.551,2.783,2.783,0,0,0,.2-.686,5.213,5.213,0,0,0,.055-.8,2.9,2.9,0,0,0-.531-1.94,2.283,2.283,0,0,0-1.794-.606C188.5,261.4,188.239,261.4,187.825,261.413Zm-14.158,5.3c-.343-.013-.626-.02-.845-.02q-1.141,0-1.7.039v-.266a2.251,2.251,0,0,0,.69-.1.516.516,0,0,0,.3-.31,2.179,2.179,0,0,0,.087-.725v-6.581a2.179,2.179,0,0,0-.087-.725.519.519,0,0,0-.3-.31,2.279,2.279,0,0,0-.69-.1v-.266q.551.039,1.7.039,1.257,0,1.949-.039v.266a5.091,5.091,0,0,0-.683.055.9.9,0,0,0-.4.168.577.577,0,0,0-.211.334,2.687,2.687,0,0,0-.049.582v2.423q.259,0,.687-.01c.285-.006.464-.01.537-.01a3.475,3.475,0,0,1,2.374.725,2.442,2.442,0,0,1,.819,1.923,3.434,3.434,0,0,1-.094.8,2.64,2.64,0,0,1-.344.784,2.608,2.608,0,0,1-.631.686,3.106,3.106,0,0,1-1,.476,4.95,4.95,0,0,1-1.412.185Q174.182,266.73,173.667,266.711Zm-.237-5.3v3.912a1.689,1.689,0,0,0,.166.936q.165.2.767.2a2.742,2.742,0,0,0,.907-.136,1.732,1.732,0,0,0,.625-.359,1.676,1.676,0,0,0,.382-.557,2.664,2.664,0,0,0,.2-.683,5.3,5.3,0,0,0,.052-.784,2.986,2.986,0,0,0-.515-1.917,2.062,2.062,0,0,0-1.687-.628Q174.027,261.4,173.43,261.413Zm-26.074,5.279q-1.134,0-1.7.039v-.266a2,2,0,0,0,.723-.122.376.376,0,0,0,.217-.37,1.834,1.834,0,0,0-.156-.621l-.816-2.176h-3.2l-.544,1.4a3.148,3.148,0,0,0-.266,1.088.66.66,0,0,0,.282.6,1.7,1.7,0,0,0,.871.194v.266c-.5-.025-1.015-.039-1.528-.039-.4,0-.728.013-.991.039v-.266q.66-.148,1.042-1.153l3.122-8.037h.213l3.232,8.342q.324.822.92.848v.266Q148.237,266.693,147.356,266.692Zm-4.832-3.782h3.005l-1.482-3.957Zm154.411-22.082a9.619,9.619,0,0,1-2.155-6.646,11.259,11.259,0,0,1,1.013-4.889,7.793,7.793,0,0,1,2.82-3.3,8,8,0,0,1,9.882,1.245,9.62,9.62,0,0,1,2.155,6.646,11.256,11.256,0,0,1-1.013,4.889,7.807,7.807,0,0,1-2.82,3.3,7.426,7.426,0,0,1-4.114,1.166A7.352,7.352,0,0,1,296.935,240.828ZM299.8,226.4a7.086,7.086,0,0,0-1.88,3.113,14.676,14.676,0,0,0-.653,4.571,11.284,11.284,0,0,0,1.581,6.305,4.633,4.633,0,0,0,3.948,2.4,4.056,4.056,0,0,0,2.821-1.117,7.106,7.106,0,0,0,1.873-3.113,14.677,14.677,0,0,0,.653-4.571,11.284,11.284,0,0,0-1.58-6.305,4.627,4.627,0,0,0-3.937-2.4A4.073,4.073,0,0,0,299.8,226.4Zm-50.043,16.26a3.986,3.986,0,0,1-1.019-2.13l-.7-3.089q-.123-.549-.208-.854t-.232-.733a2.974,2.974,0,0,0-.3-.659,4.161,4.161,0,0,0-.4-.507,1.661,1.661,0,0,0-.556-.41,3.859,3.859,0,0,0-.732-.226,4.682,4.682,0,0,0-.965-.091h-1.66v6.274a4.08,4.08,0,0,0,.166,1.367.974.974,0,0,0,.561.586,4.275,4.275,0,0,0,1.3.2v.5q-1.147-.074-3.174-.074-2.148,0-3.2.074v-.5a4.263,4.263,0,0,0,1.3-.2.973.973,0,0,0,.562-.586,4.109,4.109,0,0,0,.165-1.367v-12.4a4.112,4.112,0,0,0-.165-1.367.973.973,0,0,0-.562-.586,4.263,4.263,0,0,0-1.3-.2v-.5q1.037.073,3.2.073,2.026,0,3.174-.073v.5a4.275,4.275,0,0,0-1.3.2.974.974,0,0,0-.561.586,4.084,4.084,0,0,0-.166,1.367v5.652a3.643,3.643,0,0,0,2.955-1.453l2.4-3.052a4.813,4.813,0,0,0,1.269-2.393q0-.867-1.55-.9v-.5q1.428.073,2.881.073,1.366,0,2.124-.073v.5a4.576,4.576,0,0,0-2.955,1.819L245.41,233.5a8.538,8.538,0,0,1,1.7.22,5.543,5.543,0,0,1,1.428.574,3.456,3.456,0,0,1,1.16,1.1,5.091,5.091,0,0,1,.707,1.721l.721,3.149a7.6,7.6,0,0,0,.507,1.63.754.754,0,0,0,.714.421,1.086,1.086,0,0,0,.7-.213,4.807,4.807,0,0,0,.684-.739l.378.281a4.792,4.792,0,0,1-1.141,1.209,2.665,2.665,0,0,1-1.532.391A2.448,2.448,0,0,1,249.762,242.66Zm-24.084-.324a2.115,2.115,0,0,1-1.172-1.77,1.3,1.3,0,0,1,.373-.958,1.28,1.28,0,0,1,.946-.373,1.388,1.388,0,0,1,.988.366,1.288,1.288,0,0,1,.391.989,1.238,1.238,0,0,1-.287.841,1.328,1.328,0,0,1-.763.428,2.351,2.351,0,0,0,1.246.665,7.216,7.216,0,0,0,2.05.287,4.1,4.1,0,0,0,3.235-1.22,4.685,4.685,0,0,0,1.087-3.235,5.056,5.056,0,0,0-1.038-3.284,3.7,3.7,0,0,0-2.905-1.343,2.277,2.277,0,0,1-1.075.329q-.525,0-.525-.427a.347.347,0,0,1,.147-.293.614.614,0,0,1,.378-.11,6.321,6.321,0,0,1,1.1.158,4.061,4.061,0,0,0,2.3-1.617,5.558,5.558,0,0,0,.653-2.911,4.485,4.485,0,0,0-.653-2.661,2.462,2.462,0,0,0-2.129-.891,3.425,3.425,0,0,0-1.667.41,3.489,3.489,0,0,0-1.227,1.1,5.884,5.884,0,0,0-.744,1.532,7.292,7.292,0,0,0-.329,1.752h-.574q0-3.5-.134-5.09h.573a3.615,3.615,0,0,0,.214.848.387.387,0,0,0,.372.25,1.871,1.871,0,0,0,.818-.354c.032-.016.121-.071.263-.165a3.368,3.368,0,0,1,.311-.189l.323-.165a2.083,2.083,0,0,1,.409-.165l.452-.122a3.226,3.226,0,0,1,.58-.1q.311-.024.665-.024a5.9,5.9,0,0,1,3.607,1.013,3.233,3.233,0,0,1,1.361,2.734,3.785,3.785,0,0,1-.318,1.532,4.288,4.288,0,0,1-.824,1.257,6.442,6.442,0,0,1-1.191.971,8.807,8.807,0,0,1-1.355.72,9.125,9.125,0,0,1-1.38.452,8.559,8.559,0,0,1,2.161.323,7.385,7.385,0,0,1,1.922.849,4.239,4.239,0,0,1,1.4,1.44,3.818,3.818,0,0,1,.531,1.99,4.333,4.333,0,0,1-.568,2.2,4.7,4.7,0,0,1-1.532,1.617,7.839,7.839,0,0,1-2.191.97,9.579,9.579,0,0,1-2.581.342A6.979,6.979,0,0,1,225.678,242.336Zm-34.906.482a1.418,1.418,0,0,1-.665-1.288,1.34,1.34,0,0,1,.415-1.031,1.5,1.5,0,0,1,1.062-.384,1.375,1.375,0,0,1,.91.3.988.988,0,0,1,.36.8,1.38,1.38,0,0,1-.257.861,2.817,2.817,0,0,1-.818.665,5.955,5.955,0,0,0,.6.024q2.331,0,3.418-4.041a47.991,47.991,0,0,0,1.086-8.508q.036-.586.146-2.38c.016-.277.025-.464.025-.562a1.463,1.463,0,0,0-.416-1.233,3.222,3.222,0,0,0-1.635-.354v-.5q1.062.073,2.576.073.378,0,1.111-.037t1.086-.036q.622,0,1.74.036t1.837.037q1.941,0,2.979-.073v.5a4.275,4.275,0,0,0-1.3.2.973.973,0,0,0-.562.586,4.112,4.112,0,0,0-.165,1.367v12.4a4.109,4.109,0,0,0,.165,1.367.973.973,0,0,0,.562.586,4.275,4.275,0,0,0,1.3.2v.5q-1.038-.074-3.2-.074-2.38,0-3.674.074v-.5a9.385,9.385,0,0,0,1.287-.1,1.675,1.675,0,0,0,.751-.318,1.081,1.081,0,0,0,.4-.628,5.066,5.066,0,0,0,.092-1.1v-12.4a2.756,2.756,0,0,0-.373-1.751,2.368,2.368,0,0,0-1.653-.4h-.33q-.451,0-.751.031a1.528,1.528,0,0,0-.525.14,1.192,1.192,0,0,0-.342.231,1.038,1.038,0,0,0-.2.41,3.7,3.7,0,0,0-.122.555q-.036.269-.085.781-.061.7-.14,1.85t-.134,2.02q-.055.867-.165,2.039t-.232,2.063q-.123.891-.329,1.922a15.642,15.642,0,0,1-.458,1.788,11.491,11.491,0,0,1-.617,1.5,4.806,4.806,0,0,1-.812,1.2,3.516,3.516,0,0,1-1.038.744,2.992,2.992,0,0,1-1.3.281A2.94,2.94,0,0,1,190.772,242.818Zm-30.553-1.99a9.619,9.619,0,0,1-2.155-6.646,11.259,11.259,0,0,1,1.012-4.889A7.8,7.8,0,0,1,161.9,226a7.415,7.415,0,0,1,4.113-1.166,6.789,6.789,0,0,1,2.545.427,8.831,8.831,0,0,1,2.057,1.2.8.8,0,0,0,.488.22q.513,0,.635-1.489h.573q-.1,1.623-.1,5.749h-.574a17.222,17.222,0,0,0-.5-2.337,4.42,4.42,0,0,0-.757-1.362,4.676,4.676,0,0,0-1.916-1.464,6.379,6.379,0,0,0-2.5-.489,4.465,4.465,0,0,0-3.93,2.38,12.1,12.1,0,0,0-1.477,6.421,11.084,11.084,0,0,0,1.58,6.367,4.769,4.769,0,0,0,4.071,2.289,6.473,6.473,0,0,0,2.43-.476,3.988,3.988,0,0,0,1.843-1.428,4.393,4.393,0,0,0,.732-1.483,19.022,19.022,0,0,0,.428-2.472h.574q0,4.309.1,6.007h-.573a4.177,4.177,0,0,0-.2-1.13q-.14-.348-.41-.348a1.031,1.031,0,0,0-.512.208,11.18,11.18,0,0,1-2.155,1.209,6.567,6.567,0,0,1-2.472.415A7.352,7.352,0,0,1,160.219,240.828Zm-31.506,0a9.619,9.619,0,0,1-2.155-6.646,11.246,11.246,0,0,1,1.013-4.889,7.793,7.793,0,0,1,2.82-3.3,8,8,0,0,1,9.882,1.245,9.62,9.62,0,0,1,2.155,6.646,11.256,11.256,0,0,1-1.013,4.889,7.807,7.807,0,0,1-2.82,3.3,7.426,7.426,0,0,1-4.114,1.166A7.352,7.352,0,0,1,128.713,240.828Zm2.868-14.429a7.085,7.085,0,0,0-1.879,3.113,14.676,14.676,0,0,0-.653,4.571,11.284,11.284,0,0,0,1.581,6.305,4.633,4.633,0,0,0,3.948,2.4,4.052,4.052,0,0,0,2.82-1.117,7.1,7.1,0,0,0,1.874-3.113,14.677,14.677,0,0,0,.653-4.571,11.284,11.284,0,0,0-1.58-6.305,4.627,4.627,0,0,0-3.937-2.4A4.077,4.077,0,0,0,131.581,226.4ZM94.3,240.828a9.619,9.619,0,0,1-2.155-6.646,11.259,11.259,0,0,1,1.013-4.889,7.8,7.8,0,0,1,2.82-3.3,8,8,0,0,1,9.882,1.245,9.62,9.62,0,0,1,2.155,6.646A11.243,11.243,0,0,1,107,238.777a7.8,7.8,0,0,1-2.82,3.3,8,8,0,0,1-9.881-1.246ZM97.17,226.4a7.086,7.086,0,0,0-1.88,3.113,14.677,14.677,0,0,0-.652,4.571,11.284,11.284,0,0,0,1.58,6.305,4.634,4.634,0,0,0,3.949,2.4,4.054,4.054,0,0,0,2.82-1.117,7.115,7.115,0,0,0,1.874-3.113,14.677,14.677,0,0,0,.653-4.571,11.284,11.284,0,0,0-1.58-6.305,4.627,4.627,0,0,0-3.937-2.4A4.075,4.075,0,0,0,97.17,226.4ZM60.7,240.828a9.619,9.619,0,0,1-2.155-6.646,11.246,11.246,0,0,1,1.013-4.889,7.793,7.793,0,0,1,2.82-3.3,8,8,0,0,1,9.882,1.245,9.62,9.62,0,0,1,2.155,6.646,11.256,11.256,0,0,1-1.013,4.889,7.807,7.807,0,0,1-2.82,3.3,7.426,7.426,0,0,1-4.114,1.166A7.352,7.352,0,0,1,60.7,240.828ZM63.564,226.4a7.085,7.085,0,0,0-1.879,3.113,14.676,14.676,0,0,0-.653,4.571,11.284,11.284,0,0,0,1.581,6.305,4.633,4.633,0,0,0,3.948,2.4,4.052,4.052,0,0,0,2.82-1.117,7.1,7.1,0,0,0,1.874-3.113,14.676,14.676,0,0,0,.653-4.571,11.284,11.284,0,0,0-1.58-6.305,4.627,4.627,0,0,0-3.937-2.4A4.077,4.077,0,0,0,63.564,226.4ZM45.328,243.007l-6.3-16.223v13.2a2.971,2.971,0,0,0,.421,1.88,2.654,2.654,0,0,0,1.85.525v.5q-.9-.074-2.552-.074-1.489,0-2.319.074v-.5a2.187,2.187,0,0,0,1.642-.531,3.2,3.2,0,0,0,.384-1.874V227.834a4.112,4.112,0,0,0-.165-1.367.973.973,0,0,0-.562-.586,4.27,4.27,0,0,0-1.3-.2v-.5q.818.073,2.319.073,1.319,0,2.137-.073l5.494,14.5,5.37-14.429h1.184q2,0,3.174-.073v.5a4.27,4.27,0,0,0-1.3.2.973.973,0,0,0-.562.586,4.112,4.112,0,0,0-.165,1.367v12.4a4.109,4.109,0,0,0,.165,1.367.973.973,0,0,0,.562.586,4.27,4.27,0,0,0,1.3.2v.5q-1.173-.074-3.174-.074-2.148,0-3.2.074v-.5a6.048,6.048,0,0,0,1.038-.1,1.2,1.2,0,0,0,.6-.323,1.142,1.142,0,0,0,.311-.629,6.745,6.745,0,0,0,.067-1.093V226.858l-6.017,16.15Zm243.82-.2q-2,0-3.173.074v-.5a4.268,4.268,0,0,0,1.3-.2.973.973,0,0,0,.562-.586,4.109,4.109,0,0,0,.165-1.367V234.23h-8.13v6.006a4.109,4.109,0,0,0,.165,1.367.973.973,0,0,0,.562.586,4.268,4.268,0,0,0,1.3.2v.5q-1.148-.074-3.173-.074-2.149,0-3.2.074v-.5a4.275,4.275,0,0,0,1.3-.2.973.973,0,0,0,.562-.586,4.11,4.11,0,0,0,.165-1.367v-12.4a4.113,4.113,0,0,0-.165-1.367.973.973,0,0,0-.562-.586,4.275,4.275,0,0,0-1.3-.2v-.5q1.038.073,3.2.073,2.026,0,3.173-.073v.5a4.268,4.268,0,0,0-1.3.2.973.973,0,0,0-.562.586,4.112,4.112,0,0,0-.165,1.367v5.9H288v-5.9a4.112,4.112,0,0,0-.165-1.367.973.973,0,0,0-.562-.586,4.268,4.268,0,0,0-1.3-.2v-.5q1.172.073,3.173.073,2.148,0,3.2-.073v.5a4.275,4.275,0,0,0-1.3.2.973.973,0,0,0-.562.586,4.112,4.112,0,0,0-.165,1.367v12.4a4.109,4.109,0,0,0,.165,1.367.973.973,0,0,0,.562.586,4.275,4.275,0,0,0,1.3.2v.5Q291.3,242.811,289.148,242.812Zm-19.171,0q-2,0-3.173.074v-.5a4.268,4.268,0,0,0,1.3-.2.973.973,0,0,0,.562-.586,4.109,4.109,0,0,0,.165-1.367V228.407l-8.63,12.208a4.593,4.593,0,0,0,.091.744,1.66,1.66,0,0,0,.19.494.754.754,0,0,0,.372.306,2.5,2.5,0,0,0,.556.152,7.792,7.792,0,0,0,.817.073v.5q-1.148-.074-3.173-.074-2.149,0-3.2.074v-.5a4.275,4.275,0,0,0,1.3-.2.973.973,0,0,0,.562-.586,4.109,4.109,0,0,0,.165-1.367v-12.4a4.112,4.112,0,0,0-.165-1.367.973.973,0,0,0-.562-.586,4.275,4.275,0,0,0-1.3-.2v-.5q1.038.073,3.2.073,2.026,0,3.173-.073v.5a4.268,4.268,0,0,0-1.3.2.973.973,0,0,0-.562.586,4.112,4.112,0,0,0-.165,1.367v11.84l8.617-12.231a1.882,1.882,0,0,0-.42-1.386,3.007,3.007,0,0,0-1.593-.372v-.5q1.172.073,3.173.073,2.16,0,3.2-.073v.5a4.275,4.275,0,0,0-1.3.2.973.973,0,0,0-.562.586,4.112,4.112,0,0,0-.165,1.367v12.4a4.109,4.109,0,0,0,.165,1.367.973.973,0,0,0,.562.586,4.275,4.275,0,0,0,1.3.2v.5Q272.137,242.811,269.977,242.812Zm-49.126,0q-2.136,0-3.2.074v-.5a3.766,3.766,0,0,0,1.362-.231.705.705,0,0,0,.409-.7,3.453,3.453,0,0,0-.292-1.172l-1.538-4.1H211.56l-1.025,2.649a5.941,5.941,0,0,0-.5,2.051,1.249,1.249,0,0,0,.531,1.136,3.231,3.231,0,0,0,1.642.365v.5q-1.428-.074-2.881-.074-1.123,0-1.868.074v-.5q1.245-.281,1.966-2.173l5.883-15.149h.4l6.091,15.723q.61,1.55,1.733,1.6v.5Q222.51,242.811,220.85,242.812Zm-9.106-7.129h5.664l-2.8-7.458Zm-24.34,7.129q-2.136,0-3.2.074v-.5a3.766,3.766,0,0,0,1.362-.231.705.705,0,0,0,.409-.7,3.453,3.453,0,0,0-.292-1.172l-1.538-4.1h-6.031l-1.025,2.649a5.941,5.941,0,0,0-.5,2.051,1.247,1.247,0,0,0,.531,1.136,3.231,3.231,0,0,0,1.642.365v.5q-1.428-.074-2.881-.074-1.123,0-1.868.074v-.5q1.245-.281,1.966-2.173l5.883-15.149h.4l6.091,15.723q.61,1.55,1.733,1.6v.5Q189.063,242.811,187.4,242.812Zm-9.106-7.129h5.664l-2.8-7.458Zm-62.109,7.166q-1.453-.036-2.636-.037-2.051,0-3.1.074v-.5a4.268,4.268,0,0,0,1.3-.2.973.973,0,0,0,.562-.586,4.109,4.109,0,0,0,.165-1.367v-12.4a4.113,4.113,0,0,0-.165-1.367.973.973,0,0,0-.562-.586,4.268,4.268,0,0,0-1.3-.2v-.5q1.037.073,3.051.073.9,0,2.246-.024t1.526-.024a6.2,6.2,0,0,1,3.912,1.074,3.457,3.457,0,0,1,1.361,2.857,4.058,4.058,0,0,1-.91,2.588,5.705,5.705,0,0,1-2.886,1.758v.049a9.559,9.559,0,0,1,2.453.635,4.484,4.484,0,0,1,1.587,1.062,3.992,3.992,0,0,1,.812,1.312,4.6,4.6,0,0,1-1.367,5,6.663,6.663,0,0,1-4.388,1.343Q117.641,242.886,116.188,242.849Zm-1.391-2.613a2.7,2.7,0,0,0,.354,1.691,2.136,2.136,0,0,0,1.526.384q4.675,0,4.675-4.382a3.955,3.955,0,0,0-1.068-2.991,4.757,4.757,0,0,0-3.388-1.026h-2.1Zm.36-14.129a2.849,2.849,0,0,0-.36,1.727v5.652h1.685a4.514,4.514,0,0,0,1.806-.324,2.543,2.543,0,0,0,1.141-.915,3.922,3.922,0,0,0,.562-1.275,6.7,6.7,0,0,0,.165-1.562,4.077,4.077,0,0,0-.83-2.8,3.435,3.435,0,0,0-2.673-.922A1.964,1.964,0,0,0,115.157,226.107ZM88.894,242.788q-.842,0-3.528.1v-.526a7.53,7.53,0,0,0,1.38-.085c.268-.057.4-.162.4-.317a.911.911,0,0,0-.184-.452l-4.272-6.543L80,238.991a4.509,4.509,0,0,0-.952,2.2.928.928,0,0,0,.567.9,4.224,4.224,0,0,0,1.654.292v.5q-1.4-.074-3.369-.074-1.38,0-2.124.074v-.5q1.4-.194,2.82-2.294l3.772-5.628-4.9-7.508a3.926,3.926,0,0,0-.787-.964,1.617,1.617,0,0,0-.885-.281v-.525q1.709.1,2.148.1,1.673,0,3.528-.1v.525q-1.673,0-1.672.549a1.181,1.181,0,0,0,.22.55l3.893,5.956,2.454-3.674a5.222,5.222,0,0,0,1.086-2.4.772.772,0,0,0-.482-.751,3.83,3.83,0,0,0-1.459-.25v-.5q1.428.073,2.881.073,1.38,0,2.124-.073v.5a2.858,2.858,0,0,0-1.435.678,7.769,7.769,0,0,0-1.385,1.617l-3.5,5.225,5.176,7.91a3.926,3.926,0,0,0,.787.964,1.617,1.617,0,0,0,.885.281v.526Q89.333,242.787,88.894,242.788Zm-58.013.024q-2,0-3.173.074v-.5a4.268,4.268,0,0,0,1.3-.2.973.973,0,0,0,.562-.586,4.109,4.109,0,0,0,.165-1.367V228.407L21.1,240.615a4.482,4.482,0,0,0,.092.744,1.636,1.636,0,0,0,.189.494.753.753,0,0,0,.373.306,2.491,2.491,0,0,0,.555.152,7.791,7.791,0,0,0,.817.073v.5q-1.147-.074-3.173-.074-2.149,0-3.2.074v-.5a4.275,4.275,0,0,0,1.3-.2.973.973,0,0,0,.562-.586,4.109,4.109,0,0,0,.165-1.367v-12.4a4.112,4.112,0,0,0-.165-1.367.973.973,0,0,0-.562-.586,4.275,4.275,0,0,0-1.3-.2v-.5q1.038.073,3.2.073,2.026,0,3.173-.073v.5a4.268,4.268,0,0,0-1.3.2.973.973,0,0,0-.562.586,4.112,4.112,0,0,0-.165,1.367v11.84l8.618-12.231a1.885,1.885,0,0,0-.421-1.386,3.007,3.007,0,0,0-1.593-.372v-.5q1.172.073,3.173.073,2.161,0,3.2-.073v.5a4.275,4.275,0,0,0-1.3.2.973.973,0,0,0-.562.586,4.112,4.112,0,0,0-.165,1.367v12.4a4.109,4.109,0,0,0,.165,1.367.973.973,0,0,0,.562.586,4.275,4.275,0,0,0,1.3.2v.5Q33.041,242.811,30.881,242.812Zm-23.175,0q-2.5,0-3.7.074v-.5a9.688,9.688,0,0,0,1.074-.085,2.721,2.721,0,0,0,.715-.2.926.926,0,0,0,.457-.421,2.282,2.282,0,0,0,.214-.671,6.381,6.381,0,0,0,.067-1.026V225.759H5.18a8.431,8.431,0,0,0-1.349.092,2.538,2.538,0,0,0-.965.354,2.627,2.627,0,0,0-.653.574,2.745,2.745,0,0,0-.421.9,8.9,8.9,0,0,0-.269,1.184q-.09.593-.189,1.569H.761q.073-.782.073-2.051a30.745,30.745,0,0,0-.183-3.2q2.075.073,7.055.073,4.944,0,7.019-.073-.17,1.782-.171,3.2,0,1.27.074,2.051h-.574q-.1-.976-.189-1.562a9.2,9.2,0,0,0-.268-1.184,2.668,2.668,0,0,0-.427-.909,2.75,2.75,0,0,0-.653-.574,2.475,2.475,0,0,0-.958-.354,8.439,8.439,0,0,0-1.349-.092H8.853V239.98a6.263,6.263,0,0,0,.068,1.026,2.309,2.309,0,0,0,.213.671.928.928,0,0,0,.458.421,2.714,2.714,0,0,0,.714.2,9.726,9.726,0,0,0,1.075.085v.5Q10.062,242.811,7.706,242.812Zm138.023-5.933v-1.44h9.033v1.44ZM103.171,216.16v-.069l.07.069Zm5.286-2.573c.209-.834,1.113-3.547,1.113-3.547a16.252,16.252,0,0,0,0-4.521,4.944,4.944,0,0,1,.278,1.182,16.758,16.758,0,0,0,0-1.877,13.273,13.273,0,0,1,.487,2.086,17.43,17.43,0,0,1,.765-2.017,5.727,5.727,0,0,0-.487-1.948,3.893,3.893,0,0,1,.834,1.391,1.253,1.253,0,0,1,.348-.487,2.881,2.881,0,0,0-.278.7c.139.347.278.7.417,1.112a10.19,10.19,0,0,1,1.6-3.616,8.607,8.607,0,0,0-.557,3.616,1.52,1.52,0,0,1,.348-.556,9.385,9.385,0,0,0-.209,2.643,11.543,11.543,0,0,0,.626-3.13,3.806,3.806,0,0,1,.279,2.086,27.34,27.34,0,0,0,1.112-3.547,10.29,10.29,0,0,1-.139,2.434,8.164,8.164,0,0,1,1.39-2.921,11.331,11.331,0,0,0-.556,5.147,23.494,23.494,0,0,0,1.112-3.408,15.8,15.8,0,0,1-.208,2.991c.139-.417.347-.9.486-1.461a13.878,13.878,0,0,0,.348-2.573c.069.278.069.556.139.9a10.126,10.126,0,0,0,.348-2.017,4.968,4.968,0,0,1,.278,2.642,8.837,8.837,0,0,1,1.252-2.434,7.723,7.723,0,0,0-.556,3.2,4.377,4.377,0,0,1,.834-2.156,9.381,9.381,0,0,0-.209,2.642,11.588,11.588,0,0,0,.626-3.129c.487.765.278,2.364.139,3.965a45.7,45.7,0,0,0,1.321-5.425,28.043,28.043,0,0,1-.208,3.894,7.852,7.852,0,0,1,1.112-2.434,1.935,1.935,0,0,1-.069-.626,4.948,4.948,0,0,1,.069-.974c.069-.556.139-1.043.209-1.6v-.487a5.247,5.247,0,0,1,0-1.043,10.808,10.808,0,0,0-.069-1.53c0-.209-.07-.348-.07-.556v-.279a.42.42,0,0,0-.069-.278,4.251,4.251,0,0,0-.9-.208s-.973-.209-.9-.279v-3.407c0-.348-.069-.765-.069-1.113,0-.208.069-.347.069-.556.069-.209.069-.487.139-.7v-.139a.876.876,0,0,1,.07-.418c.139-.347.209-.765.347-1.112.069-.209.209-.487.278-.765,0-.139.139-.278.139-.418v-.069c.069-.139.209-.278.278-.418,0-.069.069-.139.139-.278,0-.14.07-.209.209-.278v-.209c-.069-.139-.209-.209-.278-.278a.678.678,0,0,1-.278-.626,9.1,9.1,0,0,1-.069-1.947v-.209q-.105-.313-.209-.626a4.586,4.586,0,0,1-.139-.487c-.069-.417-.208-.765-.278-1.182-.069-.209-.069-.418-.139-.626,0-.069-.139-.556-.139-.7,0-.278-.139-1.6-.139-1.669a6.775,6.775,0,0,1,.069-1.183c.069-.139.069-.347.209-.487a1.224,1.224,0,0,0,.278-.347.634.634,0,0,0,.209-.487.992.992,0,0,1,.139-.418.523.523,0,0,1,.139-.278c.069,0,.069-.069.069-.139a1.932,1.932,0,0,0-.069-.626l-.209-.418-.278-.278-.139-.139c-.139-.139-.209-.348-.347-.487a.965.965,0,0,1-.139-.765,2.165,2.165,0,0,1,.139-.557c0-.069.069-.069.069-.139a2.509,2.509,0,0,0,.139-.765c-.139-.07-.278-.209-.418-.209a.924.924,0,0,0-.418.347c-.069.07-.069.209-.139.348a1.29,1.29,0,0,0-.139.487,3.975,3.975,0,0,0-.069.9,3.4,3.4,0,0,1,.069.835v.278a3.353,3.353,0,0,1,.07.834,4.688,4.688,0,0,1-.7,2.921,2.99,2.99,0,0,1-1.531,1.321c-.417.139-1.46.418-1.947-.418-.278-.487.278-.9.278-.9a.675.675,0,0,0-.069.626c.069.209.347.348.765.139.209-.07.347-.278.487-.418a5.724,5.724,0,0,0,.765-2.921c0-.208-.07-.417-.07-.626-.069.209-.139.556-.417.7a1.053,1.053,0,0,1-1.043-.139s.9.069.834-.626a5.908,5.908,0,0,1,.209-2.713v-.139c.278-1.321,2.017-1.669,2.086-1.669.626-.07.556.208.765.208h.069a1.038,1.038,0,0,1,.626-.139,2.165,2.165,0,0,0,.347-.7.253.253,0,0,0,.07-.209,1.777,1.777,0,0,1,.9-1.112,5.747,5.747,0,0,1,1.044-.278,1.932,1.932,0,0,1,.625.069,3.882,3.882,0,0,0,.834.278,1.12,1.12,0,0,1,.487.278.619.619,0,0,1,.347.07c.14,0,.209.069.348.069a2.289,2.289,0,0,1,.9.487c.139.139.347.278.487.417a2.753,2.753,0,0,1,.556.7,4.848,4.848,0,0,1,.347.9c0,.139.069.278.069.417a.253.253,0,0,0,.07.209h.069a20.026,20.026,0,0,1,2.156-.9c.139-.07.347-.209.487-.278.069-.07.139-.07.208-.139a4.157,4.157,0,0,1,.557-.278c.069,0,.139-.069.208-.069.139-.07.348-.14.487-.209s.209-.07.278,0,.07.069.139.069c.14,0,.278.14.418.278s.208.209.347.209c.278.069.626.209.9.278a1.585,1.585,0,0,1,.834.418c.069.069.14.069.209.139a.7.7,0,0,1,.278.348c0,.069.139.139.209.209a1.822,1.822,0,0,1,.417.347.621.621,0,0,1,.07.347,1.531,1.531,0,0,1-.348.835l.07.069c.139.069.278.209.417.278a3.583,3.583,0,0,1,1.6,2.156,5.927,5.927,0,0,1,.208,2.226,3.507,3.507,0,0,1-.139.834c0,.069.418.487.418.556-.07.209-1.252,1.878-1.044,1.948a7.644,7.644,0,0,0,2.852-.278,9.134,9.134,0,0,1,1.808-.209c.069-.556.278-.974.626-.974.418-.069.766.487.835,1.183s-.209,1.321-.626,1.321c-.347,0-.626-.278-.765-.765a18.75,18.75,0,0,0-4.172,1.183,12.125,12.125,0,0,0-3.13,2.225c-.209.209-.139.766-.139.766a.617.617,0,0,1-.7.417h-.07a13.9,13.9,0,0,1-3.755-1.808,19.027,19.027,0,0,1-1.74-1.6.6.6,0,0,1-.069-.765,1.458,1.458,0,0,1,.487-.487c.255-.409.211-.406.2-.4s-.006,0,.013-.015a5.246,5.246,0,0,0,0-1.043v-.974c-.069-.834-.069-1.669-.069-2.5a5.442,5.442,0,0,1,.208-1.53c0-.069.07-.209.07-.278v-.14H129.6a.525.525,0,0,0-.348.069.7.7,0,0,0-.347.279,1.83,1.83,0,0,1-.418.347c-.139.069-.347.209-.487.278v.069a.933.933,0,0,1-.486.418c-.07,0-.07.069-.139.069-.14.07-.209.14-.347.209-.139,0-.209.069-.348,0h-.069l-.209.209a3.26,3.26,0,0,1-.347.7l.069.069.278.278a5.775,5.775,0,0,1,.765,1.043c.139.278.348.487.487.765a12.972,12.972,0,0,1,.765,1.322,1.637,1.637,0,0,1,.139.556v.765l.139.765v.347a11.163,11.163,0,0,1,.07,1.53A16.8,16.8,0,0,1,128.7,185a1.362,1.362,0,0,0-.069.487,1.929,1.929,0,0,1-.069.626v.139h.139c.07,0-.278,2.364-.278,2.364-.139.139-.139.278-.209.418,0,.139-.417,3.964-.417,4.1v.7c0,.278.069.626.069.974,0,.209.069.487.069.7,0,.069.209,1.391.209,1.391h-1.53c-.069-.069-.069,0-.14,0-.069.07-.069.07-.069.139a16.412,16.412,0,0,1-.418,2.156.256.256,0,0,1-.069.209c-.14.139-.14.278-.209.418,0,.069,0,.278-.069.347v.487a8.907,8.907,0,0,1,.069,1.322V204.2a3.92,3.92,0,0,1,.418-.556,3.42,3.42,0,0,0-.418,1.183,2.877,2.877,0,0,0,.069.626c.14.139.14.209.07.348,0,.069.069.209.069.278a3.924,3.924,0,0,1,.347-.556,3.664,3.664,0,0,0-.208,1.391c.069.07.208.07.278.139a9.872,9.872,0,0,0,.347-2.086,3.758,3.758,0,0,1,.348,2.086,24.045,24.045,0,0,0,1.112-3.478,10.639,10.639,0,0,1-.139,2.5,7.815,7.815,0,0,1,1.391-2.851,10.159,10.159,0,0,0-.556,4.659h.278a16.143,16.143,0,0,0,.9-2.5,22.029,22.029,0,0,1,0,3.06.44.44,0,0,1,0,.418c0,.556-.069.9-.139.9l-.07.556c.07.069.139.069.139.139a11.853,11.853,0,0,0,.418-3.338c.139.278.278.069.278.556a16.756,16.756,0,0,0,0-1.877,13.273,13.273,0,0,1,.487,2.086,17.368,17.368,0,0,1,.765-2.017,5.727,5.727,0,0,0-.487-1.948,3.906,3.906,0,0,1,.834,1.391,1.253,1.253,0,0,1,.348-.487,2.88,2.88,0,0,0-.278.7c.139.347.278.7.417,1.112a10.19,10.19,0,0,1,1.6-3.616,8.607,8.607,0,0,0-.557,3.616,1.52,1.52,0,0,1,.348-.556,8.2,8.2,0,0,0-.209,2.782,23.593,23.593,0,0,0,1.113-3.408,15.881,15.881,0,0,1-.209,2.991c.139-.417.347-.9.487-1.46a13.961,13.961,0,0,0,.347-2.574c.069.278.069.557.14.9a8.584,8.584,0,0,0,.278-2.017,4.968,4.968,0,0,1,.278,2.642A7.269,7.269,0,0,1,137.6,203.5a7.723,7.723,0,0,0-.557,3.2,4.386,4.386,0,0,1,.835-2.156,9.381,9.381,0,0,0-.209,2.642,11.624,11.624,0,0,0,.626-3.129c.486.765.278,2.364.139,3.964a45.7,45.7,0,0,0,1.321-5.425,27.562,27.562,0,0,1-.208,3.9,8.388,8.388,0,0,1,1.391-2.852,8.847,8.847,0,0,0-.556,3.9,26.992,26.992,0,0,0,1.182-3.686c.07,1.252-.347,3.408-.487,5.286a11.725,11.725,0,0,0,.766-3.478,5.364,5.364,0,0,1,.278,2.921,14.664,14.664,0,0,0,.347-2.573,3.531,3.531,0,0,1,.139.9,6.714,6.714,0,0,0,.347-2.017,4.769,4.769,0,0,1,.278,2.156,8.4,8.4,0,0,1,1.391-2.852,7.652,7.652,0,0,0-.556,3.408,3.126,3.126,0,0,1,.695-1.53,9.421,9.421,0,0,0-.208,2.642,11.137,11.137,0,0,0,.626-3.129,4.519,4.519,0,0,1,.278,2.5,40.008,40.008,0,0,0,1.321-5.425,26.962,26.962,0,0,1-.209,3.9,8.391,8.391,0,0,1,1.391-2.851,8.843,8.843,0,0,0-.556,3.894,27.1,27.1,0,0,0,1.183-3.686,21.583,21.583,0,0,1-.279,3.408c.139-.209.348-.347.487-.556a3.066,3.066,0,0,0,.14-1.043,3.217,3.217,0,0,1,.209.626c.487-.556,4.1-5.981,4.381-7.65,2.226-14.328-2.226-16.484-3.686-16.484-1.182,0-.556-3.2-.208-4.66.069-.417.9-.9.9-.9l4.173-1.044s-.209-19.2-2.713-22.464a20.7,20.7,0,0,1-2.5-4.382c-1.461-1.947-4.1-4.034-5.911-4.1-.9,0-2.852.418-2.643,2.435a2.058,2.058,0,0,0,2.573,1.6c.9-.278,0-.765-.347-.625-1.321.487-1.043-1.183-.556-1.531a2.092,2.092,0,0,1,2.434.418,3.022,3.022,0,0,1,.07,2.782c-.765,1.183-2.643.765-3.756.139a3.57,3.57,0,0,1-1.808-3.547c.834-5.981,7.232-2.435,10.223-1.252,3.478.9,5.981,1.6,6.052,1.6,2.5,0,6.537-1.877,10.014-4.451,3.408-2.5,6.33-5.7,7.442-6.051-.14,1.6-1.739,4.243-3.2,6.19-3.269,4.381-3.2,11.406-3.2,11.406l-.695,5.565s3.06,1.043,7.79-.766l.347,3.756a.339.339,0,0,1,0,.279,1.991,1.991,0,0,1-.765,1.112l-5.911,3.616s.765,22.743.278,30.046a15.692,15.692,0,0,0,.765,6.608,3.483,3.483,0,0,1,.556-.835,4.215,4.215,0,0,0-.418,1.322c.139.278.278.625.418.9a12.549,12.549,0,0,0,.625-2.017,21.9,21.9,0,0,1-.208,2.713,1.442,1.442,0,0,0,.278.418,13.356,13.356,0,0,0,.139-1.391,3.756,3.756,0,0,1,.348,1.948l.069.069a9.573,9.573,0,0,0,.209-1.739c.069.278.069.556.139.9a10.126,10.126,0,0,0,.348-2.017,3.97,3.97,0,0,1,.278,2.156,8.367,8.367,0,0,1,1.391-2.851,7.652,7.652,0,0,0-.557,3.408,3.138,3.138,0,0,1,.7-1.531,9.391,9.391,0,0,0-.209,2.643,11.624,11.624,0,0,0,.626-3.129,3.767,3.767,0,0,1,.347,2.086,23.931,23.931,0,0,0,1.112-3.478,10.634,10.634,0,0,1-.139,2.5,7.787,7.787,0,0,1,1.391-2.851c-.7,1.46-.626,3.477-.557,5.286a25.642,25.642,0,0,0,1.113-3.13,39.081,39.081,0,0,1-.278,4.73c.139,0,.208.069.278.069a17.938,17.938,0,0,0,.347-2.991c.14.278.278.07.278.557a16.773,16.773,0,0,0,0-1.878,13.173,13.173,0,0,1,.487,2.086,17.432,17.432,0,0,1,.765-2.017,5.722,5.722,0,0,0-.487-1.947,3.894,3.894,0,0,1,.834,1.391,1.253,1.253,0,0,1,.348-.487,2.881,2.881,0,0,0-.278.7c.139.347.278.7.417,1.112a10.19,10.19,0,0,1,1.6-3.616,8.607,8.607,0,0,0-.556,3.616,1.526,1.526,0,0,1,.347-.556,10.485,10.485,0,0,0-.209,2.782,23.623,23.623,0,0,0,1.113-3.407,15.888,15.888,0,0,1-.209,2.991c.139-.418.347-.9.487-1.461a13.885,13.885,0,0,0,.347-2.573c.069.278.069.556.139.9a8.584,8.584,0,0,0,.278-2.017,4.971,4.971,0,0,1,.278,2.643,8.83,8.83,0,0,1,1.252-2.435,7.728,7.728,0,0,0-.556,3.2,4.377,4.377,0,0,1,.834-2.156,9.389,9.389,0,0,0-.209,2.643,11.622,11.622,0,0,0,.626-3.13c.487.765.278,2.365.139,3.965a45.908,45.908,0,0,0,1.322-5.425,27.721,27.721,0,0,1-.209,3.9,8.374,8.374,0,0,1,1.391-2.851,8.842,8.842,0,0,0-.556,3.894,27.1,27.1,0,0,0,1.183-3.686c.069,1.252-.348,3.408-.487,5.286a11.743,11.743,0,0,0,.765-3.477,5.351,5.351,0,0,1,.278,2.921,14.664,14.664,0,0,0,.347-2.573,3.494,3.494,0,0,1,.139.9,5.046,5.046,0,0,0,.347-2.017,3.96,3.96,0,0,1,.278,2.156,8.4,8.4,0,0,1,1.391-2.851,7.648,7.648,0,0,0-.556,3.407,3.13,3.13,0,0,1,.695-1.53,9.427,9.427,0,0,0-.208,2.643,11.149,11.149,0,0,0,.626-3.13,4.536,4.536,0,0,1,.278,2.5c.278-1.043.556-2.156.835-3.2.069-.766.069-1.322.069-1.461-.278-1.878-.9-4.451-.974-6.33,0-1.53.418-2.851.556-4.381a2.81,2.81,0,0,0-.765-2.295.752.752,0,0,1-.139-.556,7.42,7.42,0,0,0-.279-1.322,7.848,7.848,0,0,0-.9-1.391c-.418.347-.835.7-1.113.9a17.218,17.218,0,0,1,.487,2.087.944.944,0,0,0,.487.9,1.406,1.406,0,0,1,.7,1.669,12.676,12.676,0,0,1-.974,2.226,22.052,22.052,0,0,1-1.877,2.573c-.487.7-.7.974-1.6.834-.765-.139-1.6-.834-2.434-.9-1.391.209-5.147.487-6.955.974a.256.256,0,0,1-.209.069,1.09,1.09,0,0,1-.278,1.321c-.487.209-1.183-.209-1.6-1.043-.347-.834-.347-1.67.139-1.877.418-.14.974.139,1.391.765.974-.348,2.364-.765,2.99-.974.766-.278,1.948-.835,2.434-1.043-.069-.278-1.739-.765-1.669-1.252.069-.626.695-1.183.556-1.391-.9-1.321-1.809-2.017-.7-3.408.278-.347,1.112-1.321,1.391-1.669.139-.278.417-.418.347-.834s.347-.626.765-.766c.556-.139,1.252-.139,1.6-.556.626-.7.9-1.112,1.461-1.669a8,8,0,0,0,1.113-1.67s-.418-2.851-.7-4.173a3.523,3.523,0,0,1,.516-2.44.086.086,0,0,1-.029.006c0,.069-.278.208-.278.208-.069,0-.278.279-.418.348a.311.311,0,0,1-.347,0c-.139,0-.209-.14-.278-.278,0-.07,0-.07-.07-.07H185.1c-.069,0-.139,0-.139-.139v-.069h-.139a.212.212,0,0,1-.278,0c-.069-.07-.069-.07-.069-.14-.07-.139-.07-.278-.139-.418h-.347c-.209,0-.278-.208-.278-.347s.069-.209.069-.347a.524.524,0,0,0-.069-.348l-.209-.209-.069.07c-.07.069-.139.069-.209.139l-.487.487a1.465,1.465,0,0,1-1.043.348,2.9,2.9,0,0,1-1.043-.279,3.65,3.65,0,0,1-1.531-1.182,1.465,1.465,0,0,1-.347-.9c0-.139.069-.209.139-.347A.935.935,0,0,1,179.4,172c.209-.069.487-.209.7-.278.278-.139.557-.209.835-.347.069-.07.278-.626.347-.7.069-.14-.278-.9-.347-1.043-.07-.279-.139-.626-.209-.9s.487-1.183.626-1.391a8.375,8.375,0,0,1,1.113-1.112c.556-.278,1.043-.556,1.6-.834a5.867,5.867,0,0,1,1.183-.418,11.925,11.925,0,0,1,2.156-.209c.9-.069,1.739,1.67,1.809,1.948,0,.139.069.209.069.347s.069.278.069.418.069.209.209.278.278.209.418.278h.626c.209,0,.9.069,1.043.069l.626.209a.735.735,0,0,1,.417.487,3.872,3.872,0,0,1-2.364,2.574,1.5,1.5,0,0,0-.347.208v.487c0,.209.347.487.556.556a8.917,8.917,0,0,1,3.547,1.739,12.209,12.209,0,0,1,3.269,4.243c.7,1.391,1.6,2.713,2.295,4.1a27.182,27.182,0,0,1,2.365,7.3c.069.418.069.834-.418,1.043s-.347.626-.347.974a11.529,11.529,0,0,1-.9,3.408,12.832,12.832,0,0,0-.974,3.616c-.209,1.53-.14,2.851-.347,4.451q-.209,1.669-.418,3.338a7.029,7.029,0,0,0,.418-2.364,3.244,3.244,0,0,1,.347,2.086,27.341,27.341,0,0,0,1.112-3.547,10.236,10.236,0,0,1-.139,2.434,8.145,8.145,0,0,1,1.391-2.921,11.327,11.327,0,0,0-.557,5.146,23.622,23.622,0,0,0,1.113-3.407c.069,1.321-.348,3.407-.487,5.286a12.205,12.205,0,0,0,.765-3.478,4.9,4.9,0,0,1,.278,1.183,16.776,16.776,0,0,0,0-1.878,13.273,13.273,0,0,1,.487,2.086,17.432,17.432,0,0,1,.765-2.017,5.722,5.722,0,0,0-.487-1.947,3.893,3.893,0,0,1,.834,1.391,1.253,1.253,0,0,1,.348-.487,2.881,2.881,0,0,0-.278.7c.139.347.278.7.417,1.113a10.188,10.188,0,0,1,1.6-3.617,8.609,8.609,0,0,0-.557,3.617,1.523,1.523,0,0,1,.348-.557,7.362,7.362,0,0,0-.209,2.643,11.579,11.579,0,0,0,.626-3.13,3.809,3.809,0,0,1,.278,2.087,27.41,27.41,0,0,0,1.113-3.547,10.242,10.242,0,0,1-.139,2.434,8.152,8.152,0,0,1,1.391-2.921,11.313,11.313,0,0,0-.556,5.146,23.489,23.489,0,0,0,1.112-3.407,15.792,15.792,0,0,1-.208,2.99c.139-.417.347-.9.486-1.46a13.9,13.9,0,0,0,.348-2.574c.069.278.069.557.139.9a10.105,10.105,0,0,0,.348-2.017,4.968,4.968,0,0,1,.278,2.642,8.837,8.837,0,0,1,1.252-2.434,7.725,7.725,0,0,0-.556,3.2,4.377,4.377,0,0,1,.834-2.156,7.354,7.354,0,0,0-.209,2.642,11.589,11.589,0,0,0,.626-3.129c.487.765.278,2.364.139,3.965.487-1.948,1.113-4.243,1.252-5.425a28.078,28.078,0,0,1-.209,3.9,8.4,8.4,0,0,1,1.391-2.852,9.982,9.982,0,0,0-.556,3.9,27.117,27.117,0,0,0,1.182-3.686c.069,1.321-.347,3.408-.487,5.286a12.143,12.143,0,0,0,.765-3.478,5.355,5.355,0,0,1,.279,2.921,14.751,14.751,0,0,0,.347-2.573c.069.278.069.556.139.9a10.156,10.156,0,0,0,.347-2.017,3.972,3.972,0,0,1,.278,2.156,8.374,8.374,0,0,1,1.39-2.851,7.659,7.659,0,0,0-.556,3.407,3.134,3.134,0,0,1,.7-1.53,7.357,7.357,0,0,0-.209,2.643,11.587,11.587,0,0,0,.626-3.13,4.513,4.513,0,0,1,.347,2.086,24.062,24.062,0,0,0,1.113-3.477,10.641,10.641,0,0,1-.139,2.5,7.806,7.806,0,0,1,1.391-2.852c-.7,1.461-.626,3.478-.557,5.286a25.586,25.586,0,0,0,1.113-3.129l.347-.626a47.515,47.515,0,0,0,.278,5.494c.209,1.53.974,2.852.835,2.991H209.93c2.434.139,3.965.209,3.965.209l-24.412-.14c-8.694.07-17.179.07-25.107.14-18.965.123-35.069.271-45.056.271C112.385,213.858,108.4,213.787,108.456,213.587Zm14.4-5.008c.069-.278.209-.626.278-.974-.069-.069-.069-.139,0-.278v-.418c0-.139-.069-.278-.069-.417Q122.958,207.536,122.854,208.579Zm-.765-1.53v.069c.209-.556.418-1.183.626-1.739,0-.139-.069-.209-.069-.278q-.1-.626-.209-1.252A11.89,11.89,0,0,0,122.089,207.049Zm58.839-16.762a1.18,1.18,0,0,0,.626,1.739c.139-.069.209-.209.347-.347a26.345,26.345,0,0,1,2.226-2.643c.765-.834.974-.765,1.948-.278.834.418,1.6.834,2.573,1.321l.209.069c0-.417.07-.765.07-1.112,0-.14-.14-.347-.209-.347s-.278.069-.348-.139c0-.139-.278-.139-.347-.139-.348-.139-.209-.278-.348-.278a.4.4,0,0,1-.417-.278c-.139-.347-.418-.209-.278-.626a4.2,4.2,0,0,1-.487-.139c-.974-.278-.835-.209-1.391.626a3.754,3.754,0,0,1-.834.626c-.139.139-.069.348-.348.418s-.208,0-.347,0c-.139.069-.139.139-.278.139a.752.752,0,0,1-.348.07.288.288,0,0,1-.26-.036c-.052-.034-.087-.069-.157-.034-.209.07-.209,0-.278-.208C181.831,189.245,181.275,189.732,180.928,190.288Zm6.816-4.729c-.557.418-1.183.7-1.391.9l.974.347s.765-.347,1.043-.487l.07.069a14.186,14.186,0,0,0,1.391-.487c-.278-.626-.556-1.112-.765-1.6A12.1,12.1,0,0,1,187.744,185.558Zm-54.319-11.615c.139.069.278.069.418.139a5.708,5.708,0,0,1,1.321.626c.347.278.765.487,1.183.765a14.887,14.887,0,0,1,1.321.9c.069,0,.069.069.139.069l.069-.069c0-.07.069-.139.069-.209a3.477,3.477,0,0,0-.139-1.878,1.92,1.92,0,0,0-.835-1.112l-.069-.07c-.418-.278-.834-.626-1.252-.9a.363.363,0,0,0-.278-.14.185.185,0,0,0-.209.209v.069c-.069.139-.139.209-.278.209s-.209-.069-.278-.209a.872.872,0,0,1-.07-.417v-.209a.068.068,0,0,0-.069-.069c0-.07-.069-.07-.139-.07a2.687,2.687,0,0,0-1.461.209,3.089,3.089,0,0,0-1.321,1.183l.069-.069a3.724,3.724,0,0,0-.487,2.295c.069.139.069.278.139.417,0,.07.069.139.139.209a.171.171,0,0,0,.278-.069c.069-.139.835-1.53.835-1.53a1.209,1.209,0,0,1,.725-.3A.909.909,0,0,1,133.425,173.944Zm2.5-2.713c.069.069.069.069.139,0a.254.254,0,0,0-.07-.209h-.069A.131.131,0,0,0,135.929,171.231Zm17.944-44.442c0-6.33,5.008-34.149,5.008-34.149s5.008,27.819,5.008,34.149a12.477,12.477,0,0,1-5.008,9.737A12.477,12.477,0,0,1,153.873,126.789Zm25.177,6.467a12.74,12.74,0,0,1-8.346-7.232c-2.434-5.912-8.763-34.079-8.763-34.079s15.44,24.412,17.943,30.324a12.708,12.708,0,0,1-.765,11.058Zm-41.1-10.988c2.434-5.981,17.944-30.254,17.944-30.254s-6.26,28.167-8.694,34.079a12.791,12.791,0,0,1-8.416,7.233A12.6,12.6,0,0,1,137.946,122.269Zm50.145-1.322c-5.008-5.008-23.508-30.74-23.508-30.74s25.734,18.5,30.741,23.508a14.326,14.326,0,0,1,4.1,11.336,9.336,9.336,0,0,1-1.193.064A14.362,14.362,0,0,1,188.091,120.947Zm-68.784,3.339a13.855,13.855,0,0,1,3.894-11.128c4.869-4.868,30.115-22.882,30.115-22.882S135.3,115.522,130.434,120.39a13.792,13.792,0,0,1-9.773,3.975A9.743,9.743,0,0,1,119.307,124.285Zm84.85-15.023c-7.441-3.13-37.9-21.7-37.9-21.7s34.775,8.416,42.147,11.476a16.358,16.358,0,0,1,9.25,9.806,15.865,15.865,0,0,1-7.225,1.677A16.257,16.257,0,0,1,204.157,109.263Zm-103.42-.556a16.346,16.346,0,0,1,9.18-9.737c7.3-2.991,41.73-11.336,41.73-11.336s-30.254,18.5-37.557,21.49a16.249,16.249,0,0,1-6.2,1.229A15.839,15.839,0,0,1,100.737,108.707Zm66.35-24.064s39.713-6.259,48.685-6.259a18.424,18.424,0,0,1,13.91,6.259,18.49,18.49,0,0,1-13.91,6.189C206.8,90.832,167.087,84.642,167.087,84.642ZM88.635,84.5a18.431,18.431,0,0,1,13.841-6.19c8.971,0,48.476,6.19,48.476,6.19s-39.574,6.19-48.476,6.19A18.431,18.431,0,0,1,88.635,84.5ZM99.763,67.394a20.317,20.317,0,0,1-11.407-12.1,20.19,20.19,0,0,1,16.623-.487c9.111,3.756,46.668,26.637,46.668,26.637S108.874,71.149,99.763,67.394Zm66.559,13.84s37-22.6,45.973-26.29a19.912,19.912,0,0,1,16.344.487,19.857,19.857,0,0,1-11.267,11.963c-8.9,3.686-51.05,13.91-51.05,13.91ZM109.083,44.79a20.844,20.844,0,0,1-6.12-16.136A20.845,20.845,0,0,1,119.1,34.775c7.233,7.233,34.149,44.164,34.149,44.164S116.316,52.023,109.083,44.79Zm90.067-10.642a21.171,21.171,0,0,1,16.345-6.189,21.388,21.388,0,0,1-6.26,16.344h.07c-7.373,7.3-44.721,34.566-44.721,34.566S191.847,41.451,199.149,34.149ZM126.54,26.012a22.151,22.151,0,0,1,.487-18.292A22.077,22.077,0,0,1,140.31,20.239c4.173,9.945,15.511,56.892,15.511,56.892V77.2S130.643,35.957,126.54,26.012Zm50.771-5.078A21.883,21.883,0,0,1,190.455,8.555a21.813,21.813,0,0,1,.487,18.014c-4.1,9.876-28.932,50.563-28.932,50.563S173.277,30.811,177.311,20.934ZM151.369,16.97A22.461,22.461,0,0,1,158.95,0a22.571,22.571,0,0,1,7.65,16.97c0,10.989-7.65,59.534-7.65,59.534S151.369,27.959,151.369,16.97Z" transform="translate(-0.651)" fill="#fefefe"></path></svg> 